<?xml version="1.0" standalone="no"?>
<!DOCTYPE svg PUBLIC "-//W3C//DTD SVG 1.1//EN" "http://www.w3.org/Graphics/SVG/1.1/DTD/svg11.dtd" >
<svg>
<metadata>
Created by FontForge 20090914 at Wed Feb  7 18:56:16 2018
 By www-data
Copyright &#194;&#169; 2015 by Wei Huang. All rights reserved.
</metadata>
<defs>
<font id="WorkSans-Regular" horiz-adv-x="604" >
  <font-face 
    font-family="Work Sans"
    font-weight="400"
    font-stretch="normal"
    units-per-em="1000"
    panose-1="0 0 5 0 0 0 0 0 0 0"
    ascent="800"
    descent="-200"
    x-height="500"
    cap-height="660"
    bbox="-325 -336.997 1204 930"
    underline-thickness="50"
    underline-position="-50"
    unicode-range="U+0020-U+FB02"
  />
<missing-glyph horiz-adv-x="500" 
d="M50 660h400v-660h-400v660zM370 80v500h-240v-500h240z" />
    <glyph glyph-name="fi" unicode="fi" horiz-adv-x="659" 
d="M212 500h167v-69h-167v-431h-80v431h-100v69h100v84c0 46 14 82.667 42 110s68.667 41 122 41c18 0 34.5 -2 49.5 -6s26.833 -9.66699 35.5 -17l-21 -65c-16 10 -35 15 -57 15c-60.667 0 -91 -28.667 -91 -86v-76zM482.5 612.5c-11 11 -16.5 25.5 -16.5 43.5
s5.5 32.5 16.5 43.5s25.5 16.5 43.5 16.5s32.5 -5.5 43.5 -16.5s16.5 -25.5 16.5 -43.5s-5.5 -32.5 -16.5 -43.5s-25.5 -16.5 -43.5 -16.5s-32.5 5.5 -43.5 16.5zM566 0h-80v500h80v-500z" />
    <glyph glyph-name="fl" unicode="fl" horiz-adv-x="699" 
d="M212 500h167v-69h-167v-431h-80v431h-100v69h100v84c0 46 14 82.667 42 110s68.667 41 122 41c18 0 34.5 -2 49.5 -6s26.833 -9.66699 35.5 -17l-21 -65c-16 10 -35 15 -57 15c-60.667 0 -91 -28.667 -91 -86v-76zM562 134c0 -25.333 3.83301 -42.833 11.5 -52.5
s21.834 -14.5 42.501 -14.5c14 0 26.167 1 36.5 3s22.5 5.66699 36.5 11l-13 -77c-22 -9.33301 -46.667 -14 -74 -14c-40.667 0 -70.834 11 -90.501 33s-29.5 55.667 -29.5 101v606h80v-596z" />
    <glyph glyph-name=".notdef" horiz-adv-x="500" 
d="M50 660h400v-660h-400v660zM370 80v500h-240v-500h240z" />
    <glyph glyph-name="space" unicode=" " horiz-adv-x="341" 
 />
    <glyph glyph-name="exclam" unicode="!" horiz-adv-x="272" 
d="M178 374l-12 -166h-60l-12 166v286h84v-286zM183 102c12 -12 18 -27.667 18 -47s-6 -35 -18 -47s-27.667 -18 -47 -18s-35 6 -47 18s-18 27.667 -18 47s6 35 18 47s27.667 18 47 18s35 -6 47 -18z" />
    <glyph glyph-name="quotedbl" unicode="&#x22;" horiz-adv-x="403" 
d="M313 443h-62v247h88zM144 443h-62v247h88z" />
    <glyph glyph-name="numbersign" unicode="#" horiz-adv-x="640" 
d="M485 417l-29 -169h119v-61h-129l-31 -187h-68l31 187h-166l-31 -187h-68l31 187h-124v61h134l29 169h-119v61h129l30 182h68l-30 -182h166l30 182h68l-30 -182h124v-61h-134zM417 417h-166l-29 -169h166z" />
    <glyph glyph-name="dollar" unicode="$" horiz-adv-x="615" 
d="M279 1c-58 5.33301 -106.83 22.3281 -146.497 50.9951s-68.167 68.334 -85.5 119.001l74 38c7.33301 -36 25.666 -66.5 54.999 -91.5s63.666 -41.167 102.999 -48.5v232c-43.333 9.33301 -79.166 19.5 -107.499 30.5s-51.833 27.5 -70.5 49.5s-28 51.333 -28 88
c0 33.333 8.33301 63.666 25 90.999s40.5 49.833 71.5 67.5s67.5 28.167 109.5 31.5v101h69v-102c49.333 -4 90.166 -17.167 122.499 -39.5s60.166 -55.166 83.499 -98.499l-65 -51c-16.667 38.667 -35.667 67.334 -57 86.001s-49.333 30.334 -84 35.001v-235
c43.333 -9.33301 79.166 -19.5 107.499 -30.5s52 -27.833 71 -50.5s28.5 -53 28.5 -91c0 -51.333 -18.667 -93.166 -56 -125.499s-87.666 -51.166 -150.999 -56.499v-101h-69v101zM279.003 590.995c-42.667 -4 -75 -16 -97 -36s-33 -46.667 -33 -80
c0 -30 11.167 -52.667 33.5 -68s54.5 -28 96.5 -38v222zM480.003 176.995c0 30.667 -11.5 54 -34.5 70s-55.5 29 -97.5 39v-219c88 7.33301 132 44 132 110z" />
    <glyph glyph-name="percent" unicode="%" horiz-adv-x="856" 
d="M315 620.5c28.667 -33 43 -77.167 43 -132.5s-14.333 -99.5 -43 -132.5s-67.334 -49.5 -116.001 -49.5s-87.334 16.5 -116.001 49.5s-43 77.167 -43 132.5s14.333 99.5 43 132.5s67.334 49.5 116.001 49.5s87.334 -16.5 116.001 -49.5zM600 660h76l-420 -660h-76z
M134 576c-15.333 -20.667 -23 -50 -23 -88s7.66699 -67.333 23 -88s37 -31 65 -31s49.667 10.333 65 31s23 50 23 88s-7.66699 67.333 -23 88s-37 31 -65 31s-49.667 -10.333 -65 -31zM773 304.5c28.667 -33 43 -77.167 43 -132.5s-14.333 -99.5 -43 -132.5
s-67.334 -49.5 -116.001 -49.5s-87.334 16.5 -116.001 49.5s-43 77.167 -43 132.5s14.333 99.5 43 132.5s67.334 49.5 116.001 49.5s87.334 -16.5 116.001 -49.5zM592 260c-15.333 -20.667 -23 -50 -23 -88s7.66699 -67.333 23 -88s37 -31 65 -31s49.667 10.333 65 31
s23 50 23 88s-7.66699 67.333 -23 88s-37 31 -65 31s-49.667 -10.333 -65 -31z" />
    <glyph glyph-name="ampersand" unicode="&#x26;" horiz-adv-x="623" 
d="M564.5 63.5c17.667 -9 38.498 -13.499 62.498 -13.499l-20 -60c-26.667 0 -50.667 5 -72 15s-47.666 30.667 -78.999 62c-26 -24.667 -55.667 -43.667 -89 -57s-69.666 -20 -108.999 -20c-40.667 0 -77 7.33301 -109 22s-56.833 35 -74.5 61s-26.5 55.333 -26.5 88
c0 41.333 12.167 78.166 36.5 110.499s64.833 63.5 121.5 93.5c-28.667 37.333 -48.5 67 -59.5 89s-16.5 45.333 -16.5 70s6 48.167 18 70.5s29.667 40.5 53 54.5s51.333 21 84 21c43.333 0 79.833 -11.167 109.5 -33.5s44.5 -56.5 44.5 -102.5
c0 -38 -8.83301 -71 -26.5 -99s-52.167 -57 -103.5 -87c11.333 -15.333 33.333 -43 66 -83l36 -45l44 -53c28 46 42 99.667 42 161c0 12 -0.333008 21 -1 27l64 -8l1 -24c0 -37.333 -5.33301 -73.5 -16 -108.5s-26 -67.167 -46 -96.5c26 -27.333 47.833 -45.5 65.5 -54.5z
M225.498 580.001c-13.667 -14.667 -20.5 -33.0029 -20.5 -55.0029c0 -17.333 4 -34.166 12 -50.499s25.667 -42.166 53 -77.499c40.667 22 67.167 43.333 79.5 64s18.5 44.334 18.5 71.001c0 46.667 -28 70 -84 70c-25.333 0 -44.833 -7.33301 -58.5 -22zM339.998 69.998
c26.667 10 50.667 24.667 72 44c-22.667 24.667 -53 60.667 -91 108l-74 91c-48.667 -28 -81.5 -52.833 -98.5 -74.5s-25.5 -45.5 -25.5 -71.5c0 -32 13 -58.667 39 -80s57 -32 93 -32c30 0 58.333 5 85 15z" />
    <glyph glyph-name="quotesingle" unicode="'" horiz-adv-x="234" 
d="M144 443h-62v247h88z" />
    <glyph glyph-name="parenleft" unicode="(" horiz-adv-x="350" 
d="M321 705c-65.333 -59.333 -111.333 -121.668 -138 -187.001s-40 -144.333 -40 -237s13.333 -171.667 40 -237s72.667 -127.666 138 -186.999l-46 -46c-70.667 61.333 -124 131.5 -160 210.5s-54 165.5 -54 259.5s18 180.5 54 259.5s89.333 149.167 160 210.5z" />
    <glyph glyph-name="parenright" unicode=")" horiz-adv-x="350" 
d="M235 540.5c36 -79 54 -165.498 54 -259.498s-18 -180.5 -54 -259.5s-89.333 -149.167 -160 -210.5l-46 46c65.333 59.333 111.333 121.666 138 186.999s40 144.333 40 237s-13.333 171.667 -40 237s-72.667 127.666 -138 186.999l46 46
c70.667 -61.333 124 -131.5 160 -210.5z" />
    <glyph glyph-name="asterisk" unicode="*" horiz-adv-x="572" 
d="M380 422l70 -98l-52 -38l-72 97l-40 73l-40 -73l-72 -97l-52 38l70 98l57 61l-82 16l-114 38l19 61l116 -36l75 -35l-10 82v121h66v-121l-10 -82l75 35l116 36l19 -61l-114 -38l-82 -16z" />
    <glyph glyph-name="plus" unicode="+" 
d="M545 279h-205v-211h-75v211h-206v75h206v210h75v-210h205v-75z" />
    <glyph glyph-name="comma" unicode="," horiz-adv-x="266" 
d="M188 93c13.333 -18 20.001 -41.334 20.001 -70.001c0 -35.333 -9 -68 -27 -98s-45.333 -53.667 -82 -71l-42 39c26 8.66699 47.667 22.334 65 41.001s28.333 39 33 61l-4 2c-6 -4.66699 -15.333 -7 -28 -7c-14 0 -26.667 5.5 -38 16.5s-17 26.5 -17 46.5
c0 18 6.33301 33.667 19 47s28 20 46 20c23.333 0 41.666 -9 54.999 -27z" />
    <glyph glyph-name="hyphen" unicode="-" horiz-adv-x="510" 
d="M420 220h-330v83h330v-83z" />
    <glyph glyph-name="period" unicode="." horiz-adv-x="266" 
d="M180 102c12 -12 18 -27.667 18 -47s-6 -35 -18 -47s-27.667 -18 -47 -18s-35 6 -47 18s-18 27.667 -18 47s6 35 18 47s27.667 18 47 18s35 -6 47 -18z" />
    <glyph glyph-name="slash" unicode="/" horiz-adv-x="438" 
d="M103 -70h-75l306 800h75z" />
    <glyph glyph-name="zero" unicode="0" horiz-adv-x="622" 
d="M128 77c-42 58 -63 142.333 -63 253s21 195 63 253s103 87 183 87s141 -29 183 -87s63 -142.333 63 -253s-21 -195 -63 -253s-103 -87 -183 -87s-141 29 -183 87zM432 130.5c28 45.667 42 112.167 42 199.5s-14 153.833 -42 199.5s-68.333 68.5 -121 68.5
s-93 -22.833 -121 -68.5s-42 -112.167 -42 -199.5s14 -153.833 42 -199.5s68.333 -68.5 121 -68.5s93 22.833 121 68.5z" />
    <glyph glyph-name="one" unicode="1" horiz-adv-x="409" 
d="M307 660l0.000976562 -660.001h-80v484c0 14 0.666992 39.667 2 77c-22.667 -22 -49 -41.167 -79 -57.5s-60.667 -28.166 -92 -35.499l-21 73c16 2 37.667 9.5 65 22.5s53.666 28.333 78.999 46s44 34.5 56 50.5h70z" />
    <glyph glyph-name="two" unicode="2" horiz-adv-x="583" 
d="M74 65c91.333 67.333 161.334 122.831 210.001 166.498s83.5 83.334 104.5 119.001s31.5 73.167 31.5 112.5s-12.667 71.166 -38 95.499s-59.333 36.5 -102 36.5c-44.667 0 -80.834 -14.667 -108.501 -44s-43.834 -69 -48.501 -119l-70 42
c8.66699 59.333 32.834 106.833 72.501 142.5s92.167 53.5 157.5 53.5c44 0 82.833 -8.66699 116.5 -26s59.5 -41.666 77.5 -72.999s27 -67.333 27 -108c0 -42.667 -10.167 -83.667 -30.5 -123s-53.5 -80.666 -99.5 -123.999s-108 -91 -186 -143v-1c44 2 77 3 99 3h231v-75
h-444v65z" />
    <glyph glyph-name="three" unicode="3" horiz-adv-x="583" 
d="M402.5 646.5c31 -15.667 54.5 -36.498 70.5 -62.498s24 -54.667 24 -86c0 -30.667 -5.66699 -58.334 -17 -83.001s-26.5 -44.167 -45.5 -58.5s-39.5 -21.5 -61.5 -21.5v-2c42 0 75.667 -15.167 101 -45.5s38 -67.166 38 -110.499c0 -35.333 -9.5 -67.333 -28.5 -96
s-46.167 -51 -81.5 -67s-76 -24 -122 -24c-110 0 -186 52.667 -228 158l74 39c13.333 -40.667 31.833 -71.167 55.5 -91.5s58.5 -30.5 104.5 -30.5c44.667 0 79.667 11.167 105 33.5s38 51.166 38 86.499c0 40.667 -12.167 69.167 -36.5 85.5s-62.833 24.5 -115.5 24.5h-26
v75h26c91.333 0 137 37.333 137 112c0 37.333 -10.5 65.5 -31.5 84.5s-51.167 28.5 -90.5 28.5c-38.667 0 -69.5 -8.83301 -92.5 -26.5s-38.833 -42.5 -47.5 -74.5l-75 35c16 43.333 43.167 77.666 81.5 102.999s82.5 38 132.5 38c43.333 0 80.5 -7.83301 111.5 -23.5z" />
    <glyph glyph-name="four" unicode="4" horiz-adv-x="611" 
d="M563 173h-117v-173h-80v173h-322v59l301 428h101v-418h117v-69zM129 242h237v247l4 106h-2c-16.667 -34 -38.667 -70.667 -66 -110z" />
    <glyph glyph-name="five" unicode="5" horiz-adv-x="582" 
d="M462 364.5c38 -39 57.0029 -90.5 57.0029 -154.5c0 -68.667 -20 -122.5 -60 -161.5s-95.333 -58.5 -166 -58.5c-59.333 0 -107.5 12.833 -144.5 38.5s-65.5 63.167 -85.5 112.5l78 41c11.333 -38.667 28.166 -67.834 50.499 -87.501s55.166 -29.5 98.499 -29.5
c45.333 0 81 12.333 107 37s39 58.667 39 102c0 46.667 -12 82.334 -36 107.001s-58.667 37 -104 37c-68.667 0 -117.667 -21.333 -147 -64h-71l40 376h371v-75h-303l-26 -208l-1 -9h1c35.333 36.667 85.666 55 150.999 55c62.667 0 113 -19.5 151 -58.5z" />
    <glyph glyph-name="six" unicode="6" horiz-adv-x="618" 
d="M458 637c33.333 -22 60.334 -57.332 81.001 -105.999l-74 -35c-21.333 66 -68.333 99 -141 99c-34.667 0 -65.5 -12.333 -92.5 -37s-48 -58.334 -63 -101.001s-22.5 -90 -22.5 -142v-18h4c10 39.333 32.667 69.333 68 90s73 31 113 31
c67.333 0 121.166 -19.333 161.499 -58s60.5 -90.667 60.5 -156s-20.5 -117.333 -61.5 -156s-96.167 -58 -165.5 -58c-54 0 -100.167 14.5 -138.5 43.5s-67.333 69 -87 120s-29.5 109.833 -29.5 176.5c0 72 11.167 133.5 33.5 184.5s53 89.667 92 116
s83.167 39.5 132.5 39.5c52.667 0 95.667 -11 129 -33zM221.001 303.001c-26.667 -25.333 -39.998 -58 -39.998 -98c0 -41.333 13.167 -74.666 39.5 -99.999s61.166 -38 104.499 -38c45.333 0 80.666 12.167 105.999 36.5s38 58.166 38 101.499
c0 42 -12.667 75.167 -38 99.5s-60.666 36.5 -105.999 36.5c-42.667 0 -77.334 -12.667 -104.001 -38z" />
    <glyph glyph-name="seven" unicode="7" horiz-adv-x="561" 
d="M526 660v-75.002c-82 -86 -141.833 -176.667 -179.5 -272s-56.5 -199.666 -56.5 -312.999h-82c0 108 19.5 211.833 58.5 311.5s96.5 190.834 172.5 273.501h-399v75h486z" />
    <glyph glyph-name="eight" unicode="8" horiz-adv-x="616" 
d="M461 622.5c38 -31 56.998 -73.165 56.998 -126.498c0 -34 -8.16699 -63.833 -24.5 -89.5s-39.166 -45.167 -68.499 -58.5v-1c38.667 -14.667 68.834 -36.334 90.501 -65.001s32.5 -63.334 32.5 -104.001c0 -38 -9.83301 -71.167 -29.5 -99.5s-47.667 -50.166 -84 -65.499
s-78.5 -23 -126.5 -23s-90 7.66699 -126 23s-64 37.166 -84 65.499s-30 61.5 -30 99.5c0 40 10.833 74.667 32.5 104s52.167 51 91.5 65v1c-29.333 12.667 -52.333 32 -69 58s-25 56 -25 90c0 53.333 19 95.5 57 126.5s89 46.5 153 46.5s115 -15.5 153 -46.5z
M214.998 566.002c-22.667 -18.667 -34 -44.667 -34 -78c0 -32 11.667 -57.5 35 -76.5s54 -28.5 92 -28.5s68.667 9.5 92 28.5s35 44.5 35 76.5c0 33.333 -11.333 59.333 -34 78s-53.667 28 -93 28s-70.333 -9.33301 -93 -28zM422.998 97.502c28 21.667 42 51.167 42 88.5
c0 38 -14.167 67.833 -42.5 89.5s-66.5 32.5 -114.5 32.5c-47.333 0 -85.333 -11 -114 -33s-43 -51.667 -43 -89s14.167 -66.833 42.5 -88.5s66.5 -32.5 114.5 -32.5c48.667 0 87 10.833 115 32.5z" />
    <glyph glyph-name="nine" unicode="9" horiz-adv-x="623" 
d="M435.5 627c38.333 -28.667 67.333 -68.5 87 -119.5s29.5 -110.167 29.5 -177.5c0 -110.667 -21.667 -195 -65 -253s-106.333 -87 -189 -87c-59.333 0 -107.5 12.333 -144.5 37s-65.167 62 -84.5 112l79 42c12 -39.333 28.5 -68.5 49.5 -87.5s54.167 -28.5 99.5 -28.5
c66 0 112.833 25 140.5 75s41.5 122.333 41.5 217v9h-4c-9.33301 -44 -31.5 -75.667 -66.5 -95s-74.167 -29 -117.5 -29c-66.667 0 -120.167 19.333 -160.5 58s-60.5 90.667 -60.5 156s20.5 117.333 61.5 156s96.167 58 165.5 58c54 0 100.167 -14.333 138.5 -43zM192 556.5
c-25.333 -24.333 -38.002 -58.166 -38.002 -101.499c0 -42 12.667 -75.167 38 -99.5s60.666 -36.5 105.999 -36.5c42.667 0 77.334 12.667 104.001 38s40 58 40 98c0 41.333 -13.167 74.666 -39.5 99.999s-61.166 38 -104.499 38c-45.333 0 -80.666 -12.167 -105.999 -36.5z
" />
    <glyph glyph-name="colon" unicode=":" horiz-adv-x="296" 
d="M195 492c12 -12 18 -27.667 18 -47s-6 -35 -18 -47s-27.667 -18 -47 -18s-35 6 -47 18s-18 27.667 -18 47s6 35 18 47s27.667 18 47 18s35 -6 47 -18zM195 102c12 -12 18 -27.667 18 -47s-6 -35 -18 -47s-27.667 -18 -47 -18s-35 6 -47 18s-18 27.667 -18 47s6 35 18 47
s27.667 18 47 18s35 -6 47 -18z" />
    <glyph glyph-name="semicolon" unicode=";" horiz-adv-x="296" 
d="M107 398c-12 12 -18 27.667 -18 47s6 35 18 47s27.667 18 47 18s35 -6 47 -18s18 -27.667 18 -47s-6 -35 -18 -47s-27.667 -18 -47 -18s-35 6 -47 18zM205 93c13.333 -18 20.001 -41.334 20.001 -70.001c0 -35.333 -9 -68 -27 -98s-45.333 -53.667 -82 -71l-42 39
c26 8.66699 47.667 22.334 65 41.001s28.333 39 33 61l-4 2c-6 -4.66699 -15.333 -7 -28 -7c-14 0 -26.667 5.5 -38 16.5s-17 26.5 -17 46.5c0 18 6.33301 33.667 19 47s28 20 46 20c23.333 0 41.666 -9 54.999 -27z" />
    <glyph glyph-name="less" unicode="&#x3c;" 
d="M547 488l-412 -188l412 -189v-83l-476 225v93l476 225v-83z" />
    <glyph glyph-name="equal" unicode="=" 
d="M540 366h-476v75h476v-75zM540 166h-476v75h476v-75z" />
    <glyph glyph-name="greater" unicode="&#x3e;" 
d="M533 346v-93l-476 -225v83l412 189l-412 188v83z" />
    <glyph glyph-name="question" unicode="?" horiz-adv-x="542" 
d="M431 624c40.667 -30.667 61 -72.001 61 -124.001c0 -55.333 -17.333 -98.5 -52 -129.5s-80 -49.5 -136 -55.5v-107h-83v150c67.333 10 115.333 25 144 45s43 49 43 87c0 32.667 -12 58.334 -36 77.001s-59 28 -105 28c-44 0 -79.833 -12.167 -107.5 -36.5
s-44.167 -57.5 -49.5 -99.5l-71 41c11.333 52 37.666 93.333 78.999 124s93 46 155 46c64.667 0 117.334 -15.333 158.001 -46zM308 101.999c12 -12 18 -27.667 18 -47s-6 -35 -18 -47s-27.667 -18 -47 -18s-35 6 -47 18s-18 27.667 -18 47s6 35 18 47s27.667 18 47 18
s35 -6 47 -18z" />
    <glyph glyph-name="at" unicode="@" horiz-adv-x="985" 
d="M734 607c61.333 -35.333 106.834 -83 136.501 -143s44.5 -128 44.5 -204c0 -54 -7.66699 -101 -23 -141s-36.833 -70.667 -64.5 -92s-59.834 -32 -96.501 -32c-34 0 -60.333 8.83301 -79 26.5s-31 39.5 -37 65.5c-18 -27.333 -42.167 -48.666 -72.5 -63.999
s-65.166 -23 -104.499 -23c-31.333 0 -60 8.16699 -86 24.5s-46.667 39.833 -62 70.5s-23 66.667 -23 108c0 53.333 11 99.833 33 139.5s50.667 70 86 91s72.666 31.5 111.999 31.5c77.333 0 127.333 -29 150 -87l20 81h52l-39 -311c-0.666992 -5.33301 -1 -13 -1 -23
c0 -49.333 21 -74 63 -74c36 0 63.333 17.667 82 53s28 87.333 28 156c0 67.333 -13 126.5 -39 177.5s-65 91 -117 120s-115.333 43.5 -190 43.5c-76.667 0 -143.167 -15.5 -199.5 -46.5s-99.5 -74.833 -129.5 -131.5s-45 -123.334 -45 -200.001
c0 -72.667 15.167 -136.167 45.5 -190.5s72.166 -96 125.499 -125s113.333 -43.5 180 -43.5c52 0 93.833 5.66699 125.5 17s61.834 27.333 90.501 48l35 -46c-36 -25.333 -72.167 -44.666 -108.5 -57.999s-83.833 -20 -142.5 -20c-83.333 0 -156.5 17.333 -219.5 52
s-111.833 83.667 -146.5 147s-52 136.333 -52 219c0 85.333 18.167 161.166 54.5 227.499s87.833 117.833 154.5 154.5s144 55 232 55c90 0 165.667 -17.667 227 -53zM384.001 353c-30 -35.333 -44.998 -84 -44.998 -146c0 -46 10.667 -82 32 -108s51.666 -39 90.999 -39
c40 0 75 12.667 105 38s48 61.333 54 108l6 49c1.33301 13.333 2 23.333 2 30c0 37.333 -9.83301 66.833 -29.5 88.5s-50.834 32.5 -93.501 32.5c-51.333 0 -92 -17.667 -122 -53z" />
    <glyph glyph-name="A" unicode="A" horiz-adv-x="660" 
d="M479 183h-299l-70 -183h-84l257 660h95l256 -660h-85zM450 258l-89 234l-31 92h-2l-29 -89l-90 -237h241z" />
    <glyph glyph-name="B" unicode="B" horiz-adv-x="653" 
d="M108 660l235.002 0.00195312c76 0 132.5 -15.833 169.5 -47.5s55.5 -76.5 55.5 -134.5c0 -34.667 -9.83301 -65.334 -29.5 -92.001s-46.834 -43.334 -81.501 -50.001v-1c38.667 -7.33301 69.667 -25 93 -53s35 -60.333 35 -97c0 -56.667 -21.333 -101.667 -64 -135
s-102.334 -50 -179.001 -50h-234v660zM344.002 370.002c47.333 0 82.5 8.83203 105.5 26.499s34.5 44.834 34.5 81.501c0 71.333 -46.667 107 -140 107h-156v-215h156zM361.002 75.001c46.667 0 81.667 9.5 105 28.5s35 46.167 35 81.5s-11.667 62.5 -35 81.5
s-58.333 28.5 -105 28.5h-173v-220h173z" />
    <glyph glyph-name="C" unicode="C" horiz-adv-x="686" 
d="M538 37.5c-47.333 -31.667 -102.002 -47.5 -164.002 -47.5s-116 13.833 -162 41.5s-81.5 67 -106.5 118s-37.5 111.167 -37.5 180.5c0 68.667 12.5 128.667 37.5 180s60.5 90.833 106.5 118.5s99.333 41.5 160 41.5c63.333 0 116.5 -13 159.5 -39
s75.167 -64.333 96.5 -115l-79 -37c-14.667 38.667 -36 67.667 -64 87s-63.667 29 -107 29c-45.333 0 -85 -10.5 -119 -31.5s-60.333 -51.5 -79 -91.5s-28 -87.333 -28 -142c0 -82.667 19.833 -147.5 59.5 -194.5s93.834 -70.5 162.501 -70.5
c44.667 0 83.334 11.333 116.001 34s56 56 70 100l80 -30c-20.667 -56 -54.667 -99.833 -102 -131.5z" />
    <glyph glyph-name="D" unicode="D" horiz-adv-x="721" 
d="M565 574c58.667 -57.333 88 -138.668 88 -244.001s-29.333 -186.666 -88 -243.999s-140 -86 -244 -86h-213v660h213c104 0 185.333 -28.667 244 -86zM505.5 142.498c42.333 45 63.5 107.5 63.5 187.5s-21.167 142.5 -63.5 187.5s-101.166 67.5 -176.499 67.5h-141v-510
h141c75.333 0 134.166 22.5 176.499 67.5z" />
    <glyph glyph-name="E" unicode="E" horiz-adv-x="638" 
d="M586 75v-75h-478v660h463v-75h-383v-213h298v-75h-298v-222h398z" />
    <glyph glyph-name="F" unicode="F" horiz-adv-x="610" 
d="M188 585v-213h298v-75h-298v-297h-80v660h462v-75h-382z" />
    <glyph glyph-name="G" unicode="G" horiz-adv-x="724" 
d="M645 333l0.00390625 -332.999h-60l-3 89c-19.333 -32 -46.5 -56.5 -81.5 -73.5s-77.167 -25.5 -126.5 -25.5c-62 0 -116 13.833 -162 41.5s-81.5 67 -106.5 118s-37.5 111.167 -37.5 180.5c0 68.667 12.833 128.667 38.5 180s61.667 90.833 108 118.5
s100.166 41.5 161.499 41.5c65.333 0 119.166 -12.333 161.499 -37s76.5 -62.667 102.5 -114l-73 -40c-14.667 37.333 -38.5 66 -71.5 86s-72.833 30 -119.5 30c-44.667 0 -83.834 -10.667 -117.501 -32s-59.834 -51.833 -78.501 -91.5s-28 -86.834 -28 -141.501
c0 -84 19.333 -149.167 58 -195.5s94.334 -69.5 167.001 -69.5c57.333 0 104.166 14.667 140.499 44s54.5 71.333 54.5 126v23h-210v75h283z" />
    <glyph glyph-name="H" unicode="H" horiz-adv-x="734" 
d="M626 660v-660h-80v297h-358v-297h-80v660h80v-288h358v288h80z" />
    <glyph glyph-name="I" unicode="I" horiz-adv-x="296" 
d="M188 0h-80v660h80v-660z" />
    <glyph glyph-name="J" unicode="J" horiz-adv-x="566" 
d="M465 226c0 -74 -19.834 -131.832 -59.501 -173.499s-94.5 -62.5 -164.5 -62.5c-63.333 0 -112.333 15.5 -147 46.5s-52 73.833 -52 128.5c0 19.333 1.66699 37 5 53l74 15c-2.66699 -22.667 -4 -38.667 -4 -48c0 -40.667 9.66699 -70.834 29 -90.501s50 -29.5 92 -29.5
c54.667 0 92.834 14.667 114.501 44s32.5 75 32.5 137v414h80v-434z" />
    <glyph glyph-name="K" unicode="K" horiz-adv-x="656" 
d="M306 332l-118 -120v-212h-80v660h80v-340l332 340h105l-263 -269l266 -391h-96z" />
    <glyph glyph-name="L" unicode="L" horiz-adv-x="598" 
d="M566 75v-75h-458v660h80v-585h378z" />
    <glyph glyph-name="M" unicode="M" horiz-adv-x="854" 
d="M746 0h-76v415l9 174h-1l-217 -589h-68l-217 589h-1l9 -174v-415h-76v660h123l145 -401l50 -165h2l51 164l144 402h123v-660z" />
    <glyph glyph-name="N" unicode="N" horiz-adv-x="734" 
d="M626 0h-99l-276 442l-70 130h-1l4 -106v-466h-76v660h99l275 -440l71 -132h1l-4 106v466h76v-660z" />
    <glyph glyph-name="O" unicode="O" horiz-adv-x="748" 
d="M536 628.5c46 -27.667 81.5 -67 106.5 -118s37.5 -111.167 37.5 -180.5s-12.5 -129.5 -37.5 -180.5s-60.5 -90.333 -106.5 -118s-100 -41.5 -162 -41.5s-116 13.833 -162 41.5s-81.5 67 -106.5 118s-37.5 111.167 -37.5 180.5s12.5 129.5 37.5 180.5
s60.5 90.333 106.5 118s100 41.5 162 41.5s116 -13.833 162 -41.5zM211.5 524.5c-39.667 -47 -59.5 -111.833 -59.5 -194.5s19.833 -147.5 59.5 -194.5s93.834 -70.5 162.501 -70.5s122.834 23.5 162.501 70.5s59.5 111.833 59.5 194.5s-19.833 147.5 -59.5 194.5
s-93.834 70.5 -162.501 70.5s-122.834 -23.5 -162.501 -70.5z" />
    <glyph glyph-name="P" unicode="P" horiz-adv-x="610" 
d="M502 605.5c40.667 -36.333 61 -85.168 61 -146.501s-20.333 -110.166 -61 -146.499s-94.334 -54.5 -161.001 -54.5h-153v-258h-80v660h233c66.667 0 120.334 -18.167 161.001 -54.5zM442.5 364.498c24.333 21 36.5 52.5 36.5 94.5s-12.167 73.5 -36.5 94.5
s-62.166 31.5 -113.499 31.5h-141v-252h141c51.333 0 89.166 10.5 113.499 31.5z" />
    <glyph glyph-name="Q" unicode="Q" horiz-adv-x="748" 
d="M604 -104c20.667 6.66699 37.332 15.667 49.999 27l26 -74c-15.333 -13.333 -37 -24 -65 -32s-55 -12 -81 -12c-54.667 0 -100.167 14.5 -136.5 43.5s-56.5 76.833 -60.5 143.5c-55.333 5.33301 -103.166 22.333 -143.499 51s-71.333 67.5 -93 116.5
s-32.5 105.833 -32.5 170.5c0 69.333 12.5 129.5 37.5 180.5s60.5 90.333 106.5 118s100 41.5 162 41.5s116 -13.833 162 -41.5s81.5 -67 106.5 -118s37.5 -111.167 37.5 -180.5c0 -64.667 -11 -121.5 -33 -170.5s-53.333 -88 -94 -117s-88.667 -45.833 -144 -50.5
c3.33301 -41.333 16.166 -69.333 38.499 -84s51.833 -22 88.5 -22c24.667 0 47.334 3.33301 68.001 10zM211.498 135.5c39.667 -47 93.834 -70.5 162.501 -70.5s122.834 23.5 162.501 70.5s59.5 111.833 59.5 194.5s-19.833 147.5 -59.5 194.5s-93.834 70.5 -162.501 70.5
s-122.834 -23.5 -162.501 -70.5s-59.5 -111.833 -59.5 -194.5s19.833 -147.5 59.5 -194.5z" />
    <glyph glyph-name="R" unicode="R" horiz-adv-x="665" 
d="M346 274h-158v-274h-80v660h250c67.333 0 121.333 -17.333 162 -52s61 -81.667 61 -141c0 -46.667 -13 -86 -39 -118s-61.667 -54 -107 -66l186 -283h-95zM188 349h169c93.333 0 140 39.333 140 118s-46.667 118 -140 118h-169v-236z" />
    <glyph glyph-name="S" unicode="S" horiz-adv-x="641" 
d="M575 530l-68.9961 -56c-20 44 -43.833 75.167 -71.5 93.5s-65.5 27.5 -113.5 27.5c-50.667 0 -90.5 -10.5 -119.5 -31.5s-43.5 -47.833 -43.5 -80.5c0 -21.333 5.66699 -39 17 -53s30.166 -26.167 56.499 -36.5s62.833 -19.5 109.5 -27.5
c87.333 -14.667 149.166 -36.667 185.499 -66s54.5 -70 54.5 -122c0 -37.333 -10.5 -70.166 -31.5 -98.499s-50.833 -50.333 -89.5 -66s-83.334 -23.5 -134.001 -23.5c-66.667 0 -123.5 13 -170.5 39s-82.833 60.667 -107.5 104l69 56c18 -39.333 44.5 -69.833 79.5 -91.5
s78.833 -32.5 131.5 -32.5c52 0 93.333 9.5 124 28.5s46 45.833 46 80.5c0 29.333 -13.333 52.666 -40 69.999s-74 32 -142 44c-88 15.333 -150.333 37.333 -187 66s-55 68.667 -55 120c0 35.333 10 68 30 98s48.667 53.833 86 71.5s80.666 26.5 129.999 26.5
c118 0 203 -46.667 255 -140z" />
    <glyph glyph-name="T" unicode="T" 
d="M572 585h-230v-585h-80v585h-230v75h540v-75z" />
    <glyph glyph-name="U" unicode="U" horiz-adv-x="720" 
d="M619 246c0 -84.667 -22.167 -148.5 -66.5 -191.5s-108.5 -64.5 -192.5 -64.5s-148.167 21.667 -192.5 65s-66.5 107 -66.5 191v414h80v-394c0 -69.333 14.5 -120.166 43.5 -152.499s74.167 -48.5 135.5 -48.5s106.5 16.167 135.5 48.5s43.5 83.166 43.5 152.499v394h80
v-414z" />
    <glyph glyph-name="V" unicode="V" horiz-adv-x="648" 
d="M370 0h-91l-251 660h86l168 -456l42 -131l42 130l168 457h86z" />
    <glyph glyph-name="W" unicode="W" horiz-adv-x="961" 
d="M330 0h-99l-195 660h86l159 -597l156 597h91l156 -599l160 599h81l-194 -660h-99l-117 428l-34 149h-1l-34 -149z" />
    <glyph glyph-name="X" unicode="X" horiz-adv-x="601" 
d="M476 0l-179 273l-179 -273h-93l231 336l-211 324h95l168 -258l169 258h85l-213 -320l220 -340h-93z" />
    <glyph glyph-name="Y" unicode="Y" horiz-adv-x="572" 
d="M326 258v-258h-80v258l-236 402h95l181 -320l181 320h95z" />
    <glyph glyph-name="Z" unicode="Z" horiz-adv-x="630" 
d="M575 75v-75h-519v71l411 514h-401v75h496v-71l-411 -514h424z" />
    <glyph glyph-name="bracketleft" unicode="[" horiz-adv-x="348" 
d="M162 660v-758h153v-70h-228v898h228v-70h-153z" />
    <glyph glyph-name="backslash" unicode="\" horiz-adv-x="438" 
d="M104 730l306 -800h-75l-306 800h75z" />
    <glyph glyph-name="bracketright" unicode="]" horiz-adv-x="348" 
d="M261 -168h-228v70h153v758h-153v70h228v-898z" />
    <glyph glyph-name="asciicircum" unicode="^" horiz-adv-x="560" 
d="M452 355l-172 307l-172 -307h-81l215 375h76l215 -375h-81z" />
    <glyph glyph-name="underscore" unicode="_" horiz-adv-x="539" 
d="M539 -172h-539v75h539v-75z" />
    <glyph glyph-name="grave" unicode="`" horiz-adv-x="500" 
d="M292 583h-65l-98 167h87z" />
    <glyph glyph-name="a" unicode="a" horiz-adv-x="566" 
d="M543 63l-4.99707 -63.001c-18.667 -6.66699 -38.667 -10 -60 -10c-26 0 -46.5 5.66699 -61.5 17s-24.5 30.333 -28.5 57c-15.333 -23.333 -37.833 -41.5 -67.5 -54.5s-60.834 -19.5 -93.501 -19.5c-49.333 0 -90 11.5 -122 34.5s-48 56.167 -48 99.5
c0 38 16.667 70.833 50 98.5s81.666 46.834 144.999 57.501l133 22v28c0 33.333 -10.333 60 -31 80s-49.334 30 -86.001 30c-33.333 0 -62.166 -8 -86.499 -24s-43.166 -39.667 -56.499 -71l-59 43c13.333 37.333 38.166 67 74.499 89s78.833 33 127.5 33
c59.333 0 107 -14.333 143 -43s54 -71 54 -127v-246c0 -12 3 -21 9 -27s15.667 -9 29 -9s26.666 1.66699 39.999 5zM339.503 89.999c30.333 20 45.5 46 45.5 78v69l-112 -21c-44.667 -8 -78 -19.5 -100 -34.5s-33 -34.167 -33 -57.5c0 -20.667 8 -36.5 24 -47.5
s38.333 -16.5 67 -16.5c42 0 78.167 10 108.5 30z" />
    <glyph glyph-name="b" unicode="b" horiz-adv-x="630" 
d="M505.5 440.5c41 -46.333 61.5 -109.833 61.5 -190.5s-20.5 -144.167 -61.5 -190.5s-96.5 -69.5 -166.5 -69.5c-38.667 0 -73.167 8.83301 -103.5 26.5s-52.833 41.167 -67.5 70.5l-5 -87h-70v730h80v-308c16 26.667 38.5 48 67.5 64s61.833 24 98.5 24
c70 0 125.5 -23.167 166.5 -69.5zM445 111.5c28 34.333 42 80.5 42 138.5s-14 104.167 -42 138.5s-66.333 51.5 -115 51.5c-48 0 -86.167 -16.667 -114.5 -50s-42.5 -78 -42.5 -134v-12c0 -56 14.167 -100.667 42.5 -134s66.5 -50 114.5 -50c48.667 0 87 17.167 115 51.5z
" />
    <glyph glyph-name="c" unicode="c" horiz-adv-x="564" 
d="M430.5 475.5c34.333 -23 61.165 -55.832 80.498 -98.499l-76 -36c-21.333 66 -65.666 99 -132.999 99c-50 0 -89.167 -16.833 -117.5 -50.5s-42.5 -80.167 -42.5 -139.5s14.167 -105.833 42.5 -139.5s67.5 -50.5 117.5 -50.5c38.667 0 69.834 8.83301 93.501 26.5
s39.167 43.167 46.5 76.5l74 -26c-17.333 -46.667 -44 -82.834 -80 -108.501s-80 -38.5 -132 -38.5c-75.333 0 -134.5 23 -177.5 69s-64.5 109.667 -64.5 191s21.5 145 64.5 191s102.167 69 177.5 69c50 0 92.167 -11.5 126.5 -34.5z" />
    <glyph glyph-name="d" unicode="d" horiz-adv-x="630" 
d="M537 730v-730h-70l-5 87c-14.667 -29.333 -37.167 -52.833 -67.5 -70.5s-64.833 -26.5 -103.5 -26.5c-70 0 -125.5 23.167 -166.5 69.5s-61.5 109.833 -61.5 190.5s20.5 144.167 61.5 190.5s96.5 69.5 166.5 69.5c36.667 0 69.5 -8 98.5 -24s51.5 -37.333 67.5 -64v308
h80zM414.5 110c28.333 33.333 42.5 78 42.5 134v12c0 56 -14.167 100.667 -42.5 134s-66.5 50 -114.5 50c-48.667 0 -87 -17.167 -115 -51.5s-42 -80.5 -42 -138.5s14 -104.167 42 -138.5s66.333 -51.5 115 -51.5c48 0 86.167 16.667 114.5 50z" />
    <glyph glyph-name="e" unicode="e" horiz-adv-x="581" 
d="M518 220l-377 0.000976562c4.66699 -50.667 21.5 -90 50.5 -118s66.5 -42 112.5 -42c36.667 0 67.167 6.33301 91.5 19s40.833 31 49.5 55l67 -35c-20 -35.333 -46.667 -62.333 -80 -81s-76 -28 -128 -28c-75.333 0 -134.5 23 -177.5 69s-64.5 109.667 -64.5 191
s20.5 145 61.5 191s99.167 69 174.5 69c46.667 0 87 -10.333 121 -31s59.667 -48.667 77 -84s26 -75 26 -119c0 -18.667 -1.33301 -37.334 -4 -56.001zM191.5 401.001c-27 -26 -43.501 -62.667 -49.501 -110h303c-5.33301 46.667 -20.666 83.167 -45.999 109.5
s-59 39.5 -101 39.5c-44 0 -79.5 -13 -106.5 -39z" />
    <glyph glyph-name="f" unicode="f" horiz-adv-x="393" 
d="M212 500h167v-69h-167v-431h-80v431h-100v69h100v84c0 46 14 82.667 42 110s68.667 41 122 41c18 0 34.5 -2 49.5 -6s26.833 -9.66699 35.5 -17l-21 -65c-16 10 -35 15 -57 15c-60.667 0 -91 -28.667 -91 -86v-76z" />
    <glyph glyph-name="g" unicode="g" horiz-adv-x="549" 
d="M483 32c26.667 -21.333 40.001 -50.334 40.001 -87.001c0 -32 -11 -60.167 -33 -84.5s-51.833 -43 -89.5 -56s-79.167 -19.5 -124.5 -19.5c-76 0 -133.333 12.167 -172 36.5s-58 56.166 -58 95.499c0 22.667 7.83301 42.667 23.5 60s37.167 29.666 64.5 36.999
c-20.667 10 -37.167 22.667 -49.5 38s-18.5 33.333 -18.5 54c0 24.667 6.66699 45.167 20 61.5s31.666 28.5 54.999 36.5c-24 14.667 -42.167 33.834 -54.5 57.501s-18.5 50.167 -18.5 79.5c0 32.667 8.66699 61.834 26 87.501s41.666 45.667 72.999 60
s66.666 21.5 105.999 21.5c37.333 0 71.333 -6.66699 102 -20c18.667 68 65.667 102 141 102l18 -70c-65.333 0 -105 -18.333 -119 -55c20 -15.333 35.5 -33.666 46.5 -54.999s16.5 -45 16.5 -71c0 -32.667 -8.66699 -61.834 -26 -87.501s-41.666 -45.667 -72.999 -60
s-66.666 -21.5 -105.999 -21.5c-29.333 0 -55 3 -77 9c-20 -4.66699 -34.333 -12 -43 -22s-13 -23.667 -13 -41s6 -30.666 18 -39.999s28 -14 48 -14h166c47.333 0 84.333 -10.667 111 -32zM186.001 415.999c-23.333 -19.333 -35 -44.333 -35 -75s11.667 -55.667 35 -75
s52.333 -29 87 -29s63.667 9.66699 87 29s35 44.333 35 75s-11.667 55.667 -35 75s-52.333 29 -87 29s-63.667 -9.66699 -87 -29zM405.001 -123.501c29.333 16.333 44.001 36.166 44.001 59.499c0 19.333 -7.5 34 -22.5 44s-40.5 15 -76.5 15h-134
c-30.667 0 -54.334 -5.5 -71.001 -16.5s-25 -26.167 -25 -45.5c0 -25.333 14 -45.166 42 -59.499s69 -21.5 123 -21.5c50.667 0 90.667 8.16699 120 24.5z" />
    <glyph glyph-name="h" unicode="h" horiz-adv-x="619" 
d="M476 461c36.667 -32.667 54.999 -79.667 54.999 -141v-320h-80v292c0 52 -11.167 89.667 -33.5 113s-52.166 35 -89.499 35c-26 0 -50.833 -6 -74.5 -18s-43 -31.167 -58 -57.5s-22.5 -59.5 -22.5 -99.5v-265h-80v730h80v-305c16.667 28.667 39.167 50 67.5 64
s60.166 21 95.499 21c56.667 0 103.334 -16.333 140.001 -49z" />
    <glyph glyph-name="i" unicode="i" horiz-adv-x="266" 
d="M89.5 612.5c-11 11 -16.5 25.5 -16.5 43.5s5.5 32.5 16.5 43.5s25.5 16.5 43.5 16.5s32.5 -5.5 43.5 -16.5s16.5 -25.5 16.5 -43.5s-5.5 -32.5 -16.5 -43.5s-25.5 -16.5 -43.5 -16.5s-32.5 5.5 -43.5 16.5zM173 0h-80v500h80v-500z" />
    <glyph glyph-name="j" unicode="j" horiz-adv-x="266" 
d="M175.5 698.5c11.667 -11.667 17.5 -25.834 17.5 -42.501s-5.83301 -30.834 -17.5 -42.501s-25.834 -17.5 -42.501 -17.5s-30.834 5.83301 -42.501 17.5s-17.5 25.834 -17.5 42.501s5.83301 30.834 17.5 42.501s25.834 17.5 42.501 17.5s30.834 -5.83301 42.501 -17.5z
M173 -51c0 -56.667 -15.166 -98.167 -45.499 -124.5s-65.833 -39.5 -106.5 -39.5c-20 0 -38.667 3 -56 9s-32 14 -44 24l17 76c23.333 -20.667 50.666 -31 81.999 -31c48.667 0 73 31.333 73 94v543h80v-551z" />
    <glyph glyph-name="k" unicode="k" horiz-adv-x="567" 
d="M279 247l-106 -106v-141h-80v730h80v-489l259 259h100l-195 -195l207 -305h-97z" />
    <glyph glyph-name="l" unicode="l" horiz-adv-x="306" 
d="M169 134c0 -25.333 3.83301 -42.833 11.5 -52.5s21.834 -14.5 42.501 -14.5c14 0 26.167 1 36.5 3s22.5 5.66699 36.5 11l-13 -77c-22 -9.33301 -46.667 -14 -74 -14c-40.667 0 -70.834 11 -90.501 33s-29.5 55.667 -29.5 101v606h80v-596z" />
    <glyph glyph-name="m" unicode="m" horiz-adv-x="953" 
d="M767.5 489.5c29 -13.667 52.502 -34.833 70.502 -63.5s27 -64 27 -106v-320h-80v312c0 43.333 -10.833 75.5 -32.5 96.5s-50.167 31.5 -85.5 31.5c-26.667 0 -51.167 -6.5 -73.5 -19.5s-40.333 -32 -54 -57s-20.5 -54.833 -20.5 -89.5v-274h-80v312
c0 43.333 -10.833 75.5 -32.5 96.5s-50.167 31.5 -85.5 31.5c-24 0 -47.333 -6.16699 -70 -18.5s-41.334 -31.5 -56.001 -57.5s-22 -58.333 -22 -97v-267h-80v500h70l5 -78c17.333 29.333 40.166 51.333 68.499 66s58.833 22 91.5 22c36.667 0 70.5 -8.33301 101.5 -25
s54.5 -41 70.5 -73c14.667 32 38.667 56.333 72 73s67.333 25 102 25c33.333 0 64.5 -6.83301 93.5 -20.5z" />
    <glyph glyph-name="n" unicode="n" horiz-adv-x="619" 
d="M476 461c36.667 -32.667 54.998 -79.667 54.998 -141v-320h-80v292c0 52 -11.167 89.667 -33.5 113s-52.166 35 -89.499 35c-26.667 0 -51.667 -5.83301 -75 -17.5s-42.5 -30.667 -57.5 -57s-22.5 -59.5 -22.5 -99.5v-266h-80v500h70l5 -78
c16.667 30 39.667 52.167 69 66.5s62.333 21.5 99 21.5c56.667 0 103.334 -16.333 140.001 -49z" />
    <glyph glyph-name="o" unicode="o" horiz-adv-x="608" 
d="M481.5 441c43 -46 64.5 -109.667 64.5 -191s-21.5 -145 -64.5 -191s-102.167 -69 -177.5 -69s-134.5 23 -177.5 69s-64.5 109.667 -64.5 191s21.5 145 64.5 191s102.167 69 177.5 69s134.5 -23 177.5 -69zM185 390c-28.667 -34 -43 -80.667 -43 -140s14.333 -106 43 -140
s68.334 -51 119.001 -51s90.334 17 119.001 51s43 80.667 43 140s-14.333 106 -43 140s-68.334 51 -119.001 51s-90.334 -17 -119.001 -51z" />
    <glyph glyph-name="p" unicode="p" horiz-adv-x="630" 
d="M505.5 440.5c41 -46.333 61.5 -109.833 61.5 -190.5s-20.5 -144.167 -61.5 -190.5s-96.5 -69.5 -166.5 -69.5c-36.667 0 -69.5 8 -98.5 24s-51.5 37.333 -67.5 64v-288h-80v710h70l5 -87c14.667 29.333 37.167 52.833 67.5 70.5s64.833 26.5 103.5 26.5
c70 0 125.5 -23.167 166.5 -69.5zM445 111.5c28 34.333 42 80.5 42 138.5s-14 104.167 -42 138.5s-66.333 51.5 -115 51.5c-48 0 -86.167 -16.667 -114.5 -50s-42.5 -78 -42.5 -134v-12c0 -56 14.167 -100.667 42.5 -134s66.5 -50 114.5 -50c48.667 0 87 17.167 115 51.5z
" />
    <glyph glyph-name="q" unicode="q" horiz-adv-x="631" 
d="M538 500v-710h-80v288c-16 -26.667 -38.5 -48 -67.5 -64s-61.833 -24 -98.5 -24c-70 0 -125.5 23.167 -166.5 69.5s-61.5 109.833 -61.5 190.5s20.5 144.167 61.5 190.5s96.5 69.5 166.5 69.5c38.667 0 73.167 -8.83301 103.5 -26.5s52.833 -41.167 67.5 -70.5l5 87h70z
M415.5 110c28.333 33.333 42.5 78 42.5 134v12c0 56 -14.167 100.667 -42.5 134s-66.5 50 -114.5 50c-48.667 0 -87 -17.167 -115 -51.5s-42 -80.5 -42 -138.5s14 -104.167 42 -138.5s66.333 -51.5 115 -51.5c48 0 86.167 16.667 114.5 50z" />
    <glyph glyph-name="r" unicode="r" horiz-adv-x="408" 
d="M384 500l-16.001 -78c-16 8.66699 -37 13 -63 13c-21.333 0 -42.166 -6.16699 -62.499 -18.5s-37 -31 -50 -56s-19.5 -55.167 -19.5 -90.5v-270h-80v500h65l11 -82c28 61.333 81.333 92 160 92c24 0 42.333 -3.33301 55 -10z" />
    <glyph glyph-name="s" unicode="s" horiz-adv-x="527" 
d="M133 18.5c-38.667 19 -66.9971 47.166 -84.9971 84.499l65 45c11.333 -29.333 31 -51.333 59 -66s61 -22 99 -22c39.333 0 69.333 7 90 21s31 31.667 31 53c0 19.333 -9.66699 34.833 -29 46.5s-53.333 21.834 -102 30.501c-48 8.66699 -86 19.167 -114 31.5
s-48.333 28 -61 47s-19 42.5 -19 70.5c0 27.333 8 52.333 24 75s39 40.834 69 54.501s64.667 20.5 104 20.5c53.333 0 96.166 -9.83301 128.499 -29.5s55.5 -49.834 69.5 -90.501l-68 -40c-10.667 32 -26.834 55 -48.501 69s-48.834 21 -81.501 21
s-60.334 -7.33301 -83.001 -22s-34 -31.667 -34 -51c0 -22 9.83301 -39 29.5 -51s54.834 -22.333 105.501 -31c69.333 -11.333 118.333 -28.333 147 -51s43 -54.667 43 -96c0 -28.667 -8.5 -54.167 -25.5 -76.5s-41.333 -39.833 -73 -52.5s-68.5 -19 -110.5 -19
c-48 0 -91.333 9.5 -130 28.5z" />
    <glyph glyph-name="t" unicode="t" horiz-adv-x="419" 
d="M399 35c-33.333 -30 -76.332 -45 -128.999 -45c-40.667 0 -73.834 11 -99.501 33s-38.834 55.667 -39.501 101v307h-100v69h100v120l80 22v-142h185v-69h-185v-293c0 -24 6.83301 -42.167 20.5 -54.5s31.834 -18.5 54.501 -18.5c32 0 60.333 12.333 85 37z" />
    <glyph glyph-name="u" unicode="u" horiz-adv-x="619" 
d="M526 500v-500h-70l-5 76c-33.333 -57.333 -93 -86 -179 -86c-54 0 -98.167 15 -132.5 45s-51.5 76 -51.5 138v327h80v-306c0 -48.667 10 -83.167 30 -103.5s49.333 -30.5 88 -30.5c46 0 84.167 14 114.5 42s45.5 70 45.5 126v272h80z" />
    <glyph glyph-name="v" unicode="v" horiz-adv-x="520" 
d="M508 500l-208 -500h-80l-208 500h91l158 -419l163 419h84z" />
    <glyph glyph-name="w" unicode="w" horiz-adv-x="856" 
d="M819 500l-174 -500h-80l-141 398l-133 -398h-80l-174 500h89l126 -407l136 407h80l136 -407l126 407h89z" />
    <glyph glyph-name="x" unicode="x" horiz-adv-x="533" 
d="M402 0l-138 193l-142 -193h-93l192 252l-180 248h100l132 -185l130 185h94l-181 -245l184 -255h-98z" />
    <glyph glyph-name="y" unicode="y" horiz-adv-x="535" 
d="M283 -84c-19.333 -48 -41 -81.835 -65 -101.502s-55 -29.5 -93 -29.5c-25.333 0 -46.5 3.33301 -63.5 10s-32.5 17.334 -46.5 32.001l28 68c19.333 -26.667 46.333 -40 81 -40c19.333 0 36.5 5.83301 51.5 17.5s28.167 32.834 39.5 63.501l26 65l-209 499h91l125 -326
l31 -89l36 99l117 316h86z" />
    <glyph glyph-name="z" unicode="z" horiz-adv-x="534" 
d="M57 61l262 307l63 65l-89 -2h-233v69h411v-61l-262 -307l-62 -65l97 2h235v-69h-422v61z" />
    <glyph glyph-name="braceleft" unicode="{" horiz-adv-x="351" 
d="M237.5 -111c15 -8.66699 39.167 -13 72.5 -13l-13 -65c-56 0 -96.167 10.333 -120.5 31s-36.5 51.667 -36.5 93v207c0 37.333 -8.5 64 -25.5 80s-45.833 24 -86.5 24v70c40.667 0 69.5 8 86.5 24s25.5 42.667 25.5 80v207c0 41.333 12.167 72.333 36.5 93
s64.5 31 120.5 31l13 -65c-33.333 0 -57.5 -4.33301 -72.5 -13s-22.5 -22 -22.5 -40v-220c0 -71.333 -38 -115.333 -114 -132c76 -16.667 114 -60.667 114 -132v-220c0 -18 7.5 -31.333 22.5 -40z" />
    <glyph glyph-name="bar" unicode="|" horiz-adv-x="243" 
d="M156 -168h-69v898h69v-898z" />
    <glyph glyph-name="braceright" unicode="}" horiz-adv-x="351" 
d="M236.5 340c17 -16 45.833 -24 86.5 -24v-70c-40.667 0 -69.5 -8 -86.5 -24s-25.5 -42.667 -25.5 -80v-207c0 -41.333 -12.167 -72.333 -36.5 -93s-64.5 -31 -120.5 -31l-13 65c33.333 0 57.5 4.33301 72.5 13s22.5 22 22.5 40v220c0 71.333 38 115.333 114 132
c-76 16.667 -114 60.667 -114 132v220c0 18 -7.5 31.333 -22.5 40s-39.167 13 -72.5 13l13 65c56 0 96.167 -10.333 120.5 -31s36.5 -51.667 36.5 -93v-207c0 -37.333 8.5 -64 25.5 -80z" />
    <glyph glyph-name="asciitilde" unicode="~" horiz-adv-x="540" 
d="M458 272.5c-22 -25 -52.334 -37.499 -91.001 -37.499c-22 0 -41 3.66699 -57 11s-34 17.666 -54 30.999c-15.333 10.667 -28.333 18.667 -39 24s-22.667 8 -36 8c-32.667 0 -53.334 -24.667 -62.001 -74h-76c8 99.333 51.667 149 131 149c21.333 0 40 -3.5 56 -10.5
s34.333 -17.5 55 -31.5c15.333 -10.667 28.333 -18.667 39 -24s22.334 -8 35.001 -8c32.667 0 53.334 24.667 62.001 74h76c-4 -49.333 -17 -86.5 -39 -111.5z" />
    <glyph glyph-name="uni00A0" unicode="&#xa0;" horiz-adv-x="341" 
 />
    <glyph glyph-name="exclamdown" unicode="&#xa1;" horiz-adv-x="264" 
d="M85 398c-12 12 -18 27.667 -18 47s6 35 18 47s27.667 18 47 18s35 -6 47 -18s18 -27.667 18 -47s-6 -35 -18 -47s-27.667 -18 -47 -18s-35 6 -47 18zM90 126l12 166h60l12 -166v-286h-84v286z" />
    <glyph glyph-name="cent" unicode="&#xa2;" horiz-adv-x="567" 
d="M451 36c-31.333 -25.333 -69.333 -40.333 -114 -45v-91h-67v92c-64 8.66699 -113.667 35.5 -149 80.5s-53 104.167 -53 177.5s17.667 132.5 53 177.5s85 71.833 149 80.5v92h67v-91c84.667 -8 144 -52 178 -132l-76 -36c-18.667 58 -52.667 91.667 -102 101v-385
c56.667 8.66699 93.667 44 111 106l72 -25c-14.667 -42.667 -37.667 -76.667 -69 -102zM176 119.5c22 -33 53.333 -53.5 94 -61.5v384c-40.667 -8 -72 -28.5 -94 -61.5s-33 -76.5 -33 -130.5s11 -97.5 33 -130.5z" />
    <glyph glyph-name="sterling" unicode="&#xa3;" horiz-adv-x="626" 
d="M589 153c0 -53.333 -11.8379 -93.833 -35.5049 -121.5s-57.167 -41.5 -100.5 -41.5c-27.333 0 -52.666 5 -75.999 15s-49 24.333 -77 43c-35.333 -38.667 -82 -58 -140 -58c-33.333 0 -60 8 -80 24s-30 36.667 -30 62c0 24.667 10.667 45.667 32 63s50 26 86 26
c40 0 79 -11 117 -33c3.33301 14.667 5 28.334 5 41.001c0 17.333 -3 34 -9 50s-16 34.333 -30 55h-165v65h115c-19.333 26 -33 48.333 -41 67s-12 37.667 -12 57c0 38.667 9 73.5 27 104.5s43 55.167 75 72.5s68.333 26 109 26c52.667 0 95.334 -12.833 128.001 -38.5
s56.334 -64.834 71.001 -117.501l-69 -38c-10 40 -25.333 70.167 -46 90.5s-50 30.5 -88 30.5c-40.667 0 -73 -10.667 -97 -32s-36 -49.666 -36 -84.999c0 -18.667 4 -37 12 -55s23.333 -43 46 -75l5 -7h188v-65h-148c16.667 -33.333 25 -67 25 -101
c0 -26 -5.66699 -52.333 -17 -79c20.667 -14.667 39 -25.667 55 -33s34 -11 54 -11c28.667 0 49.334 7.66699 62.001 23s19.334 40.666 20.001 75.999h65zM254.995 77c-32.667 18.667 -61.333 28 -86 28c-30.667 0 -46 -9.66699 -46 -29c0 -10 4.33301 -17.833 13 -23.5
s20 -8.5 34 -8.5c34.667 0 63 11 85 33z" />
    <glyph glyph-name="currency" unicode="&#xa4;" horiz-adv-x="665" 
d="M506 204l89 -87l-51 -51l-90 87c-35.333 -23.333 -75.666 -35 -120.999 -35c-46.667 0 -88.334 12.667 -125.001 38l-87 -90l-51 51l88 90c-24 34.667 -36 75.334 -36 122.001c0 46 12.333 87.333 37 124l-89 87l51 51l89 -88c35.333 24 76.333 36 123 36
c48 0 89.333 -12.333 124 -37l87 89l51 -51l-87 -89c23.333 -36 35 -76.667 35 -122c0 -46.667 -12.333 -88.334 -37 -125.001zM426 229c24.667 26 37 59.333 37 100c0 40 -12.333 73 -37 99s-55.667 39 -93 39c-38 0 -69.333 -13 -94 -39s-37 -59 -37 -99
c0 -40.667 12.333 -74 37 -100s56 -39 94 -39c37.333 0 68.333 13 93 39z" />
    <glyph glyph-name="yen" unicode="&#xa5;" horiz-adv-x="620" 
d="M408 297h130v-60h-193v-75h193v-55h-193v-107h-70v107h-192v55h192v75h-192v60h129l44 -4l-222 367h93l134 -243l48 -99h2l48 100l134 242h93l-222 -367z" />
    <glyph glyph-name="brokenbar" unicode="&#xa6;" horiz-adv-x="255" 
d="M162 367h-69v363h69v-363zM162 -168h-69v363h69v-363z" />
    <glyph glyph-name="section" unicode="&#xa7;" horiz-adv-x="598" 
d="M544.5 191.5c-17 -23 -39.166 -42.1689 -66.499 -57.502c20.667 -22.667 31 -54 31 -94c0 -28 -8.5 -53.333 -25.5 -76s-41.333 -40.667 -73 -54s-68.167 -20 -109.5 -20c-50.667 0 -93.334 8.66699 -128.001 26s-63.667 42.333 -87 75l59 49
c15.333 -27.333 35.5 -47.5 60.5 -60.5s56.5 -19.5 94.5 -19.5c40.667 0 72.334 6.5 95.001 19.5s34 30.833 34 53.5c0 20 -5.33301 36.333 -16 49s-28.667 23.334 -54 32.001s-60.666 16 -105.999 22c-54.667 7.33301 -98 17.333 -130 30s-55.167 28.834 -69.5 48.501
s-21.5 44.5 -21.5 74.5s8.5 56.5 25.5 79.5s39.167 42.167 66.5 57.5c-20.667 22.667 -31 54 -31 94c0 28 8.66699 53.333 26 76s42.333 40.667 75 54s70.667 20 114 20c52.667 0 95.167 -8.83301 127.5 -26.5s59.166 -42.5 80.499 -74.5l-56 -48
c-17.333 26.667 -38 46.5 -62 59.5s-54.667 19.5 -92 19.5c-42.667 0 -75.5 -6.33301 -98.5 -19s-34.5 -30.667 -34.5 -54c0 -20 5.33301 -36.5 16 -49.5s28.667 -23.667 54 -32s60.666 -15.5 105.999 -21.5c80.667 -10.667 137.667 -27.667 171 -51s50 -57.333 50 -102
c0 -30 -8.5 -56.5 -25.5 -79.5zM490.001 263.998c0 24.667 -11.833 43.6689 -35.5 57.002s-65.834 23.333 -126.501 30c-58.667 7.33301 -105 17.666 -139 30.999c-51.333 -20.667 -77 -49.334 -77 -86.001c0 -24.667 11.833 -43.5 35.5 -56.5s65.834 -23.167 126.501 -30.5
c60 -7.33301 106.333 -18 139 -32c51.333 22.667 77 51.667 77 87z" />
    <glyph glyph-name="dieresis" unicode="&#xa8;" horiz-adv-x="500" 
d="M197.5 680.5c10.333 -10.333 15.5 -24.166 15.5 -41.499c0 -16.667 -5.16699 -30.334 -15.5 -41.001s-24.166 -16 -41.499 -16c-16.667 0 -30.334 5.33301 -41.001 16s-16 24.334 -16 41.001c0 17.333 5.33301 31.166 16 41.499s24.334 15.5 41.001 15.5
c17.333 0 31.166 -5.16699 41.499 -15.5zM391.5 680.5c10.333 -10.333 15.5 -24.166 15.5 -41.499c0 -16.667 -5.16699 -30.334 -15.5 -41.001s-24.166 -16 -41.499 -16c-16.667 0 -30.334 5.33301 -41.001 16s-16 24.334 -16 41.001c0 17.333 5.33301 31.166 16 41.499
s24.334 15.5 41.001 15.5c17.333 0 31.166 -5.16699 41.499 -15.5z" />
    <glyph glyph-name="copyright" unicode="&#xa9;" horiz-adv-x="820" 
d="M590.5 628c51.667 -28 91.5 -67.667 119.5 -119s42 -111 42 -179s-14 -127.667 -42 -179s-67.833 -91 -119.5 -119s-111.834 -42 -180.501 -42s-128.834 14 -180.501 42s-91.5 67.667 -119.5 119s-42 111 -42 179s14 127.667 42 179s67.833 91 119.5 119
s111.834 42 180.501 42s128.834 -14 180.501 -42zM267 571c-40.667 -22.667 -72.167 -54.667 -94.5 -96s-33.5 -89.666 -33.5 -144.999s11.167 -103.666 33.5 -144.999s53.833 -73.333 94.5 -96s88.334 -34 143.001 -34s102.334 11.333 143.001 34s72.167 54.667 94.5 96
s33.5 89.666 33.5 144.999s-11.167 103.666 -33.5 144.999s-53.833 73.333 -94.5 96s-88.334 34 -143.001 34s-102.334 -11.333 -143.001 -34zM514 488.5c26 -16.333 45.666 -39.834 58.999 -70.501l-58 -29c-16.667 42.667 -49.667 64 -99 64
c-35.333 0 -63.166 -11 -83.499 -33s-30.5 -52.667 -30.5 -92s10.167 -70 30.5 -92s48.166 -33 83.499 -33c54 0 89.333 22.333 106 67l55 -22c-12.667 -33.333 -32.667 -59.166 -60 -77.499s-60.666 -27.5 -99.999 -27.5c-56.667 0 -101.167 16.5 -133.5 49.5
s-48.5 78.167 -48.5 135.5s16.167 102.5 48.5 135.5s76.833 49.5 133.5 49.5c38.667 0 71 -8.16699 97 -24.5z" />
    <glyph glyph-name="ordfeminine" unicode="&#xaa;" horiz-adv-x="382" 
d="M365 380l-4.99805 -44.001c-13.333 -6 -26.333 -9 -39 -9c-17.333 0 -31.833 4.16699 -43.5 12.5s-19.5 20.833 -23.5 37.5c-11.333 -15.333 -28 -27.5 -50 -36.5s-47 -13.5 -75 -13.5c-34 0 -60.833 7.16699 -80.5 21.5s-29.5 34.833 -29.5 61.5
c0 28 10.5 50.5 31.5 67.5s53.833 29.5 98.5 37.5l93 16v14c0 20.667 -6.5 36.834 -19.5 48.501s-31.167 17.5 -54.5 17.5c-22.667 0 -41.834 -4.66699 -57.501 -14s-27.834 -25 -36.501 -47l-49 29c8 26 24.5 46.833 49.5 62.5s57.167 23.5 96.5 23.5
c45.333 0 79.833 -10 103.5 -30s35.5 -49.333 35.5 -88v-140c0 -20.667 10.333 -31 31 -31c10.667 0 18.667 1.33301 24 4zM212.502 399.499c19.667 12.333 29.5 28.501 29.5 48.501v38l-71 -14c-29.333 -6 -50.333 -12.833 -63 -20.5s-19 -18.834 -19 -33.501
c0 -13.333 4.66699 -22.833 14 -28.5s24 -8.5 44 -8.5c24 0 45.833 6.16699 65.5 18.5zM26.002 254h320v-53h-320v53z" />
    <glyph glyph-name="guillemotleft" unicode="&#xab;" horiz-adv-x="493" 
d="M136 265l128 -196h-87l-126 196l126 196h87zM313 265l128 -196h-87l-126 196l126 196h87z" />
    <glyph glyph-name="logicalnot" unicode="&#xac;" 
d="M545 354v-223h-80v148h-406v75h486z" />
    <glyph glyph-name="uni00AD" unicode="&#xad;" horiz-adv-x="510" 
d="M420 220h-330v83h330v-83z" />
    <glyph glyph-name="registered" unicode="&#xae;" horiz-adv-x="820" 
d="M590.5 628c51.667 -28 91.5 -67.667 119.5 -119s42 -111 42 -179s-14 -127.667 -42 -179s-67.833 -91 -119.5 -119s-111.834 -42 -180.501 -42s-128.834 14 -180.501 42s-91.5 67.667 -119.5 119s-42 111 -42 179s14 127.667 42 179s67.833 91 119.5 119
s111.834 42 180.501 42s128.834 -14 180.501 -42zM553 89c40.667 22.667 72.167 54.667 94.5 96s33.5 89.666 33.5 144.999s-11.167 103.666 -33.5 144.999s-53.833 73.333 -94.5 96s-88.334 34 -143.001 34s-102.334 -11.333 -143.001 -34s-72.167 -54.667 -94.5 -96
s-33.5 -89.666 -33.5 -144.999s11.167 -103.666 33.5 -144.999s53.833 -73.333 94.5 -96s88.334 -34 143.001 -34s102.334 11.333 143.001 34zM549 323.5c-16 -19.667 -38 -33.167 -66 -40.5l98 -140h-76l-89 134h-68v-134h-67v370h152c42 0 75.833 -10.667 101.5 -32
s38.5 -50 38.5 -86c0 -28 -8 -51.833 -24 -71.5zM348 328h84c49.333 0 74 22.333 74 67s-24.667 67 -74 67h-84v-134z" />
    <glyph glyph-name="macron" unicode="&#xaf;" horiz-adv-x="500" 
d="M424 596h-348v67h348v-67z" />
    <glyph glyph-name="degree" unicode="&#xb0;" horiz-adv-x="460" 
d="M142.5 361c-25.667 14 -45.834 33.667 -60.501 59s-22 53.666 -22 84.999s7.33301 59.666 22 84.999s34.834 45 60.501 59s54.834 21 87.501 21s61.834 -7 87.501 -21s45.834 -33.667 60.501 -59s22 -53.666 22 -84.999s-7.33301 -59.666 -22 -84.999
s-34.834 -45 -60.501 -59s-54.834 -21 -87.501 -21s-61.834 7 -87.501 21zM302 433.5c18.667 19 28 42.833 28 71.5c0 29.333 -9.33301 53.333 -28 72s-42.667 28 -72 28c-28.667 0 -52.5 -9.33301 -71.5 -28s-28.5 -42.667 -28.5 -72c0 -28.667 9.5 -52.5 28.5 -71.5
s42.833 -28.5 71.5 -28.5c29.333 0 53.333 9.5 72 28.5z" />
    <glyph glyph-name="plusminus" unicode="&#xb1;" 
d="M545 434v-75h-205v-205h-75v205h-206v75h206v206h75v-206h205zM59 75h486v-75h-486v75z" />
    <glyph glyph-name="uni00B2" unicode="&#xb2;" horiz-adv-x="365" 
d="M39 381c44 30.667 74.666 52.999 91.999 66.999c48 38 80.5 67.833 97.5 89.5s25.5 43.834 25.5 66.501c0 22 -6.66699 39.667 -20 53s-32.333 20 -57 20c-26 0 -46.5 -8.16699 -61.5 -24.5s-23.167 -39.166 -24.5 -68.499l-63 22c2.66699 40 17.667 71.5 45 94.5
s63 34.5 107 34.5c46.667 0 82.834 -12.333 108.501 -37s38.5 -54.667 38.5 -90c0 -29.333 -11.667 -58.833 -35 -88.5s-60 -61.834 -110 -96.501l-52 -35v-1c24 2 45.333 3 64 3h142v-57h-297v48z" />
    <glyph glyph-name="uni00B3" unicode="&#xb3;" horiz-adv-x="362" 
d="M282.5 705.5c24.333 -19.667 36.502 -45.832 36.502 -78.499c0 -28 -8.33301 -50.333 -25 -67s-34.667 -25.667 -54 -27v-1c22.667 -0.666992 43 -9.16699 61 -25.5s27 -38.5 27 -66.5c0 -34 -14 -61.333 -42 -82s-64 -31 -108 -31c-82 0 -133.333 32 -154 96l67 30
c4 -23.333 13 -40.5 27 -51.5s33.667 -16.5 59 -16.5c23.333 0 42.166 5.83301 56.499 17.5s21.5 27.5 21.5 47.5c0 37.333 -26 56 -78 56h-24v50h21c23.333 0 41 5.16699 53 15.5s18 25.166 18 44.499c0 20 -5.83301 35.167 -17.5 45.5s-28.5 15.5 -50.5 15.5
c-20.667 0 -37.5 -5 -50.5 -15s-21.5 -25 -25.5 -45l-65 23c8 31.333 25 55 51 71s57.333 24 94 24c43.333 0 77.166 -9.83301 101.499 -29.5z" />
    <glyph glyph-name="acute" unicode="&#xb4;" horiz-adv-x="500" 
d="M371 750l-98 -167h-65l76 167h87z" />
    <glyph glyph-name="uni00B5" unicode="&#xb5;" horiz-adv-x="611" 
d="M525 500l0.00195312 -500h-65l-7 81c-34.667 -60.667 -95.334 -91 -182.001 -91c-44 0 -78.667 15 -104 45v-245h-80v710h80v-306c0 -48.667 10 -83.167 30 -103.5s49.333 -30.5 88 -30.5c43.333 0 79.166 11 107.499 33s45.833 52.333 52.5 91v316h80z" />
    <glyph glyph-name="paragraph" unicode="&#xb6;" horiz-adv-x="637" 
d="M546 -100h-70v693h-129v-693h-73v341c-72 0.666992 -128.833 19.834 -170.5 57.501s-62.5 88.167 -62.5 151.5c0 65.333 22 116.666 66 153.999s106.667 56 188 56h251v-760z" />
    <glyph glyph-name="periodcentered" unicode="&#xb7;" horiz-adv-x="226" 
d="M160 402c12 -12 18 -27.667 18 -47s-6 -35 -18 -47s-27.667 -18 -47 -18s-35 6 -47 18s-18 27.667 -18 47s6 35 18 47s27.667 18 47 18s35 -6 47 -18z" />
    <glyph glyph-name="cedilla" unicode="&#xb8;" horiz-adv-x="500" 
d="M247 29c40 -12 70.834 -30.666 92.501 -55.999s32.5 -52.333 32.5 -81c0 -29.333 -10.5 -54.5 -31.5 -75.5s-49.167 -31.5 -84.5 -31.5c-47.333 0 -84 11.667 -110 35l30 55c8.66699 -8.66699 19 -15.834 31 -21.501s24.667 -8.5 38 -8.5c16 0 29.5 5.33301 40.5 16
s16.5 24.667 16.5 42c0 21.333 -6.83301 39 -20.5 53s-39.834 29.667 -78.501 47z" />
    <glyph glyph-name="uni00B9" unicode="&#xb9;" horiz-adv-x="242" 
d="M189 730v-397h-70v251c0 13.333 0.666992 37.333 2 72c-15.333 -14.667 -32.666 -27.167 -51.999 -37.5s-39 -17.166 -59 -20.499v60c19.333 4 41.166 13.167 65.499 27.5s41.5 29.166 51.5 44.499h62z" />
    <glyph glyph-name="ordmasculine" unicode="&#xba;" horiz-adv-x="360" 
d="M63.5 371.5c-27 29.667 -40.5 71.167 -40.5 124.5s13.5 94.833 40.5 124.5s65.833 44.5 116.5 44.5s89.5 -14.833 116.5 -44.5s40.5 -71.167 40.5 -124.5s-13.5 -94.833 -40.5 -124.5s-65.833 -44.5 -116.5 -44.5s-89.5 14.833 -116.5 44.5zM245.5 411.5
c14.333 19.667 21.5039 47.834 21.5039 84.501s-7.33301 65 -22 85s-36.334 30 -65.001 30s-50.334 -10 -65.001 -30s-22 -48.333 -22 -85s7.16699 -64.834 21.5 -84.501s36.166 -29.5 65.499 -29.5s51.166 9.83301 65.499 29.5zM36.0039 254h288v-53h-288v53z" />
    <glyph glyph-name="guillemotright" unicode="&#xbb;" horiz-adv-x="492" 
d="M138 461l126 -196l-126 -196h-87l128 196l-128 196h87zM315 461l126 -196l-126 -196h-87l128 196l-128 196h87z" />
    <glyph glyph-name="onequarter" unicode="&#xbc;" horiz-adv-x="788" 
d="M189 665v-397h-70v251c0 13.333 0.666992 37.333 2 72c-15.333 -14.667 -32.666 -27.167 -51.999 -37.5s-39 -17.166 -59 -20.499v60c19.333 4 41.166 13.167 65.499 27.5s41.5 29.166 51.5 44.499h62zM565 660h79l-477 -660h-79zM768 95h-71v-99h-59v99h-199v37l182 261
h76v-248h71v-50zM638 145v114c0 26 1 51.333 3 76h-3c-12 -22 -22.667 -40 -32 -54l-99 -136h131z" />
    <glyph glyph-name="onehalf" unicode="&#xbd;" horiz-adv-x="855" 
d="M189 665v-397h-70v251c0 13.333 0.666992 37.333 2 72c-15.333 -14.667 -32.666 -27.167 -51.999 -37.5s-39 -17.166 -59 -20.499v60c19.333 4 41.166 13.167 65.499 27.5s41.5 29.166 51.5 44.499h62zM565 660h79l-477 -660h-79zM529 44
c44 30.667 74.666 52.999 91.999 66.999c48 38 80.5 67.833 97.5 89.5s25.5 43.834 25.5 66.501c0 22 -6.66699 39.667 -20 53s-32.333 20 -57 20c-26 0 -46.5 -8.16699 -61.5 -24.5s-23.167 -39.166 -24.5 -68.499l-63 22c2.66699 40 17.667 71.5 45 94.5s63 34.5 107 34.5
c46.667 0 82.834 -12.333 108.501 -37s38.5 -54.667 38.5 -90c0 -29.333 -11.667 -58.833 -35 -88.5s-60 -61.834 -110 -96.501l-52 -35v-1c24 2 45.333 3 64 3h142v-57h-297v48z" />
    <glyph glyph-name="threequarters" unicode="&#xbe;" horiz-adv-x="908" 
d="M282.5 640.5c24.333 -19.667 36.502 -45.832 36.502 -78.499c0 -28 -8.33301 -50.333 -25 -67s-34.667 -25.667 -54 -27v-1c22.667 -0.666992 43 -9.16699 61 -25.5s27 -38.5 27 -66.5c0 -34 -14 -61.333 -42 -82s-64 -31 -108 -31c-82 0 -133.333 32 -154 96l67 30
c4 -23.333 13 -40.5 27 -51.5s33.667 -16.5 59 -16.5c23.333 0 42.166 5.83301 56.499 17.5s21.5 27.5 21.5 47.5c0 37.333 -26 56 -78 56h-24v50h21c23.333 0 41 5.16699 53 15.5s18 25.166 18 44.499c0 20 -5.83301 35.167 -17.5 45.5s-28.5 15.5 -50.5 15.5
c-20.667 0 -37.5 -5 -50.5 -15s-21.5 -25 -25.5 -45l-65 23c8 31.333 25 55 51 71s57.333 24 94 24c43.333 0 77.166 -9.83301 101.499 -29.5zM685.002 660.002h79l-477 -660h-79zM888.002 95.002h-71v-99h-59v99h-199v37l182 261h76v-248h71v-50zM758.002 145.002v114
c0 26 1 51.333 3 76h-3c-12 -22 -22.667 -40 -32 -54l-99 -136h131z" />
    <glyph glyph-name="questiondown" unicode="&#xbf;" horiz-adv-x="537" 
d="M231 398c-12 12 -18 27.667 -18 47s6 35 18 47s27.667 18 47 18s35 -6 47 -18s18 -27.667 18 -47s-6 -35 -18 -47s-27.667 -18 -47 -18s-35 6 -47 18zM108 -124c-40.667 30.667 -61 72.001 -61 124.001c0 55.333 17.333 98.5 52 129.5s80 49.5 136 55.5v107h83v-150
c-67.333 -10 -115.333 -25 -144 -45s-43 -49 -43 -87c0 -32.667 12 -58.334 36 -77.001s59 -28 105 -28c44 0 79.833 12.167 107.5 36.5s44.167 57.5 49.5 99.5l71 -41c-11.333 -52 -37.666 -93.333 -78.999 -124s-93 -46 -155 -46c-64.667 0 -117.334 15.333 -158.001 46z
" />
    <glyph glyph-name="Agrave" unicode="&#xc0;" horiz-adv-x="660" 
d="M298 743l-86 148h94l57 -148h-65zM479 183h-299l-70 -183h-84l257 660h95l256 -660h-85zM450 258l-89 234l-31 92h-2l-29 -89l-90 -237h241z" />
    <glyph glyph-name="Aacute" unicode="&#xc1;" horiz-adv-x="660" 
d="M353 743h-65l57 148h94zM479 183h-299l-70 -183h-84l257 660h95l256 -660h-85zM450 258l-89 234l-31 92h-2l-29 -89l-90 -237h241z" />
    <glyph glyph-name="Acircumflex" unicode="&#xc2;" horiz-adv-x="660" 
d="M244 736h-73l114 167h90l114 -167h-73l-86 115zM479 183h-299l-70 -183h-84l257 660h95l256 -660h-85zM450 258l-89 234l-31 92h-2l-29 -89l-90 -237h241z" />
    <glyph glyph-name="Atilde" unicode="&#xc3;" horiz-adv-x="660" 
d="M479 183h-299l-70 -183h-84l257 660h95l256 -660h-85zM450 258l-89 234l-31 92h-2l-29 -89l-90 -237h241zM398 743c-19.333 0 -35.3291 3.49805 -47.9961 10.498s-26.334 17.167 -41.001 30.5c-10.667 9.33301 -19.334 16.166 -26.001 20.499s-14.334 6.5 -23.001 6.5
c-14 0 -24.667 -5.66699 -32 -17s-13 -28.666 -17 -51.999h-63c3.33301 44.667 14.166 78.167 32.499 100.5s45.166 33.5 80.499 33.5c18.667 0 34.5 -3.66699 47.5 -11s26.833 -17.666 41.5 -30.999c10 -8.66699 18.5 -15.167 25.5 -19.5s14.167 -6.5 21.5 -6.5
c14 0 24.833 5.83301 32.5 17.5s13.5 28.834 17.5 51.501h63c-7.33301 -89.333 -44.666 -134 -111.999 -134z" />
    <glyph glyph-name="Adieresis" unicode="&#xc4;" horiz-adv-x="660" 
d="M479 183h-299l-70 -183h-84l257 660h95l256 -660h-85zM450 258l-89 234l-31 92h-2l-29 -89l-90 -237h241zM274.5 840.5c10.333 -10.333 15.5 -24.166 15.5 -41.499c0 -16.667 -5.16699 -30.334 -15.5 -41.001s-24.166 -16 -41.499 -16
c-16.667 0 -30.334 5.33301 -41.001 16s-16 24.334 -16 41.001c0 17.333 5.33301 31.166 16 41.499s24.334 15.5 41.001 15.5c17.333 0 31.166 -5.16699 41.499 -15.5zM468.5 840.5c10.333 -10.333 15.5 -24.166 15.5 -41.499c0 -16.667 -5.16699 -30.334 -15.5 -41.001
s-24.166 -16 -41.499 -16c-16.667 0 -30.334 5.33301 -41.001 16s-16 24.334 -16 41.001c0 17.333 5.33301 31.166 16 41.499s24.334 15.5 41.001 15.5c17.333 0 31.166 -5.16699 41.499 -15.5z" />
    <glyph glyph-name="Aring" unicode="&#xc5;" horiz-adv-x="660" 
d="M479 183h-298.999l-70 -183h-84l244 627c-20.667 9.33301 -36.667 23.333 -48 42s-17 40.334 -17 65.001c0 35.333 11.667 63.833 35 85.5s53.666 32.5 90.999 32.5s67.5 -10.833 90.5 -32.5s34.5 -50.167 34.5 -85.5c0 -24.667 -5.66699 -46.334 -17 -65.001
s-27.333 -32.667 -48 -42l243 -627h-85zM279.001 783.5c-13.333 -13 -20 -29.5 -20 -49.5s6.66699 -36.5 20 -49.5s30.333 -19.5 51 -19.5s37.667 6.5 51 19.5s20 29.5 20 49.5s-6.66699 36.5 -20 49.5s-30.333 19.5 -51 19.5s-37.667 -6.5 -51 -19.5zM450.001 258l-89 234
l-31 92h-2l-29 -89l-90 -237h241z" />
    <glyph glyph-name="AE" unicode="&#xc6;" horiz-adv-x="954" 
d="M902 75v-75h-451v213h-236l-123 -213h-86l386 660h495v-75h-356v-213h271v-75h-271v-222h371zM451 288v297h-20l-172 -297h192z" />
    <glyph glyph-name="Ccedilla" unicode="&#xc7;" horiz-adv-x="686" 
d="M558 52c-36.667 -30 -79.6689 -48.999 -129.002 -56.999c18 -14 31.833 -30 41.5 -48s14.5 -36.333 14.5 -55c0 -29.333 -10.5 -54.5 -31.5 -75.5s-49.167 -31.5 -84.5 -31.5c-47.333 0 -84 11.667 -110 35l30 55c8.66699 -8.66699 19 -15.834 31 -21.501
s24.667 -8.5 38 -8.5c16 0 29.5 5.33301 40.5 16s16.5 24.667 16.5 42c0 19.333 -5.33301 35.5 -16 48.5s-30 26.167 -58 39.5c-56 4.66699 -104.5 21.5 -145.5 50.5s-72.5 68.167 -94.5 117.5s-33 106.333 -33 171c0 68.667 12.5 128.667 37.5 180s60.5 90.833 106.5 118.5
s99.333 41.5 160 41.5c63.333 0 116.5 -13 159.5 -39s75.167 -64.333 96.5 -115l-79 -37c-14.667 38.667 -36 67.667 -64 87s-63.667 29 -107 29c-45.333 0 -85 -10.5 -119 -31.5s-60.333 -51.5 -79 -91.5s-28 -87.333 -28 -142c0 -82.667 19.833 -147.5 59.5 -194.5
s93.834 -70.5 162.501 -70.5c44.667 0 83.334 11.333 116.001 34s56 56 70 100l80 -30c-18 -48 -45.333 -87 -82 -117z" />
    <glyph glyph-name="Egrave" unicode="&#xc8;" horiz-adv-x="638" 
d="M322 743l-86 148h94l57 -148h-65zM586 75v-75h-478v660h463v-75h-383v-213h298v-75h-298v-222h398z" />
    <glyph glyph-name="Eacute" unicode="&#xc9;" horiz-adv-x="638" 
d="M362 743h-65l57 148h94zM586 75v-75h-478v660h463v-75h-383v-213h298v-75h-298v-222h398z" />
    <glyph glyph-name="Ecircumflex" unicode="&#xca;" horiz-adv-x="638" 
d="M253 736h-73l114 167h90l114 -167h-73l-86 115zM586 75v-75h-478v660h463v-75h-383v-213h298v-75h-298v-222h398z" />
    <glyph glyph-name="Edieresis" unicode="&#xcb;" horiz-adv-x="638" 
d="M586 75v-75h-478v660h463v-75h-383v-213h298v-75h-298v-222h398zM283.5 840.5c10.333 -10.333 15.5 -24.166 15.5 -41.499c0 -16.667 -5.16699 -30.334 -15.5 -41.001s-24.166 -16 -41.499 -16c-16.667 0 -30.334 5.33301 -41.001 16s-16 24.334 -16 41.001
c0 17.333 5.33301 31.166 16 41.499s24.334 15.5 41.001 15.5c17.333 0 31.166 -5.16699 41.499 -15.5zM477.5 840.5c10.333 -10.333 15.5 -24.166 15.5 -41.499c0 -16.667 -5.16699 -30.334 -15.5 -41.001s-24.166 -16 -41.499 -16c-16.667 0 -30.334 5.33301 -41.001 16
s-16 24.334 -16 41.001c0 17.333 5.33301 31.166 16 41.499s24.334 15.5 41.001 15.5c17.333 0 31.166 -5.16699 41.499 -15.5z" />
    <glyph glyph-name="Igrave" unicode="&#xcc;" horiz-adv-x="296" 
d="M181 743h-65l-86 148h94zM188 0h-80v660h80v-660z" />
    <glyph glyph-name="Iacute" unicode="&#xcd;" horiz-adv-x="296" 
d="M257 891l-86 -148h-65l57 148h94zM188 0h-80v660h80v-660z" />
    <glyph glyph-name="Icircumflex" unicode="&#xce;" horiz-adv-x="296" 
d="M234 736l-86 115l-86 -115h-73l114 167h90l114 -167h-73zM188 0h-80v660h80v-660z" />
    <glyph glyph-name="Idieresis" unicode="&#xcf;" horiz-adv-x="296" 
d="M103.5 840.5c10.333 -10.333 15.5 -24.166 15.5 -41.499c0 -16.667 -5.16699 -30.334 -15.5 -41.001s-24.166 -16 -41.499 -16c-16.667 0 -30.334 5.33301 -41.001 16s-16 24.334 -16 41.001c0 17.333 5.33301 31.166 16 41.499s24.334 15.5 41.001 15.5
c17.333 0 31.166 -5.16699 41.499 -15.5zM275.5 840.5c10.333 -10.333 15.5 -24.166 15.5 -41.499c0 -16.667 -5.16699 -30.334 -15.5 -41.001s-24.166 -16 -41.499 -16c-16.667 0 -30.334 5.33301 -41.001 16s-16 24.334 -16 41.001c0 17.333 5.33301 31.166 16 41.499
s24.334 15.5 41.001 15.5c17.333 0 31.166 -5.16699 41.499 -15.5zM188 0h-80v660h80v-660z" />
    <glyph glyph-name="Eth" unicode="&#xd0;" horiz-adv-x="737" 
d="M581 574c58.667 -57.333 88 -138.668 88 -244.001s-29.333 -186.666 -88 -243.999s-140 -86 -244 -86h-213v303h-98v60h98v297h213c104 0 185.333 -28.667 244 -86zM521.5 142.498c42.333 45 63.5 107.5 63.5 187.5s-21.167 142.5 -63.5 187.5
s-101.166 67.5 -176.499 67.5h-141v-222h197v-60h-197v-228h141c75.333 0 134.166 22.5 176.499 67.5z" />
    <glyph glyph-name="Ntilde" unicode="&#xd1;" horiz-adv-x="734" 
d="M626 0h-99l-276 442l-70 130h-1l4 -106v-466h-76v660h99l275 -440l71 -132h1l-4 106v466h76v-660zM439 743c-19.333 0 -35.3291 3.49805 -47.9961 10.498s-26.334 17.167 -41.001 30.5c-10.667 9.33301 -19.334 16.166 -26.001 20.499s-14.334 6.5 -23.001 6.5
c-14 0 -24.667 -5.66699 -32 -17s-13 -28.666 -17 -51.999h-63c3.33301 44.667 14.166 78.167 32.499 100.5s45.166 33.5 80.499 33.5c18.667 0 34.5 -3.66699 47.5 -11s26.833 -17.666 41.5 -30.999c10 -8.66699 18.5 -15.167 25.5 -19.5s14.167 -6.5 21.5 -6.5
c14 0 24.833 5.83301 32.5 17.5s13.5 28.834 17.5 51.501h63c-7.33301 -89.333 -44.666 -134 -111.999 -134z" />
    <glyph glyph-name="Ograve" unicode="&#xd2;" horiz-adv-x="748" 
d="M407 743h-65l-86 148h94zM536 628.5c46 -27.667 81.5 -67 106.5 -118s37.5 -111.167 37.5 -180.5s-12.5 -129.5 -37.5 -180.5s-60.5 -90.333 -106.5 -118s-100 -41.5 -162 -41.5s-116 13.833 -162 41.5s-81.5 67 -106.5 118s-37.5 111.167 -37.5 180.5
s12.5 129.5 37.5 180.5s60.5 90.333 106.5 118s100 41.5 162 41.5s116 -13.833 162 -41.5zM211.5 524.5c-39.667 -47 -59.5 -111.833 -59.5 -194.5s19.833 -147.5 59.5 -194.5s93.834 -70.5 162.501 -70.5s122.834 23.5 162.501 70.5s59.5 111.833 59.5 194.5
s-19.833 147.5 -59.5 194.5s-93.834 70.5 -162.501 70.5s-122.834 -23.5 -162.501 -70.5z" />
    <glyph glyph-name="Oacute" unicode="&#xd3;" horiz-adv-x="748" 
d="M483 891l-86 -148h-65l57 148h94zM536 628.5c46 -27.667 81.5 -67 106.5 -118s37.5 -111.167 37.5 -180.5s-12.5 -129.5 -37.5 -180.5s-60.5 -90.333 -106.5 -118s-100 -41.5 -162 -41.5s-116 13.833 -162 41.5s-81.5 67 -106.5 118s-37.5 111.167 -37.5 180.5
s12.5 129.5 37.5 180.5s60.5 90.333 106.5 118s100 41.5 162 41.5s116 -13.833 162 -41.5zM211.5 524.5c-39.667 -47 -59.5 -111.833 -59.5 -194.5s19.833 -147.5 59.5 -194.5s93.834 -70.5 162.501 -70.5s122.834 23.5 162.501 70.5s59.5 111.833 59.5 194.5
s-19.833 147.5 -59.5 194.5s-93.834 70.5 -162.501 70.5s-122.834 -23.5 -162.501 -70.5z" />
    <glyph glyph-name="Ocircumflex" unicode="&#xd4;" horiz-adv-x="748" 
d="M460 736l-86 115l-86 -115h-73l114 167h90l114 -167h-73zM536 628.5c46 -27.667 81.5 -67 106.5 -118s37.5 -111.167 37.5 -180.5s-12.5 -129.5 -37.5 -180.5s-60.5 -90.333 -106.5 -118s-100 -41.5 -162 -41.5s-116 13.833 -162 41.5s-81.5 67 -106.5 118
s-37.5 111.167 -37.5 180.5s12.5 129.5 37.5 180.5s60.5 90.333 106.5 118s100 41.5 162 41.5s116 -13.833 162 -41.5zM211.5 524.5c-39.667 -47 -59.5 -111.833 -59.5 -194.5s19.833 -147.5 59.5 -194.5s93.834 -70.5 162.501 -70.5s122.834 23.5 162.501 70.5
s59.5 111.833 59.5 194.5s-19.833 147.5 -59.5 194.5s-93.834 70.5 -162.501 70.5s-122.834 -23.5 -162.501 -70.5z" />
    <glyph glyph-name="Otilde" unicode="&#xd5;" horiz-adv-x="748" 
d="M536 628.5c46 -27.667 81.5 -67 106.5 -118s37.5 -111.167 37.5 -180.5s-12.5 -129.5 -37.5 -180.5s-60.5 -90.333 -106.5 -118s-100 -41.5 -162 -41.5s-116 13.833 -162 41.5s-81.5 67 -106.5 118s-37.5 111.167 -37.5 180.5s12.5 129.5 37.5 180.5
s60.5 90.333 106.5 118s100 41.5 162 41.5s116 -13.833 162 -41.5zM211.5 524.5c-39.667 -47 -59.5 -111.833 -59.5 -194.5s19.833 -147.5 59.5 -194.5s93.834 -70.5 162.501 -70.5s122.834 23.5 162.501 70.5s59.5 111.833 59.5 194.5s-19.833 147.5 -59.5 194.5
s-93.834 70.5 -162.501 70.5s-122.834 -23.5 -162.501 -70.5zM442 743c-19.333 0 -35.3291 3.49805 -47.9961 10.498s-26.334 17.167 -41.001 30.5c-10.667 9.33301 -19.334 16.166 -26.001 20.499s-14.334 6.5 -23.001 6.5c-14 0 -24.667 -5.66699 -32 -17
s-13 -28.666 -17 -51.999h-63c3.33301 44.667 14.166 78.167 32.499 100.5s45.166 33.5 80.499 33.5c18.667 0 34.5 -3.66699 47.5 -11s26.833 -17.666 41.5 -30.999c10 -8.66699 18.5 -15.167 25.5 -19.5s14.167 -6.5 21.5 -6.5c14 0 24.833 5.83301 32.5 17.5
s13.5 28.834 17.5 51.501h63c-7.33301 -89.333 -44.666 -134 -111.999 -134z" />
    <glyph glyph-name="Odieresis" unicode="&#xd6;" horiz-adv-x="748" 
d="M536 628.5c46 -27.667 81.5 -67 106.5 -118s37.5 -111.167 37.5 -180.5s-12.5 -129.5 -37.5 -180.5s-60.5 -90.333 -106.5 -118s-100 -41.5 -162 -41.5s-116 13.833 -162 41.5s-81.5 67 -106.5 118s-37.5 111.167 -37.5 180.5s12.5 129.5 37.5 180.5
s60.5 90.333 106.5 118s100 41.5 162 41.5s116 -13.833 162 -41.5zM211.5 524.5c-39.667 -47 -59.5 -111.833 -59.5 -194.5s19.833 -147.5 59.5 -194.5s93.834 -70.5 162.501 -70.5s122.834 23.5 162.501 70.5s59.5 111.833 59.5 194.5s-19.833 147.5 -59.5 194.5
s-93.834 70.5 -162.501 70.5s-122.834 -23.5 -162.501 -70.5zM318.5 840.5c10.333 -10.333 15.5 -24.166 15.5 -41.499c0 -16.667 -5.16699 -30.334 -15.5 -41.001s-24.166 -16 -41.499 -16c-16.667 0 -30.334 5.33301 -41.001 16s-16 24.334 -16 41.001
c0 17.333 5.33301 31.166 16 41.499s24.334 15.5 41.001 15.5c17.333 0 31.166 -5.16699 41.499 -15.5zM512.5 840.5c10.333 -10.333 15.5 -24.166 15.5 -41.499c0 -16.667 -5.16699 -30.334 -15.5 -41.001s-24.166 -16 -41.499 -16c-16.667 0 -30.334 5.33301 -41.001 16
s-16 24.334 -16 41.001c0 17.333 5.33301 31.166 16 41.499s24.334 15.5 41.001 15.5c17.333 0 31.166 -5.16699 41.499 -15.5z" />
    <glyph glyph-name="multiply" unicode="&#xd7;" 
d="M355 318l167 -168l-53 -53l-167 168l-168 -168l-53 53l168 168l-168 167l53 53l168 -167l167 167l53 -53z" />
    <glyph glyph-name="Oslash" unicode="&#xd8;" horiz-adv-x="748" 
d="M657.5 474.5c15 -43 22.498 -91.167 22.498 -144.5c0 -69.333 -12.5 -129.5 -37.5 -180.5s-60.5 -90.333 -106.5 -118s-100 -41.5 -162 -41.5c-63.333 0 -118.666 14.333 -165.999 43l-49 -70h-71l74 107c-30.667 30 -54 67 -70 111s-24 93.667 -24 149
c0 69.333 12.5 129.5 37.5 180.5s60.5 90.333 106.5 118s100 41.5 162 41.5c66.667 0 124.334 -16 173.001 -48l43 61h71l-69 -99c28.667 -30 50.5 -66.5 65.5 -109.5zM208.998 138l293.001 419c-35.333 25.333 -78 38 -128 38c-68.667 0 -122.834 -23.5 -162.501 -70.5
s-59.5 -111.833 -59.5 -194.5c0 -82 19 -146 57 -192zM536.499 135.5c39.667 47 59.499 111.833 59.499 194.5c0 77.333 -17.333 139 -52 185l-291 -417c34 -22 74.333 -33 121 -33c68.667 0 122.834 23.5 162.501 70.5z" />
    <glyph glyph-name="Ugrave" unicode="&#xd9;" horiz-adv-x="720" 
d="M393 743h-65l-86 148h94zM619 246c0 -84.667 -22.167 -148.5 -66.5 -191.5s-108.5 -64.5 -192.5 -64.5s-148.167 21.667 -192.5 65s-66.5 107 -66.5 191v414h80v-394c0 -69.333 14.5 -120.166 43.5 -152.499s74.167 -48.5 135.5 -48.5s106.5 16.167 135.5 48.5
s43.5 83.166 43.5 152.499v394h80v-414z" />
    <glyph glyph-name="Uacute" unicode="&#xda;" horiz-adv-x="720" 
d="M469 891l-86 -148h-65l57 148h94zM619 246c0 -84.667 -22.167 -148.5 -66.5 -191.5s-108.5 -64.5 -192.5 -64.5s-148.167 21.667 -192.5 65s-66.5 107 -66.5 191v414h80v-394c0 -69.333 14.5 -120.166 43.5 -152.499s74.167 -48.5 135.5 -48.5s106.5 16.167 135.5 48.5
s43.5 83.166 43.5 152.499v394h80v-414z" />
    <glyph glyph-name="Ucircumflex" unicode="&#xdb;" horiz-adv-x="720" 
d="M446 736l-86 115l-86 -115h-73l114 167h90l114 -167h-73zM619 246c0 -84.667 -22.167 -148.5 -66.5 -191.5s-108.5 -64.5 -192.5 -64.5s-148.167 21.667 -192.5 65s-66.5 107 -66.5 191v414h80v-394c0 -69.333 14.5 -120.166 43.5 -152.499s74.167 -48.5 135.5 -48.5
s106.5 16.167 135.5 48.5s43.5 83.166 43.5 152.499v394h80v-414z" />
    <glyph glyph-name="Udieresis" unicode="&#xdc;" horiz-adv-x="720" 
d="M619 246c0 -84.667 -22.167 -148.5 -66.5 -191.5s-108.5 -64.5 -192.5 -64.5s-148.167 21.667 -192.5 65s-66.5 107 -66.5 191v414h80v-394c0 -69.333 14.5 -120.166 43.5 -152.499s74.167 -48.5 135.5 -48.5s106.5 16.167 135.5 48.5s43.5 83.166 43.5 152.499v394h80
v-414zM304.5 840.5c10.333 -10.333 15.5 -24.166 15.5 -41.499c0 -16.667 -5.16699 -30.334 -15.5 -41.001s-24.166 -16 -41.499 -16c-16.667 0 -30.334 5.33301 -41.001 16s-16 24.334 -16 41.001c0 17.333 5.33301 31.166 16 41.499s24.334 15.5 41.001 15.5
c17.333 0 31.166 -5.16699 41.499 -15.5zM498.5 840.5c10.333 -10.333 15.5 -24.166 15.5 -41.499c0 -16.667 -5.16699 -30.334 -15.5 -41.001s-24.166 -16 -41.499 -16c-16.667 0 -30.334 5.33301 -41.001 16s-16 24.334 -16 41.001c0 17.333 5.33301 31.166 16 41.499
s24.334 15.5 41.001 15.5c17.333 0 31.166 -5.16699 41.499 -15.5z" />
    <glyph glyph-name="Yacute" unicode="&#xdd;" horiz-adv-x="572" 
d="M395 891l-86 -148h-65l57 148h94zM326 258v-258h-80v258l-236 402h95l181 -320l181 320h95z" />
    <glyph glyph-name="Thorn" unicode="&#xde;" horiz-adv-x="627" 
d="M511 489.5c41.333 -35 62 -85.833 62 -152.5c0 -66 -20.667 -116.667 -62 -152s-102.666 -53 -183.999 -53h-139v-132h-80v660h80v-118h139c81.333 0 142.666 -17.5 183.999 -52.5zM451 239c25.333 21.333 38 54 38 98s-12.667 76.667 -38 98s-64 32 -116 32h-147v-260
h147c52 0 90.667 10.667 116 32z" />
    <glyph glyph-name="germandbls" unicode="&#xdf;" horiz-adv-x="620" 
d="M480 362.5c28 -19 48.3311 -43.167 60.998 -72.5s19 -60.333 19 -93c0 -36.667 -8.33301 -70.667 -25 -102s-41.667 -56.666 -75 -75.999s-73.666 -29 -120.999 -29c-21.333 0 -41.833 3.16699 -61.5 9.5s-34.167 14.166 -43.5 23.499l23 65
c20.667 -16.667 49.334 -25 86.001 -25c44.667 0 79.167 13.167 103.5 39.5s36.5 60.833 36.5 103.5c0 46 -14.833 81 -44.5 105s-72.834 36 -129.501 36h-39v75h39c44 0 78.833 11.333 104.5 34s38.5 52 38.5 88c0 77.333 -44.667 116 -134 116c-54 0 -91.667 -15 -113 -45
s-32 -77.333 -32 -142v-473h-80v497c0 74.667 17.833 133 53.5 175s95.5 63 179.5 63c48 0 87.667 -9.33301 119 -28s54 -42.167 68 -70.5s21 -57.5 21 -87.5c0 -24 -5.66699 -48 -17 -72s-29.166 -44 -53.499 -60s-54.5 -24 -90.5 -24v-2c43.333 0 79 -9.5 107 -28.5z" />
    <glyph glyph-name="agrave" unicode="&#xe0;" horiz-adv-x="566" 
d="M543 63l-4.99707 -63.001c-18.667 -6.66699 -38.667 -10 -60 -10c-26 0 -46.5 5.66699 -61.5 17s-24.5 30.333 -28.5 57c-15.333 -23.333 -37.833 -41.5 -67.5 -54.5s-60.834 -19.5 -93.501 -19.5c-49.333 0 -90 11.5 -122 34.5s-48 56.167 -48 99.5
c0 38 16.667 70.833 50 98.5s81.666 46.834 144.999 57.501l133 22v28c0 33.333 -10.333 60 -31 80s-49.334 30 -86.001 30c-33.333 0 -62.166 -8 -86.499 -24s-43.166 -39.667 -56.499 -71l-59 43c13.333 37.333 38.166 67 74.499 89s78.833 33 127.5 33
c59.333 0 107 -14.333 143 -43s54 -71 54 -127v-246c0 -12 3 -21 9 -27s15.667 -9 29 -9s26.666 1.66699 39.999 5zM339.503 89.999c30.333 20 45.5 46 45.5 78v69l-112 -21c-44.667 -8 -78 -19.5 -100 -34.5s-33 -34.167 -33 -57.5c0 -20.667 8 -36.5 24 -47.5
s38.333 -16.5 67 -16.5c42 0 78.167 10 108.5 30zM318.003 582.999h-65l-98 167h87z" />
    <glyph glyph-name="aacute" unicode="&#xe1;" horiz-adv-x="566" 
d="M543 63l-4.99707 -63.001c-18.667 -6.66699 -38.667 -10 -60 -10c-26 0 -46.5 5.66699 -61.5 17s-24.5 30.333 -28.5 57c-15.333 -23.333 -37.833 -41.5 -67.5 -54.5s-60.834 -19.5 -93.501 -19.5c-49.333 0 -90 11.5 -122 34.5s-48 56.167 -48 99.5
c0 38 16.667 70.833 50 98.5s81.666 46.834 144.999 57.501l133 22v28c0 33.333 -10.333 60 -31 80s-49.334 30 -86.001 30c-33.333 0 -62.166 -8 -86.499 -24s-43.166 -39.667 -56.499 -71l-59 43c13.333 37.333 38.166 67 74.499 89s78.833 33 127.5 33
c59.333 0 107 -14.333 143 -43s54 -71 54 -127v-246c0 -12 3 -21 9 -27s15.667 -9 29 -9s26.666 1.66699 39.999 5zM339.503 89.999c30.333 20 45.5 46 45.5 78v69l-112 -21c-44.667 -8 -78 -19.5 -100 -34.5s-33 -34.167 -33 -57.5c0 -20.667 8 -36.5 24 -47.5
s38.333 -16.5 67 -16.5c42 0 78.167 10 108.5 30zM390.003 749.999l-98 -167h-65l76 167h87z" />
    <glyph glyph-name="acircumflex" unicode="&#xe2;" horiz-adv-x="566" 
d="M543 63l-4.99707 -63.001c-18.667 -6.66699 -38.667 -10 -60 -10c-26 0 -46.5 5.66699 -61.5 17s-24.5 30.333 -28.5 57c-15.333 -23.333 -37.833 -41.5 -67.5 -54.5s-60.834 -19.5 -93.501 -19.5c-49.333 0 -90 11.5 -122 34.5s-48 56.167 -48 99.5
c0 38 16.667 70.833 50 98.5s81.666 46.834 144.999 57.501l133 22v28c0 33.333 -10.333 60 -31 80s-49.334 30 -86.001 30c-33.333 0 -62.166 -8 -86.499 -24s-43.166 -39.667 -56.499 -71l-59 43c13.333 37.333 38.166 67 74.499 89s78.833 33 127.5 33
c59.333 0 107 -14.333 143 -43s54 -71 54 -127v-246c0 -12 3 -21 9 -27s15.667 -9 29 -9s26.666 1.66699 39.999 5zM339.503 89.999c30.333 20 45.5 46 45.5 78v69l-112 -21c-44.667 -8 -78 -19.5 -100 -34.5s-33 -34.167 -33 -57.5c0 -20.667 8 -36.5 24 -47.5
s38.333 -16.5 67 -16.5c42 0 78.167 10 108.5 30zM361.003 575.999l-85 111l-85 -111h-73l112 167h92l112 -167h-73z" />
    <glyph glyph-name="atilde" unicode="&#xe3;" horiz-adv-x="566" 
d="M543 63l-4.99707 -63.001c-18.667 -6.66699 -38.667 -10 -60 -10c-26 0 -46.5 5.66699 -61.5 17s-24.5 30.333 -28.5 57c-15.333 -23.333 -37.833 -41.5 -67.5 -54.5s-60.834 -19.5 -93.501 -19.5c-49.333 0 -90 11.5 -122 34.5s-48 56.167 -48 99.5
c0 38 16.667 70.833 50 98.5s81.666 46.834 144.999 57.501l133 22v28c0 33.333 -10.333 60 -31 80s-49.334 30 -86.001 30c-33.333 0 -62.166 -8 -86.499 -24s-43.166 -39.667 -56.499 -71l-59 43c13.333 37.333 38.166 67 74.499 89s78.833 33 127.5 33
c59.333 0 107 -14.333 143 -43s54 -71 54 -127v-246c0 -12 3 -21 9 -27s15.667 -9 29 -9s26.666 1.66699 39.999 5zM339.503 89.999c30.333 20 45.5 46 45.5 78v69l-112 -21c-44.667 -8 -78 -19.5 -100 -34.5s-33 -34.167 -33 -57.5c0 -20.667 8 -36.5 24 -47.5
s38.333 -16.5 67 -16.5c42 0 78.167 10 108.5 30zM344.003 582.999c-19.333 0 -35.3291 3.49805 -47.9961 10.498s-26.334 17.167 -41.001 30.5c-10.667 9.33301 -19.334 16.166 -26.001 20.499s-14.334 6.5 -23.001 6.5c-14 0 -24.667 -5.66699 -32 -17
s-13 -28.666 -17 -51.999h-63c3.33301 44.667 14.166 78.167 32.499 100.5s45.166 33.5 80.499 33.5c18.667 0 34.5 -3.66699 47.5 -11s26.833 -17.666 41.5 -30.999c10 -8.66699 18.5 -15.167 25.5 -19.5s14.167 -6.5 21.5 -6.5c14 0 24.833 5.83301 32.5 17.5
s13.5 28.834 17.5 51.501h63c-7.33301 -89.333 -44.666 -134 -111.999 -134z" />
    <glyph glyph-name="adieresis" unicode="&#xe4;" horiz-adv-x="566" 
d="M543 63l-4.99707 -63.001c-18.667 -6.66699 -38.667 -10 -60 -10c-26 0 -46.5 5.66699 -61.5 17s-24.5 30.333 -28.5 57c-15.333 -23.333 -37.833 -41.5 -67.5 -54.5s-60.834 -19.5 -93.501 -19.5c-49.333 0 -90 11.5 -122 34.5s-48 56.167 -48 99.5
c0 38 16.667 70.833 50 98.5s81.666 46.834 144.999 57.501l133 22v28c0 33.333 -10.333 60 -31 80s-49.334 30 -86.001 30c-33.333 0 -62.166 -8 -86.499 -24s-43.166 -39.667 -56.499 -71l-59 43c13.333 37.333 38.166 67 74.499 89s78.833 33 127.5 33
c59.333 0 107 -14.333 143 -43s54 -71 54 -127v-246c0 -12 3 -21 9 -27s15.667 -9 29 -9s26.666 1.66699 39.999 5zM339.503 89.999c30.333 20 45.5 46 45.5 78v69l-112 -21c-44.667 -8 -78 -19.5 -100 -34.5s-33 -34.167 -33 -57.5c0 -20.667 8 -36.5 24 -47.5
s38.333 -16.5 67 -16.5c42 0 78.167 10 108.5 30zM220.503 680.499c10.333 -10.333 15.5 -24.166 15.5 -41.499c0 -16.667 -5.16699 -30.334 -15.5 -41.001s-24.166 -16 -41.499 -16c-16.667 0 -30.334 5.33301 -41.001 16s-16 24.334 -16 41.001
c0 17.333 5.33301 31.166 16 41.499s24.334 15.5 41.001 15.5c17.333 0 31.166 -5.16699 41.499 -15.5zM414.503 680.499c10.333 -10.333 15.5 -24.166 15.5 -41.499c0 -16.667 -5.16699 -30.334 -15.5 -41.001s-24.166 -16 -41.499 -16
c-16.667 0 -30.334 5.33301 -41.001 16s-16 24.334 -16 41.001c0 17.333 5.33301 31.166 16 41.499s24.334 15.5 41.001 15.5c17.333 0 31.166 -5.16699 41.499 -15.5z" />
    <glyph glyph-name="aring" unicode="&#xe5;" horiz-adv-x="566" 
d="M543 63l-4.99707 -63.001c-18.667 -6.66699 -38.667 -10 -60 -10c-26 0 -46.5 5.66699 -61.5 17s-24.5 30.333 -28.5 57c-15.333 -23.333 -37.833 -41.5 -67.5 -54.5s-60.834 -19.5 -93.501 -19.5c-49.333 0 -90 11.5 -122 34.5s-48 56.167 -48 99.5
c0 38 16.667 70.833 50 98.5s81.666 46.834 144.999 57.501l133 22v28c0 33.333 -10.333 60 -31 80s-49.334 30 -86.001 30c-33.333 0 -62.166 -8 -86.499 -24s-43.166 -39.667 -56.499 -71l-59 43c13.333 37.333 38.166 67 74.499 89s78.833 33 127.5 33
c59.333 0 107 -14.333 143 -43s54 -71 54 -127v-246c0 -12 3 -21 9 -27s15.667 -9 29 -9s26.666 1.66699 39.999 5zM339.503 89.999c30.333 20 45.5 46 45.5 78v69l-112 -21c-44.667 -8 -78 -19.5 -100 -34.5s-33 -34.167 -33 -57.5c0 -20.667 8 -36.5 24 -47.5
s38.333 -16.5 67 -16.5c42 0 78.167 10 108.5 30zM363.503 779.499c23 -21.667 34.5 -50.167 34.5 -85.5s-11.5 -64 -34.5 -86s-53.167 -33 -90.5 -33s-67.666 11 -90.999 33s-35 50.667 -35 86s11.667 63.833 35 85.5s53.666 32.5 90.999 32.5s67.5 -10.833 90.5 -32.5z
M222.003 743.499c-13.333 -13 -20 -29.5 -20 -49.5s6.66699 -36.5 20 -49.5s30.333 -19.5 51 -19.5s37.667 6.5 51 19.5s20 29.5 20 49.5s-6.66699 36.5 -20 49.5s-30.333 19.5 -51 19.5s-37.667 -6.5 -51 -19.5z" />
    <glyph glyph-name="ae" unicode="&#xe6;" horiz-adv-x="884" 
d="M821 220l-357.002 0.000976562c5.33301 -50 21.833 -89.167 49.5 -117.5s62.167 -42.5 103.5 -42.5c36 0 64.5 6.16699 85.5 18.5s36.167 30.833 45.5 55.5l67 -35c-20.667 -36.667 -46 -64 -76 -82s-70.667 -27 -122 -27c-46 0 -85.667 10.167 -119 30.5
s-58 51.166 -74 92.499c-13.333 -40 -38.333 -70.5 -75 -91.5s-79.667 -31.5 -129 -31.5s-88.833 12.167 -118.5 36.5s-44.5 56.833 -44.5 97.5c0 38.667 16 71.167 48 97.5s78 43.5 138 51.5l149 19v38c0 33.333 -10.833 60 -32.5 80s-51.834 30 -90.501 30
c-33.333 0 -62.333 -8 -87 -24s-43.667 -39.667 -57 -71l-59 43c14.667 38 40.334 67.833 77.001 89.5s79.334 32.5 128.001 32.5c39.333 0 73.333 -8.66699 102 -26s50.334 -42.666 65.001 -75.999c18.667 32 42.667 57 72 75s63 27 101 27c69.333 0 122.333 -22 159 -66
s55 -100 55 -168c0 -18.667 -1.33301 -37.334 -4 -56.001zM513.498 400.501c-25.667 -26.333 -41.499 -62.833 -47.499 -109.5h282c-4.66699 47.333 -18.334 84 -41.001 110s-54.667 39 -96 39c-39.333 0 -71.833 -13.167 -97.5 -39.5zM311.999 77.001
c24 11.333 43.333 27.5 58 48.5s22 45.167 22 72.5v31l-128 -20c-44 -7.33301 -75.667 -17.5 -95 -30.5s-29 -31.167 -29 -54.5c0 -42.667 31.333 -64 94 -64c28 0 54 5.66699 78 17z" />
    <glyph glyph-name="ccedilla" unicode="&#xe7;" horiz-adv-x="564" 
d="M452 41c-28 -24.667 -61.668 -40.3311 -101.001 -46.998c18 -14 31.667 -29.833 41 -47.5s14 -35.834 14 -54.501c0 -29.333 -10.5 -54.5 -31.5 -75.5s-49.167 -31.5 -84.5 -31.5c-47.333 0 -84 11.667 -110 35l30 55c8.66699 -8.66699 19 -15.834 31 -21.501
s24.667 -8.5 38 -8.5c16 0 29.5 5.33301 40.5 16s16.5 24.667 16.5 42c0 19.333 -5.5 35.5 -16.5 48.5s-31.5 26.833 -61.5 41.5c-62 9.33301 -110.167 36.5 -144.5 81.5s-51.5 103.5 -51.5 175.5c0 81.333 21.5 145 64.5 191s102.167 69 177.5 69
c50 0 92.167 -11.5 126.5 -34.5s61.166 -55.833 80.499 -98.5l-76 -36c-21.333 66 -65.666 99 -132.999 99c-50 0 -89.167 -16.833 -117.5 -50.5s-42.5 -80.167 -42.5 -139.5s14.167 -105.833 42.5 -139.5s67.5 -50.5 117.5 -50.5c38.667 0 69.834 8.83301 93.501 26.5
s39.167 43.167 46.5 76.5l74 -26c-14.667 -39.333 -36 -71.333 -64 -96z" />
    <glyph glyph-name="egrave" unicode="&#xe8;" horiz-adv-x="581" 
d="M518 220l-377 0.000976562c4.66699 -50.667 21.5 -90 50.5 -118s66.5 -42 112.5 -42c36.667 0 67.167 6.33301 91.5 19s40.833 31 49.5 55l67 -35c-20 -35.333 -46.667 -62.333 -80 -81s-76 -28 -128 -28c-75.333 0 -134.5 23 -177.5 69s-64.5 109.667 -64.5 191
s20.5 145 61.5 191s99.167 69 174.5 69c46.667 0 87 -10.333 121 -31s59.667 -48.667 77 -84s26 -75 26 -119c0 -18.667 -1.33301 -37.334 -4 -56.001zM191.5 401.001c-27 -26 -43.501 -62.667 -49.501 -110h303c-5.33301 46.667 -20.666 83.167 -45.999 109.5
s-59 39.5 -101 39.5c-44 0 -79.5 -13 -106.5 -39zM336.999 583.001h-65l-98 167h87z" />
    <glyph glyph-name="eacute" unicode="&#xe9;" horiz-adv-x="581" 
d="M518 220l-377 0.000976562c4.66699 -50.667 21.5 -90 50.5 -118s66.5 -42 112.5 -42c36.667 0 67.167 6.33301 91.5 19s40.833 31 49.5 55l67 -35c-20 -35.333 -46.667 -62.333 -80 -81s-76 -28 -128 -28c-75.333 0 -134.5 23 -177.5 69s-64.5 109.667 -64.5 191
s20.5 145 61.5 191s99.167 69 174.5 69c46.667 0 87 -10.333 121 -31s59.667 -48.667 77 -84s26 -75 26 -119c0 -18.667 -1.33301 -37.334 -4 -56.001zM191.5 401.001c-27 -26 -43.501 -62.667 -49.501 -110h303c-5.33301 46.667 -20.666 83.167 -45.999 109.5
s-59 39.5 -101 39.5c-44 0 -79.5 -13 -106.5 -39zM408.999 750.001l-98 -167h-65l76 167h87z" />
    <glyph glyph-name="ecircumflex" unicode="&#xea;" horiz-adv-x="581" 
d="M518 220l-377 0.000976562c4.66699 -50.667 21.5 -90 50.5 -118s66.5 -42 112.5 -42c36.667 0 67.167 6.33301 91.5 19s40.833 31 49.5 55l67 -35c-20 -35.333 -46.667 -62.333 -80 -81s-76 -28 -128 -28c-75.333 0 -134.5 23 -177.5 69s-64.5 109.667 -64.5 191
s20.5 145 61.5 191s99.167 69 174.5 69c46.667 0 87 -10.333 121 -31s59.667 -48.667 77 -84s26 -75 26 -119c0 -18.667 -1.33301 -37.334 -4 -56.001zM191.5 401.001c-27 -26 -43.501 -62.667 -49.501 -110h303c-5.33301 46.667 -20.666 83.167 -45.999 109.5
s-59 39.5 -101 39.5c-44 0 -79.5 -13 -106.5 -39zM379.999 576.001l-85 111l-85 -111h-73l112 167h92l112 -167h-73z" />
    <glyph glyph-name="edieresis" unicode="&#xeb;" horiz-adv-x="581" 
d="M518 220l-377 0.000976562c4.66699 -50.667 21.5 -90 50.5 -118s66.5 -42 112.5 -42c36.667 0 67.167 6.33301 91.5 19s40.833 31 49.5 55l67 -35c-20 -35.333 -46.667 -62.333 -80 -81s-76 -28 -128 -28c-75.333 0 -134.5 23 -177.5 69s-64.5 109.667 -64.5 191
s20.5 145 61.5 191s99.167 69 174.5 69c46.667 0 87 -10.333 121 -31s59.667 -48.667 77 -84s26 -75 26 -119c0 -18.667 -1.33301 -37.334 -4 -56.001zM191.5 401.001c-27 -26 -43.501 -62.667 -49.501 -110h303c-5.33301 46.667 -20.666 83.167 -45.999 109.5
s-59 39.5 -101 39.5c-44 0 -79.5 -13 -106.5 -39zM239.499 680.501c10.333 -10.333 15.5 -24.166 15.5 -41.499c0 -16.667 -5.16699 -30.334 -15.5 -41.001s-24.166 -16 -41.499 -16c-16.667 0 -30.334 5.33301 -41.001 16s-16 24.334 -16 41.001
c0 17.333 5.33301 31.166 16 41.499s24.334 15.5 41.001 15.5c17.333 0 31.166 -5.16699 41.499 -15.5zM433.499 680.501c10.333 -10.333 15.5 -24.166 15.5 -41.499c0 -16.667 -5.16699 -30.334 -15.5 -41.001s-24.166 -16 -41.499 -16
c-16.667 0 -30.334 5.33301 -41.001 16s-16 24.334 -16 41.001c0 17.333 5.33301 31.166 16 41.499s24.334 15.5 41.001 15.5c17.333 0 31.166 -5.16699 41.499 -15.5z" />
    <glyph glyph-name="igrave" unicode="&#xec;" horiz-adv-x="266" 
d="M173 0h-80v500h80v-500zM175 583h-65l-98 167h87z" />
    <glyph glyph-name="iacute" unicode="&#xed;" horiz-adv-x="266" 
d="M173 0h-80v500h80v-500zM257 750l-98 -167h-65l76 167h87z" />
    <glyph glyph-name="icircumflex" unicode="&#xee;" horiz-adv-x="266" 
d="M173 0h-80v500h80v-500zM218 576l-85 111l-85 -111h-73l112 167h92l112 -167h-73z" />
    <glyph glyph-name="idieresis" unicode="&#xef;" horiz-adv-x="266" 
d="M12 598c-10.667 10.667 -16 24.332 -16 40.999c0 17.333 5.33301 31.166 16 41.499s24.334 15.5 41.001 15.5c17.333 0 31.333 -5.16699 42 -15.5s16 -24.166 16 -41.499s-5.33301 -31.166 -16 -41.499s-24.667 -15.5 -42 -15.5c-16.667 0 -30.334 5.33301 -41.001 16z
M171 597.498c-10.667 10.333 -16 24.168 -16 41.501s5.33301 31.166 16 41.499s24.667 15.5 42 15.5s31.166 -5.16699 41.499 -15.5s15.5 -24.166 15.5 -41.499c0 -16.667 -5.16699 -30.334 -15.5 -41.001s-24.166 -16 -41.499 -16s-31.333 5.16699 -42 15.5zM173 0h-80v500
h80v-500z" />
    <glyph glyph-name="eth" unicode="&#xf0;" horiz-adv-x="620" 
d="M546 288c0 -90.667 -20.998 -162.999 -62.998 -216.999s-103.667 -81 -185 -81c-72.667 0 -130.167 22 -172.5 66s-63.5 104.667 -63.5 182c0 50 10.167 93.667 30.5 131s48.166 66 83.499 86s75.333 30 120 30c75.333 0 131.666 -23.333 168.999 -70
c-8 36 -18.5 68.5 -31.5 97.5s-29.5 55.833 -49.5 80.5l-186 -48l-10 49l162 36c-38 36 -86.333 69.333 -145 100h111c41.333 -24.667 76.333 -52.334 105 -83.001l110 31l14 -50l-92 -19c62 -82.667 93 -189.667 93 -321zM390.502 84.501
c25 16.333 44.168 37.998 57.501 64.998s20 56.5 20 88.5c0 54.667 -14.333 97.834 -43 129.501s-68 47.5 -118 47.5c-50.667 0 -90.334 -15.667 -119.001 -47s-43 -74.666 -43 -129.999s14 -98.833 42 -130.5s66.333 -47.5 115 -47.5c34 0 63.5 8.16699 88.5 24.5z" />
    <glyph glyph-name="ntilde" unicode="&#xf1;" horiz-adv-x="619" 
d="M476 461c36.667 -32.667 54.998 -79.667 54.998 -141v-320h-80v292c0 52 -11.167 89.667 -33.5 113s-52.166 35 -89.499 35c-26.667 0 -51.667 -5.83301 -75 -17.5s-42.5 -30.667 -57.5 -57s-22.5 -59.5 -22.5 -99.5v-266h-80v500h70l5 -78
c16.667 30 39.667 52.167 69 66.5s62.333 21.5 99 21.5c56.667 0 103.334 -16.333 140.001 -49zM385.998 583c-19.333 0 -35.3291 3.49805 -47.9961 10.498s-26.334 17.167 -41.001 30.5c-10.667 9.33301 -19.334 16.166 -26.001 20.499s-14.334 6.5 -23.001 6.5
c-14 0 -24.667 -5.66699 -32 -17s-13 -28.666 -17 -51.999h-63c3.33301 44.667 14.166 78.167 32.499 100.5s45.166 33.5 80.499 33.5c18.667 0 34.5 -3.66699 47.5 -11s26.833 -17.666 41.5 -30.999c10 -8.66699 18.5 -15.167 25.5 -19.5s14.167 -6.5 21.5 -6.5
c14 0 24.833 5.83301 32.5 17.5s13.5 28.834 17.5 51.501h63c-7.33301 -89.333 -44.666 -134 -111.999 -134z" />
    <glyph glyph-name="ograve" unicode="&#xf2;" horiz-adv-x="608" 
d="M481.5 441c43 -46 64.5 -109.667 64.5 -191s-21.5 -145 -64.5 -191s-102.167 -69 -177.5 -69s-134.5 23 -177.5 69s-64.5 109.667 -64.5 191s21.5 145 64.5 191s102.167 69 177.5 69s134.5 -23 177.5 -69zM185 390c-28.667 -34 -43 -80.667 -43 -140s14.333 -106 43 -140
s68.334 -51 119.001 -51s90.334 17 119.001 51s43 80.667 43 140s-14.333 106 -43 140s-68.334 51 -119.001 51s-90.334 -17 -119.001 -51zM346 583h-65l-98 167h87z" />
    <glyph glyph-name="oacute" unicode="&#xf3;" horiz-adv-x="608" 
d="M481.5 441c43 -46 64.5 -109.667 64.5 -191s-21.5 -145 -64.5 -191s-102.167 -69 -177.5 -69s-134.5 23 -177.5 69s-64.5 109.667 -64.5 191s21.5 145 64.5 191s102.167 69 177.5 69s134.5 -23 177.5 -69zM185 390c-28.667 -34 -43 -80.667 -43 -140s14.333 -106 43 -140
s68.334 -51 119.001 -51s90.334 17 119.001 51s43 80.667 43 140s-14.333 106 -43 140s-68.334 51 -119.001 51s-90.334 -17 -119.001 -51zM418 750l-98 -167h-65l76 167h87z" />
    <glyph glyph-name="ocircumflex" unicode="&#xf4;" horiz-adv-x="608" 
d="M481.5 441c43 -46 64.5 -109.667 64.5 -191s-21.5 -145 -64.5 -191s-102.167 -69 -177.5 -69s-134.5 23 -177.5 69s-64.5 109.667 -64.5 191s21.5 145 64.5 191s102.167 69 177.5 69s134.5 -23 177.5 -69zM185 390c-28.667 -34 -43 -80.667 -43 -140s14.333 -106 43 -140
s68.334 -51 119.001 -51s90.334 17 119.001 51s43 80.667 43 140s-14.333 106 -43 140s-68.334 51 -119.001 51s-90.334 -17 -119.001 -51zM389 576l-85 111l-85 -111h-73l112 167h92l112 -167h-73z" />
    <glyph glyph-name="otilde" unicode="&#xf5;" horiz-adv-x="608" 
d="M481.5 441c43 -46 64.5 -109.667 64.5 -191s-21.5 -145 -64.5 -191s-102.167 -69 -177.5 -69s-134.5 23 -177.5 69s-64.5 109.667 -64.5 191s21.5 145 64.5 191s102.167 69 177.5 69s134.5 -23 177.5 -69zM185 390c-28.667 -34 -43 -80.667 -43 -140s14.333 -106 43 -140
s68.334 -51 119.001 -51s90.334 17 119.001 51s43 80.667 43 140s-14.333 106 -43 140s-68.334 51 -119.001 51s-90.334 -17 -119.001 -51zM372 583c-19.333 0 -35.3291 3.49805 -47.9961 10.498s-26.334 17.167 -41.001 30.5
c-10.667 9.33301 -19.334 16.166 -26.001 20.499s-14.334 6.5 -23.001 6.5c-14 0 -24.667 -5.66699 -32 -17s-13 -28.666 -17 -51.999h-63c3.33301 44.667 14.166 78.167 32.499 100.5s45.166 33.5 80.499 33.5c18.667 0 34.5 -3.66699 47.5 -11
s26.833 -17.666 41.5 -30.999c10 -8.66699 18.5 -15.167 25.5 -19.5s14.167 -6.5 21.5 -6.5c14 0 24.833 5.83301 32.5 17.5s13.5 28.834 17.5 51.501h63c-7.33301 -89.333 -44.666 -134 -111.999 -134z" />
    <glyph glyph-name="odieresis" unicode="&#xf6;" horiz-adv-x="608" 
d="M481.5 441c43 -46 64.5 -109.667 64.5 -191s-21.5 -145 -64.5 -191s-102.167 -69 -177.5 -69s-134.5 23 -177.5 69s-64.5 109.667 -64.5 191s21.5 145 64.5 191s102.167 69 177.5 69s134.5 -23 177.5 -69zM185 390c-28.667 -34 -43 -80.667 -43 -140s14.333 -106 43 -140
s68.334 -51 119.001 -51s90.334 17 119.001 51s43 80.667 43 140s-14.333 106 -43 140s-68.334 51 -119.001 51s-90.334 -17 -119.001 -51zM248.5 680.5c10.333 -10.333 15.5 -24.166 15.5 -41.499c0 -16.667 -5.16699 -30.334 -15.5 -41.001s-24.166 -16 -41.499 -16
c-16.667 0 -30.334 5.33301 -41.001 16s-16 24.334 -16 41.001c0 17.333 5.33301 31.166 16 41.499s24.334 15.5 41.001 15.5c17.333 0 31.166 -5.16699 41.499 -15.5zM442.5 680.5c10.333 -10.333 15.5 -24.166 15.5 -41.499c0 -16.667 -5.16699 -30.334 -15.5 -41.001
s-24.166 -16 -41.499 -16c-16.667 0 -30.334 5.33301 -41.001 16s-16 24.334 -16 41.001c0 17.333 5.33301 31.166 16 41.499s24.334 15.5 41.001 15.5c17.333 0 31.166 -5.16699 41.499 -15.5z" />
    <glyph glyph-name="divide" unicode="&#xf7;" 
d="M349 558c12 -12 18 -27.667 18 -47s-6 -35 -18 -47s-27.667 -18 -47 -18s-35 6 -47 18s-18 27.667 -18 47s6 35 18 47s27.667 18 47 18s35 -6 47 -18zM545 279h-486v75h486v-75zM349 167c12 -12 18 -27.667 18 -47s-6 -35 -18 -47s-27.667 -18 -47 -18s-35 6 -47 18
s-18 27.667 -18 47s6 35 18 47s27.667 18 47 18s35 -6 47 -18z" />
    <glyph glyph-name="oslash" unicode="&#xf8;" horiz-adv-x="609" 
d="M445 472l39.001 51h67l-66 -86c40.667 -46 61 -108.333 61 -187c0 -81.333 -21.5 -145 -64.5 -191s-102.167 -69 -177.5 -69c-50.667 0 -94.334 10.667 -131.001 32l-45 -59h-67l69 92c-45.333 46.667 -68 111.667 -68 195c0 81.333 21.5 145 64.5 191
s102.167 69 177.5 69c55.333 0 102.333 -12.667 141 -38zM179.001 118l36.001 49l185 245c-26.667 19.333 -58.667 29 -96 29c-50.667 0 -90.334 -17 -119.001 -51s-43 -80.667 -43 -140c0 -53.333 12 -97.333 36 -132h1zM423.002 110c28.667 34 42.999 80.667 42.999 140
c0 49.333 -10 90 -30 122h-1l-32 -44l-185 -246c23.333 -15.333 52 -23 86 -23c50.667 0 90.334 17 119.001 51z" />
    <glyph glyph-name="ugrave" unicode="&#xf9;" horiz-adv-x="619" 
d="M526 500v-500h-70l-5 76c-33.333 -57.333 -93 -86 -179 -86c-54 0 -98.167 15 -132.5 45s-51.5 76 -51.5 138v327h80v-306c0 -48.667 10 -83.167 30 -103.5s49.333 -30.5 88 -30.5c46 0 84.167 14 114.5 42s45.5 70 45.5 126v272h80zM350 583h-65l-98 167h87z" />
    <glyph glyph-name="uacute" unicode="&#xfa;" horiz-adv-x="619" 
d="M526 500v-500h-70l-5 76c-33.333 -57.333 -93 -86 -179 -86c-54 0 -98.167 15 -132.5 45s-51.5 76 -51.5 138v327h80v-306c0 -48.667 10 -83.167 30 -103.5s49.333 -30.5 88 -30.5c46 0 84.167 14 114.5 42s45.5 70 45.5 126v272h80zM422 750l-98 -167h-65l76 167h87z
" />
    <glyph glyph-name="ucircumflex" unicode="&#xfb;" horiz-adv-x="619" 
d="M526 500v-500h-70l-5 76c-33.333 -57.333 -93 -86 -179 -86c-54 0 -98.167 15 -132.5 45s-51.5 76 -51.5 138v327h80v-306c0 -48.667 10 -83.167 30 -103.5s49.333 -30.5 88 -30.5c46 0 84.167 14 114.5 42s45.5 70 45.5 126v272h80zM393 576l-85 111l-85 -111h-73
l112 167h92l112 -167h-73z" />
    <glyph glyph-name="udieresis" unicode="&#xfc;" horiz-adv-x="619" 
d="M526 500v-500h-70l-5 76c-33.333 -57.333 -93 -86 -179 -86c-54 0 -98.167 15 -132.5 45s-51.5 76 -51.5 138v327h80v-306c0 -48.667 10 -83.167 30 -103.5s49.333 -30.5 88 -30.5c46 0 84.167 14 114.5 42s45.5 70 45.5 126v272h80zM252.5 680.5
c10.333 -10.333 15.5 -24.166 15.5 -41.499c0 -16.667 -5.16699 -30.334 -15.5 -41.001s-24.166 -16 -41.499 -16c-16.667 0 -30.334 5.33301 -41.001 16s-16 24.334 -16 41.001c0 17.333 5.33301 31.166 16 41.499s24.334 15.5 41.001 15.5
c17.333 0 31.166 -5.16699 41.499 -15.5zM446.5 680.5c10.333 -10.333 15.5 -24.166 15.5 -41.499c0 -16.667 -5.16699 -30.334 -15.5 -41.001s-24.166 -16 -41.499 -16c-16.667 0 -30.334 5.33301 -41.001 16s-16 24.334 -16 41.001c0 17.333 5.33301 31.166 16 41.499
s24.334 15.5 41.001 15.5c17.333 0 31.166 -5.16699 41.499 -15.5z" />
    <glyph glyph-name="yacute" unicode="&#xfd;" horiz-adv-x="535" 
d="M283 -84c-19.333 -48 -41 -81.835 -65 -101.502s-55 -29.5 -93 -29.5c-25.333 0 -46.5 3.33301 -63.5 10s-32.5 17.334 -46.5 32.001l28 68c19.333 -26.667 46.333 -40 81 -40c19.333 0 36.5 5.83301 51.5 17.5s28.167 32.834 39.5 63.501l26 65l-209 499h91l125 -326
l31 -89l36 99l117 316h86zM387 749.998l-98 -167h-65l76 167h87z" />
    <glyph glyph-name="thorn" unicode="&#xfe;" horiz-adv-x="630" 
d="M505.5 440.5c41 -46.333 61.5 -109.833 61.5 -190.5s-20.5 -144.167 -61.5 -190.5s-96.5 -69.5 -166.5 -69.5c-36.667 0 -69.167 7.16699 -97.5 21.5s-51.166 33.5 -68.499 57.5v-279h-80v940h80v-299c17.333 24 40.166 43.167 68.499 57.5s60.833 21.5 97.5 21.5
c70 0 125.5 -23.167 166.5 -69.5zM445 111.5c28 34.333 42 80.5 42 138.5s-14 104.167 -42 138.5s-66.333 51.5 -115 51.5c-48 0 -86.167 -16.667 -114.5 -50s-42.5 -78 -42.5 -134v-12c0 -56 14.167 -100.667 42.5 -134s66.5 -50 114.5 -50c48.667 0 87 17.167 115 51.5z
" />
    <glyph glyph-name="ydieresis" unicode="&#xff;" horiz-adv-x="535" 
d="M283 -84c-19.333 -48 -41 -81.835 -65 -101.502s-55 -29.5 -93 -29.5c-25.333 0 -46.5 3.33301 -63.5 10s-32.5 17.334 -46.5 32.001l28 68c19.333 -26.667 46.333 -40 81 -40c19.333 0 36.5 5.83301 51.5 17.5s28.167 32.834 39.5 63.501l26 65l-209 499h91l125 -326
l31 -89l36 99l117 316h86zM217.5 680.498c10.333 -10.333 15.5 -24.166 15.5 -41.499c0 -16.667 -5.16699 -30.334 -15.5 -41.001s-24.166 -16 -41.499 -16c-16.667 0 -30.334 5.33301 -41.001 16s-16 24.334 -16 41.001c0 17.333 5.33301 31.166 16 41.499
s24.334 15.5 41.001 15.5c17.333 0 31.166 -5.16699 41.499 -15.5zM411.5 680.498c10.333 -10.333 15.5 -24.166 15.5 -41.499c0 -16.667 -5.16699 -30.334 -15.5 -41.001s-24.166 -16 -41.499 -16c-16.667 0 -30.334 5.33301 -41.001 16s-16 24.334 -16 41.001
c0 17.333 5.33301 31.166 16 41.499s24.334 15.5 41.001 15.5c17.333 0 31.166 -5.16699 41.499 -15.5z" />
    <glyph glyph-name="Amacron" unicode="&#x100;" horiz-adv-x="660" 
d="M479 183h-299l-70 -183h-84l257 660h95l256 -660h-85zM450 258l-89 234l-31 92h-2l-29 -89l-90 -237h241zM504 756h-348v67h348v-67z" />
    <glyph glyph-name="amacron" unicode="&#x101;" horiz-adv-x="566" 
d="M543 63l-4.99707 -63.001c-18.667 -6.66699 -38.667 -10 -60 -10c-26 0 -46.5 5.66699 -61.5 17s-24.5 30.333 -28.5 57c-15.333 -23.333 -37.833 -41.5 -67.5 -54.5s-60.834 -19.5 -93.501 -19.5c-49.333 0 -90 11.5 -122 34.5s-48 56.167 -48 99.5
c0 38 16.667 70.833 50 98.5s81.666 46.834 144.999 57.501l133 22v28c0 33.333 -10.333 60 -31 80s-49.334 30 -86.001 30c-33.333 0 -62.166 -8 -86.499 -24s-43.166 -39.667 -56.499 -71l-59 43c13.333 37.333 38.166 67 74.499 89s78.833 33 127.5 33
c59.333 0 107 -14.333 143 -43s54 -71 54 -127v-246c0 -12 3 -21 9 -27s15.667 -9 29 -9s26.666 1.66699 39.999 5zM339.503 89.999c30.333 20 45.5 46 45.5 78v69l-112 -21c-44.667 -8 -78 -19.5 -100 -34.5s-33 -34.167 -33 -57.5c0 -20.667 8 -36.5 24 -47.5
s38.333 -16.5 67 -16.5c42 0 78.167 10 108.5 30zM450.003 595.999h-348v67h348v-67z" />
    <glyph glyph-name="Abreve" unicode="&#x102;" horiz-adv-x="660" 
d="M479 183h-299l-70 -183h-84l257 660h95l256 -660h-85zM450 258l-89 234l-31 92h-2l-29 -89l-90 -237h241zM437 778c-27.333 -27.333 -63 -41 -107 -41s-79.667 13.667 -107 41s-41 63 -41 107h66c0 -24 7.83301 -44.667 23.5 -62s35.167 -26 58.5 -26
s42.833 8.66699 58.5 26s23.5 38 23.5 62h66c0 -44 -13.667 -79.667 -41 -107z" />
    <glyph glyph-name="abreve" unicode="&#x103;" horiz-adv-x="566" 
d="M543 63l-4.99707 -63.001c-18.667 -6.66699 -38.667 -10 -60 -10c-26 0 -46.5 5.66699 -61.5 17s-24.5 30.333 -28.5 57c-15.333 -23.333 -37.833 -41.5 -67.5 -54.5s-60.834 -19.5 -93.501 -19.5c-49.333 0 -90 11.5 -122 34.5s-48 56.167 -48 99.5
c0 38 16.667 70.833 50 98.5s81.666 46.834 144.999 57.501l133 22v28c0 33.333 -10.333 60 -31 80s-49.334 30 -86.001 30c-33.333 0 -62.166 -8 -86.499 -24s-43.166 -39.667 -56.499 -71l-59 43c13.333 37.333 38.166 67 74.499 89s78.833 33 127.5 33
c59.333 0 107 -14.333 143 -43s54 -71 54 -127v-246c0 -12 3 -21 9 -27s15.667 -9 29 -9s26.666 1.66699 39.999 5zM339.503 89.999c30.333 20 45.5 46 45.5 78v69l-112 -21c-44.667 -8 -78 -19.5 -100 -34.5s-33 -34.167 -33 -57.5c0 -20.667 8 -36.5 24 -47.5
s38.333 -16.5 67 -16.5c42 0 78.167 10 108.5 30zM383.003 617.999c-27.333 -27.333 -63 -41 -107 -41s-79.667 13.667 -107 41s-41 63 -41 107h66c0 -24 7.83301 -44.667 23.5 -62s35.167 -26 58.5 -26s42.833 8.66699 58.5 26s23.5 38 23.5 62h66
c0 -44 -13.667 -79.667 -41 -107z" />
    <glyph glyph-name="Aogonek" unicode="&#x104;" horiz-adv-x="660" 
d="M646 -196c-9.33301 -6 -21.501 -10.667 -36.501 -14s-30.167 -5 -45.5 -5c-36.667 0 -65.667 9.16699 -87 27.5s-32 43.833 -32 76.5c0 55.333 32.667 97 98 125l-64 169h-299l-70 -183h-84l257 660h95l256 -660c-47.333 -15.333 -79.833 -31.5 -97.5 -48.5
s-26.5 -36.167 -26.5 -57.5c0 -16.667 5.66699 -29.5 17 -38.5s27 -13.5 47 -13.5c24.667 0 43.334 4.33301 56.001 13zM449.999 258l-89 234l-31 92h-2l-29 -89l-90 -237h241z" />
    <glyph glyph-name="aogonek" unicode="&#x105;" horiz-adv-x="566" 
d="M527 -146l16.0029 -51c-18.667 -12 -44.334 -18 -77.001 -18c-36 0 -64.5 8.66699 -85.5 26s-31.5 40.666 -31.5 69.999c0 26.667 7.66699 49.834 23 69.501s37.666 37.167 66.999 52.5c-24.667 14 -41 35.667 -49 65c-14.667 -24 -37.167 -43 -67.5 -57
s-62.166 -21 -95.499 -21c-49.333 0 -90 11.5 -122 34.5s-48 56.167 -48 99.5c0 38 16.667 70.833 50 98.5s81.666 46.834 144.999 57.501l133 22v28c0 33.333 -10.333 60 -31 80s-49.334 30 -86.001 30c-33.333 0 -62.166 -8 -86.499 -24s-43.166 -39.667 -56.499 -71
l-59 43c13.333 37.333 38.166 67 74.499 89s78.833 33 127.5 33c59.333 0 107 -14.333 143 -43s54 -71 54 -127v-246c0 -12 3 -21 9 -27s15.667 -9 29 -9s26.666 1.66699 39.999 5l-5 -63c-6 -2 -9.66699 -3.33301 -11 -4c-42 -13.333 -71.333 -28.333 -88 -45
s-25 -35.334 -25 -56.001c0 -16.667 5 -29.667 15 -39s24.333 -14 43 -14c24 0 42.333 4 55 12zM339.503 90c30.333 20 45.5 46.001 45.5 78.001v69l-112 -21c-45.333 -9.33301 -78.833 -21.333 -100.5 -36s-32.5 -33.334 -32.5 -56.001c0 -20.667 8 -36.5 24 -47.5
s38.333 -16.5 67 -16.5c42 0 78.167 10 108.5 30z" />
    <glyph glyph-name="Cacute" unicode="&#x106;" horiz-adv-x="686" 
d="M481 891l-86 -148h-65l57 148h94zM538 37.5c-47.333 -31.667 -102.002 -47.5 -164.002 -47.5s-116 13.833 -162 41.5s-81.5 67 -106.5 118s-37.5 111.167 -37.5 180.5c0 68.667 12.5 128.667 37.5 180s60.5 90.833 106.5 118.5s99.333 41.5 160 41.5
c63.333 0 116.5 -13 159.5 -39s75.167 -64.333 96.5 -115l-79 -37c-14.667 38.667 -36 67.667 -64 87s-63.667 29 -107 29c-45.333 0 -85 -10.5 -119 -31.5s-60.333 -51.5 -79 -91.5s-28 -87.333 -28 -142c0 -82.667 19.833 -147.5 59.5 -194.5s93.834 -70.5 162.501 -70.5
c44.667 0 83.334 11.333 116.001 34s56 56 70 100l80 -30c-20.667 -56 -54.667 -99.833 -102 -131.5z" />
    <glyph glyph-name="cacute" unicode="&#x107;" horiz-adv-x="564" 
d="M430.5 475.5c34.333 -23 61.165 -55.832 80.498 -98.499l-76 -36c-21.333 66 -65.666 99 -132.999 99c-50 0 -89.167 -16.833 -117.5 -50.5s-42.5 -80.167 -42.5 -139.5s14.167 -105.833 42.5 -139.5s67.5 -50.5 117.5 -50.5c38.667 0 69.834 8.83301 93.501 26.5
s39.167 43.167 46.5 76.5l74 -26c-17.333 -46.667 -44 -82.834 -80 -108.501s-80 -38.5 -132 -38.5c-75.333 0 -134.5 23 -177.5 69s-64.5 109.667 -64.5 191s21.5 145 64.5 191s102.167 69 177.5 69c50 0 92.167 -11.5 126.5 -34.5zM409.999 750.001l-98 -167h-65l76 167
h87z" />
    <glyph glyph-name="Ccaron" unicode="&#x10c;" horiz-adv-x="686" 
d="M417 738h-90l-114 167h73l86 -115l86 115h73zM538 37.5c-47.333 -31.667 -102.002 -47.5 -164.002 -47.5s-116 13.833 -162 41.5s-81.5 67 -106.5 118s-37.5 111.167 -37.5 180.5c0 68.667 12.5 128.667 37.5 180s60.5 90.833 106.5 118.5s99.333 41.5 160 41.5
c63.333 0 116.5 -13 159.5 -39s75.167 -64.333 96.5 -115l-79 -37c-14.667 38.667 -36 67.667 -64 87s-63.667 29 -107 29c-45.333 0 -85 -10.5 -119 -31.5s-60.333 -51.5 -79 -91.5s-28 -87.333 -28 -142c0 -82.667 19.833 -147.5 59.5 -194.5s93.834 -70.5 162.501 -70.5
c44.667 0 83.334 11.333 116.001 34s56 56 70 100l80 -30c-20.667 -56 -54.667 -99.833 -102 -131.5z" />
    <glyph glyph-name="ccaron" unicode="&#x10d;" horiz-adv-x="564" 
d="M430.5 475.5c34.333 -23 61.165 -55.832 80.498 -98.499l-76 -36c-21.333 66 -65.666 99 -132.999 99c-50 0 -89.167 -16.833 -117.5 -50.5s-42.5 -80.167 -42.5 -139.5s14.167 -105.833 42.5 -139.5s67.5 -50.5 117.5 -50.5c38.667 0 69.834 8.83301 93.501 26.5
s39.167 43.167 46.5 76.5l74 -26c-17.333 -46.667 -44 -82.834 -80 -108.501s-80 -38.5 -132 -38.5c-75.333 0 -134.5 23 -177.5 69s-64.5 109.667 -64.5 191s21.5 145 64.5 191s102.167 69 177.5 69c50 0 92.167 -11.5 126.5 -34.5zM341.999 583.001h-92l-112 167h73
l85 -111l85 111h73z" />
    <glyph glyph-name="Dcaron" unicode="&#x10e;" horiz-adv-x="721" 
d="M280 738l-114 167h73l86 -115l86 115h73l-114 -167h-90zM565 574c58.667 -57.333 88 -138.668 88 -244.001s-29.333 -186.666 -88 -243.999s-140 -86 -244 -86h-213v660h213c104 0 185.333 -28.667 244 -86zM505.5 142.498c42.333 45 63.5 107.5 63.5 187.5
s-21.167 142.5 -63.5 187.5s-101.166 67.5 -176.499 67.5h-141v-510h141c75.333 0 134.166 22.5 176.499 67.5z" />
    <glyph glyph-name="dcaron" unicode="&#x10f;" horiz-adv-x="641" 
d="M457 730h80v-730h-70l-5 87c-14.667 -29.333 -37.167 -52.833 -67.5 -70.5s-64.833 -26.5 -103.5 -26.5c-70 0 -125.5 23.167 -166.5 69.5s-61.5 109.833 -61.5 190.5s20.5 144.167 61.5 190.5s96.5 69.5 166.5 69.5c36.667 0 69.5 -8 98.5 -24s51.5 -37.333 67.5 -64
v308zM689 730l-41 -197h-55l20 197h76zM414.5 110c28.333 33.333 42.5 78 42.5 134v12c0 56 -14.167 100.667 -42.5 134s-66.5 50 -114.5 50c-48.667 0 -87 -17.167 -115 -51.5s-42 -80.5 -42 -138.5s14 -104.167 42 -138.5s66.333 -51.5 115 -51.5
c48 0 86.167 16.667 114.5 50z" />
    <glyph glyph-name="Dcroat" unicode="&#x110;" horiz-adv-x="737" 
d="M581 574c58.667 -57.333 88 -138.668 88 -244.001s-29.333 -186.666 -88 -243.999s-140 -86 -244 -86h-213v303h-98v60h98v297h213c104 0 185.333 -28.667 244 -86zM521.5 142.498c42.333 45 63.5 107.5 63.5 187.5s-21.167 142.5 -63.5 187.5
s-101.166 67.5 -176.499 67.5h-141v-222h197v-60h-197v-228h141c75.333 0 134.166 22.5 176.499 67.5z" />
    <glyph glyph-name="dcroat" unicode="&#x111;" horiz-adv-x="629" 
d="M614 566h-77v-566h-70l-5 87c-14.667 -29.333 -37.167 -52.833 -67.5 -70.5s-64.833 -26.5 -103.5 -26.5c-70 0 -125.5 23.167 -166.5 69.5s-61.5 109.833 -61.5 190.5s20.5 144.167 61.5 190.5s96.5 69.5 166.5 69.5c36.667 0 69.5 -8 98.5 -24s51.5 -37.333 67.5 -64
v144h-157v61h157v103h80v-103h77v-61zM414.5 110c28.333 33.333 42.5 78 42.5 134v12c0 56 -14.167 100.667 -42.5 134s-66.5 50 -114.5 50c-48.667 0 -87 -17.167 -115 -51.5s-42 -80.5 -42 -138.5s14 -104.167 42 -138.5s66.333 -51.5 115 -51.5
c48 0 86.167 16.667 114.5 50z" />
    <glyph glyph-name="Emacron" unicode="&#x112;" horiz-adv-x="638" 
d="M586 75v-75h-478v660h463v-75h-383v-213h298v-75h-298v-222h398zM513 756h-348v67h348v-67z" />
    <glyph glyph-name="emacron" unicode="&#x113;" horiz-adv-x="581" 
d="M518 220l-377 0.000976562c4.66699 -50.667 21.5 -90 50.5 -118s66.5 -42 112.5 -42c36.667 0 67.167 6.33301 91.5 19s40.833 31 49.5 55l67 -35c-20 -35.333 -46.667 -62.333 -80 -81s-76 -28 -128 -28c-75.333 0 -134.5 23 -177.5 69s-64.5 109.667 -64.5 191
s20.5 145 61.5 191s99.167 69 174.5 69c46.667 0 87 -10.333 121 -31s59.667 -48.667 77 -84s26 -75 26 -119c0 -18.667 -1.33301 -37.334 -4 -56.001zM191.5 401.001c-27 -26 -43.501 -62.667 -49.501 -110h303c-5.33301 46.667 -20.666 83.167 -45.999 109.5
s-59 39.5 -101 39.5c-44 0 -79.5 -13 -106.5 -39zM468.999 596.001h-348v67h348v-67z" />
    <glyph glyph-name="Edotaccent" unicode="&#x116;" horiz-adv-x="638" 
d="M586 75v-75h-478v660h463v-75h-383v-213h298v-75h-298v-222h398zM382.5 859.5c11 -11 16.5 -25.5 16.5 -43.5s-5.5 -32.5 -16.5 -43.5s-25.5 -16.5 -43.5 -16.5s-32.5 5.5 -43.5 16.5s-16.5 25.5 -16.5 43.5s5.5 32.5 16.5 43.5s25.5 16.5 43.5 16.5
s32.5 -5.5 43.5 -16.5z" />
    <glyph glyph-name="edotaccent" unicode="&#x117;" horiz-adv-x="581" 
d="M518 220l-377 0.000976562c4.66699 -50.667 21.5 -90 50.5 -118s66.5 -42 112.5 -42c36.667 0 67.167 6.33301 91.5 19s40.833 31 49.5 55l67 -35c-20 -35.333 -46.667 -62.333 -80 -81s-76 -28 -128 -28c-75.333 0 -134.5 23 -177.5 69s-64.5 109.667 -64.5 191
s20.5 145 61.5 191s99.167 69 174.5 69c46.667 0 87 -10.333 121 -31s59.667 -48.667 77 -84s26 -75 26 -119c0 -18.667 -1.33301 -37.334 -4 -56.001zM191.5 401.001c-27 -26 -43.501 -62.667 -49.501 -110h303c-5.33301 46.667 -20.666 83.167 -45.999 109.5
s-59 39.5 -101 39.5c-44 0 -79.5 -13 -106.5 -39zM338.499 699.501c11 -11 16.5 -25.5 16.5 -43.5s-5.5 -32.5 -16.5 -43.5s-25.5 -16.5 -43.5 -16.5s-32.5 5.5 -43.5 16.5s-16.5 25.5 -16.5 43.5s5.5 32.5 16.5 43.5s25.5 16.5 43.5 16.5s32.5 -5.5 43.5 -16.5z" />
    <glyph glyph-name="Eogonek" unicode="&#x118;" horiz-adv-x="638" 
d="M598 -196c-9.33301 -6 -21.5 -10.668 -36.5 -14.001s-30.167 -5 -45.5 -5c-36 0 -64.833 8.83301 -86.5 26.5s-32.5 41.5 -32.5 71.5c0 28 7.16699 51.333 21.5 70s36.166 34.334 65.499 47.001h-376v660h463v-75h-383v-213h298v-75h-298v-222h398v-75
c-47.333 -16 -79.833 -32.333 -97.5 -49s-26.5 -35.667 -26.5 -57c0 -16.667 5.66699 -29.5 17 -38.5s27 -13.5 47 -13.5c24.667 0 43.334 4.33301 56.001 13z" />
    <glyph glyph-name="eogonek" unicode="&#x119;" horiz-adv-x="581" 
d="M518 220l-377.001 0.000976562c4.66699 -50.667 21.5 -90 50.5 -118s66.5 -42 112.5 -42c36.667 0 67.167 6.33301 91.5 19s40.833 31 49.5 55l67 -35c-26 -48 -64.333 -80 -115 -96c-30.667 -18.667 -53.167 -36.5 -67.5 -53.5s-21.5 -33.833 -21.5 -50.5
c0 -18 5.83301 -32 17.5 -42s26.834 -15 45.501 -15c24 0 42.333 4 55 12l16 -51c-9.33301 -6 -21.333 -10.5 -36 -13.5s-29.667 -4.5 -45 -4.5c-36 0 -64.833 9.5 -86.5 28.5s-32.5 43.5 -32.5 73.5c0 20 4.66699 38.333 14 55s23.333 32.667 42 48
c-73.333 1.33301 -131 25 -173 71s-63 109 -63 189c0 81.333 20.5 145 61.5 191s99.167 69 174.5 69c46.667 0 87 -10.333 121 -31s59.667 -48.667 77 -84s26 -75 26 -119c0 -18.667 -1.33301 -37.334 -4 -56.001zM191.499 401.001c-27 -26 -43.501 -62.667 -49.501 -110
h303c-5.33301 46.667 -20.666 83.167 -45.999 109.5s-59 39.5 -101 39.5c-44 0 -79.5 -13 -106.5 -39z" />
    <glyph glyph-name="Ecaron" unicode="&#x11a;" horiz-adv-x="638" 
d="M294 738l-114 167h73l86 -115l86 115h73l-114 -167h-90zM586 75v-75h-478v660h463v-75h-383v-213h298v-75h-298v-222h398z" />
    <glyph glyph-name="ecaron" unicode="&#x11b;" horiz-adv-x="581" 
d="M518 220l-377 0.000976562c4.66699 -50.667 21.5 -90 50.5 -118s66.5 -42 112.5 -42c36.667 0 67.167 6.33301 91.5 19s40.833 31 49.5 55l67 -35c-20 -35.333 -46.667 -62.333 -80 -81s-76 -28 -128 -28c-75.333 0 -134.5 23 -177.5 69s-64.5 109.667 -64.5 191
s20.5 145 61.5 191s99.167 69 174.5 69c46.667 0 87 -10.333 121 -31s59.667 -48.667 77 -84s26 -75 26 -119c0 -18.667 -1.33301 -37.334 -4 -56.001zM191.5 401.001c-27 -26 -43.501 -62.667 -49.501 -110h303c-5.33301 46.667 -20.666 83.167 -45.999 109.5
s-59 39.5 -101 39.5c-44 0 -79.5 -13 -106.5 -39zM340.999 583.001h-92l-112 167h73l85 -111l85 111h73z" />
    <glyph glyph-name="Gbreve" unicode="&#x11e;" horiz-adv-x="724" 
d="M645 333l0.00390625 -332.999h-60l-3 89c-19.333 -32 -46.5 -56.5 -81.5 -73.5s-77.167 -25.5 -126.5 -25.5c-62 0 -116 13.833 -162 41.5s-81.5 67 -106.5 118s-37.5 111.167 -37.5 180.5c0 68.667 12.833 128.667 38.5 180s61.667 90.833 108 118.5
s100.166 41.5 161.499 41.5c65.333 0 119.166 -12.333 161.499 -37s76.5 -62.667 102.5 -114l-73 -40c-14.667 37.333 -38.5 66 -71.5 86s-72.833 30 -119.5 30c-44.667 0 -83.834 -10.667 -117.501 -32s-59.834 -51.833 -78.501 -91.5s-28 -86.834 -28 -141.501
c0 -84 19.333 -149.167 58 -195.5s94.334 -69.5 167.001 -69.5c57.333 0 104.166 14.667 140.499 44s54.5 71.333 54.5 126v23h-210v75h283zM480.004 778.001c-27.333 -27.333 -63 -41 -107 -41s-79.667 13.667 -107 41s-41 63 -41 107h66c0 -24 7.83301 -44.667 23.5 -62
s35.167 -26 58.5 -26s42.833 8.66699 58.5 26s23.5 38 23.5 62h66c0 -44 -13.667 -79.667 -41 -107z" />
    <glyph glyph-name="gbreve" unicode="&#x11f;" horiz-adv-x="532" 
d="M170 618c-27.333 27.333 -41 63 -41 107h66c0 -24 7.83301 -44.667 23.5 -62s35.167 -26 58.5 -26s42.833 8.66699 58.5 26s23.5 38 23.5 62h66c0 -44 -13.667 -79.667 -41 -107s-63 -41 -107 -41s-79.667 13.667 -107 41zM473 32c26.667 -21.333 40 -50.333 40 -87
c0 -32 -11 -60.167 -33 -84.5s-51.833 -43 -89.5 -56s-79.167 -19.5 -124.5 -19.5c-76 0 -133.333 12.167 -172 36.5s-58 56.166 -58 95.499c0 22.667 7.83301 42.667 23.5 60s37.167 29.666 64.5 36.999c-20.667 10 -37.167 22.667 -49.5 38s-18.5 33.333 -18.5 54
c0 24.667 6.66699 45.167 20 61.5s31.666 28.5 54.999 36.5c-24 14.667 -42.167 33.834 -54.5 57.501s-18.5 50.167 -18.5 79.5c0 32.667 8.66699 61.834 26 87.501s41.666 45.667 72.999 60s66.666 21.5 105.999 21.5c42 0 79.667 -8.33301 113 -25
c4.66699 32.667 19.834 58.667 45.501 78s56.5 29 92.5 29l18 -70c-69.333 0 -105.333 -24 -108 -72c29.333 -30.667 44 -67 44 -109c0 -32.667 -8.66699 -61.834 -26 -87.501s-41.666 -45.667 -72.999 -60s-66.666 -21.5 -105.999 -21.5c-29.333 0 -55 3 -77 9
c-20 -4.66699 -34.333 -12 -43 -22s-13 -23.667 -13 -41s6 -30.666 18 -39.999s28 -14 48 -14h166c47.333 0 84.333 -10.667 111 -32zM176 416c-23.333 -19.333 -35 -44.333 -35 -75s11.667 -55.667 35 -75s52.333 -29 87 -29s63.667 9.66699 87 29s35 44.333 35 75
s-11.667 55.667 -35 75s-52.333 29 -87 29s-63.667 -9.66699 -87 -29zM395 -123.5c29.333 16.333 44.001 36.166 44.001 59.499c0 19.333 -7.5 34 -22.5 44s-40.5 15 -76.5 15h-134c-30.667 0 -54.334 -5.5 -71.001 -16.5s-25 -26.167 -25 -45.5
c0 -25.333 14 -45.166 42 -59.499s69 -21.5 123 -21.5c50.667 0 90.667 8.16699 120 24.5z" />
    <glyph glyph-name="uni0122" unicode="&#x122;" horiz-adv-x="724" 
d="M645 333l0.00390625 -332.999h-60l-3 89c-19.333 -32 -46.5 -56.5 -81.5 -73.5s-77.167 -25.5 -126.5 -25.5c-62 0 -116 13.833 -162 41.5s-81.5 67 -106.5 118s-37.5 111.167 -37.5 180.5c0 68.667 12.833 128.667 38.5 180s61.667 90.833 108 118.5
s100.166 41.5 161.499 41.5c65.333 0 119.166 -12.333 161.499 -37s76.5 -62.667 102.5 -114l-73 -40c-14.667 37.333 -38.5 66 -71.5 86s-72.833 30 -119.5 30c-44.667 0 -83.834 -10.667 -117.501 -32s-59.834 -51.833 -78.501 -91.5s-28 -86.834 -28 -141.501
c0 -84 19.333 -149.167 58 -195.5s94.334 -69.5 167.001 -69.5c57.333 0 104.166 14.667 140.499 44s54.5 71.333 54.5 126v23h-210v75h283zM370.004 -236.999h-63l44 161h84z" />
    <glyph glyph-name="uni0123" unicode="&#x123;" horiz-adv-x="532" 
d="M315 587h-88l70 191h60zM483 32c26.667 -21.333 40.001 -50.334 40.001 -87.001c0 -32 -11 -60.167 -33 -84.5s-51.833 -43 -89.5 -56s-79.167 -19.5 -124.5 -19.5c-76 0 -133.333 12.167 -172 36.5s-58 56.166 -58 95.499c0 22.667 7.83301 42.667 23.5 60
s37.167 29.666 64.5 36.999c-20.667 10 -37.167 22.667 -49.5 38s-18.5 33.333 -18.5 54c0 24.667 6.66699 45.167 20 61.5s31.666 28.5 54.999 36.5c-24 14.667 -42.167 33.834 -54.5 57.501s-18.5 50.167 -18.5 79.5c0 32.667 8.66699 61.834 26 87.501
s41.666 45.667 72.999 60s66.666 21.5 105.999 21.5c37.333 0 71.333 -6.66699 102 -20c18.667 68 65.667 102 141 102l18 -70c-65.333 0 -105 -18.333 -119 -55c20 -15.333 35.5 -33.666 46.5 -54.999s16.5 -45 16.5 -71c0 -32.667 -8.66699 -61.834 -26 -87.501
s-41.666 -45.667 -72.999 -60s-66.666 -21.5 -105.999 -21.5c-29.333 0 -55 3 -77 9c-20 -4.66699 -34.333 -12 -43 -22s-13 -23.667 -13 -41s6 -30.666 18 -39.999s28 -14 48 -14h166c47.333 0 84.333 -10.667 111 -32zM186.001 415.999
c-23.333 -19.333 -35 -44.333 -35 -75s11.667 -55.667 35 -75s52.333 -29 87 -29s63.667 9.66699 87 29s35 44.333 35 75s-11.667 55.667 -35 75s-52.333 29 -87 29s-63.667 -9.66699 -87 -29zM405.001 -123.501c29.333 16.333 44.001 36.166 44.001 59.499
c0 19.333 -7.5 34 -22.5 44s-40.5 15 -76.5 15h-134c-30.667 0 -54.334 -5.5 -71.001 -16.5s-25 -26.167 -25 -45.5c0 -25.333 14 -45.166 42 -59.499s69 -21.5 123 -21.5c50.667 0 90.667 8.16699 120 24.5z" />
    <glyph glyph-name="Imacron" unicode="&#x12a;" horiz-adv-x="296" 
d="M256 756h-216v67h216v-67zM188 0h-80v660h80v-660z" />
    <glyph glyph-name="imacron" unicode="&#x12b;" horiz-adv-x="266" 
d="M244 596h-222v67h222v-67zM173 0h-80v500h80v-500z" />
    <glyph glyph-name="Iogonek" unicode="&#x12e;" horiz-adv-x="296" 
d="M218 -193c-21.333 -14.667 -49.668 -21.9971 -85.001 -21.9971s-63.5 8.83301 -84.5 26.5s-31.5 41.5 -31.5 71.5c0 25.333 7.66699 48.666 23 69.999s38 39.333 68 54v653h80v-660c-40 -18.667 -67.833 -36.334 -83.5 -53.001s-23.5 -33.334 -23.5 -50.001
c0 -36 19.667 -54 59 -54c24.667 0 44.334 5 59.001 15z" />
    <glyph glyph-name="iogonek" unicode="&#x12f;" horiz-adv-x="266" 
d="M89.5 612.5c-11 11 -16.5 25.5 -16.5 43.5s5.5 32.5 16.5 43.5s25.5 16.5 43.5 16.5s32.5 -5.5 43.5 -16.5s16.5 -25.5 16.5 -43.5s-5.5 -32.5 -16.5 -43.5s-25.5 -16.5 -43.5 -16.5s-32.5 5.5 -43.5 16.5zM209 -194c-22 -14 -50.333 -20.999 -85 -20.999
c-35.333 0 -63.5 8.83301 -84.5 26.5s-31.5 41.5 -31.5 71.5c0 23.333 7 44.666 21 63.999s35.333 37.666 64 54.999v498h80v-500c-38 -21.333 -64 -40 -78 -56s-21 -33.667 -21 -53c0 -14.667 5 -26.667 15 -36s24 -14 42 -14c10 0 20.5 1.33301 31.5 4
s20.167 6.33398 27.5 11.001z" />
    <glyph glyph-name="Idotaccent" unicode="&#x130;" horiz-adv-x="296" 
d="M188 0h-80v660h80v-660zM191.5 859.5c11 -11 16.5 -25.5 16.5 -43.5s-5.5 -32.5 -16.5 -43.5s-25.5 -16.5 -43.5 -16.5s-32.5 5.5 -43.5 16.5s-16.5 25.5 -16.5 43.5s5.5 32.5 16.5 43.5s25.5 16.5 43.5 16.5s32.5 -5.5 43.5 -16.5z" />
    <glyph glyph-name="dotlessi" unicode="&#x131;" horiz-adv-x="266" 
d="M173 0h-80v500h80v-500z" />
    <glyph glyph-name="IJ" unicode="&#x132;" horiz-adv-x="862" 
d="M188 0h-80v660h80v-660zM761 226c0 -74 -19.834 -131.832 -59.501 -173.499s-94.5 -62.5 -164.5 -62.5c-63.333 0 -112.333 15.5 -147 46.5s-52 73.833 -52 128.5c0 19.333 1.66699 37 5 53l74 15c-2.66699 -22.667 -4 -38.667 -4 -48
c0 -40.667 9.66699 -70.834 29 -90.501s50 -29.5 92 -29.5c54.667 0 92.834 14.667 114.501 44s32.5 75 32.5 137v414h80v-434z" />
    <glyph glyph-name="ij" unicode="&#x133;" horiz-adv-x="532" 
d="M89.5 612.5c-11 11 -16.5 25.5 -16.5 43.5s5.5 32.5 16.5 43.5s25.5 16.5 43.5 16.5s32.5 -5.5 43.5 -16.5s16.5 -25.5 16.5 -43.5s-5.5 -32.5 -16.5 -43.5s-25.5 -16.5 -43.5 -16.5s-32.5 5.5 -43.5 16.5zM173 0h-80v500h80v-500zM441.5 698.5
c11.667 -11.667 17.5 -25.834 17.5 -42.501s-5.83301 -30.834 -17.5 -42.501s-25.834 -17.5 -42.501 -17.5s-30.834 5.83301 -42.501 17.5s-17.5 25.834 -17.5 42.501s5.83301 30.834 17.5 42.501s25.834 17.5 42.501 17.5s30.834 -5.83301 42.501 -17.5zM439 -51
c0 -56.667 -15.166 -98.167 -45.499 -124.5s-65.833 -39.5 -106.5 -39.5c-20 0 -38.667 3 -56 9s-32 14 -44 24l17 76c23.333 -20.667 50.666 -31 81.999 -31c48.667 0 73 31.333 73 94v543h80v-551z" />
    <glyph glyph-name="uni0136" unicode="&#x136;" horiz-adv-x="656" 
d="M306 332l-118 -120v-212h-80v660h80v-340l332 340h105l-263 -269l266 -391h-96zM338 -237h-63l44 161h84z" />
    <glyph glyph-name="uni0137" unicode="&#x137;" horiz-adv-x="567" 
d="M279 247l-106 -106v-141h-80v730h80v-489l259 259h100l-195 -195l207 -305h-97zM280 -237h-63l44 161h84z" />
    <glyph glyph-name="Lacute" unicode="&#x139;" horiz-adv-x="598" 
d="M171 743h-65l57 148h94zM566 75v-75h-458v660h80v-585h378z" />
    <glyph glyph-name="lacute" unicode="&#x13a;" horiz-adv-x="315" 
d="M218 930l-61 -130h-64l37 130h88zM169 134c0 -25.333 3.83301 -42.833 11.5 -52.5s21.834 -14.5 42.501 -14.5c14 0 26.167 1 36.5 3s22.5 5.66699 36.5 11l-13 -77c-22 -9.33301 -46.667 -14 -74 -14c-40.667 0 -70.834 11 -90.501 33s-29.5 55.667 -29.5 101v606h80
v-596z" />
    <glyph glyph-name="uni013B" unicode="&#x13b;" horiz-adv-x="598" 
d="M566 75v-75h-458v660h80v-585h378zM327 -237h-63l44 161h84z" />
    <glyph glyph-name="uni013C" unicode="&#x13c;" horiz-adv-x="306" 
d="M169 134c0 -25.333 3.83301 -42.833 11.5 -52.5s21.834 -14.5 42.501 -14.5c14 0 26.167 1 36.5 3s22.5 5.66699 36.5 11l-13 -77c-22 -9.33301 -46.667 -14 -74 -14c-40.667 0 -70.834 11 -90.501 33s-29.5 55.667 -29.5 101v606h80v-596zM179 -237h-63l44 161h84z" />
    <glyph glyph-name="Lcaron" unicode="&#x13d;" horiz-adv-x="598" 
d="M335 503h-55l20 197h76zM566 75v-75h-458v660h80v-585h378z" />
    <glyph glyph-name="lcaron" unicode="&#x13e;" horiz-adv-x="315" 
d="M169 134c0 -25.333 3.83301 -42.833 11.5 -52.5s21.834 -14.5 42.501 -14.5c14 0 26.167 1 36.5 3s22.5 5.66699 36.5 11l-13 -77c-22 -9.33301 -46.667 -14 -74 -14c-40.667 0 -70.834 11 -90.501 33s-29.5 55.667 -29.5 101v606h80v-596zM281 533h-55l20 197h76z" />
    <glyph glyph-name="Ldot" unicode="&#x13f;" horiz-adv-x="618" 
d="M566 75v-75h-458v660h80v-585h378zM576 389c12 -12 18 -27.667 18 -47s-6 -35 -18 -47s-27.667 -18 -47 -18s-35 6 -47 18s-18 27.667 -18 47s6 35 18 47s27.667 18 47 18s35 -6 47 -18z" />
    <glyph glyph-name="ldot" unicode="&#x140;" horiz-adv-x="407" 
d="M169 134c0 -25.333 3.83301 -42.833 11.5 -52.5s21.834 -14.5 42.501 -14.5c14 0 26.167 1 36.5 3s22.5 5.66699 36.5 11l-13 -77c-22 -9.33301 -46.667 -14 -74 -14c-40.667 0 -70.834 11 -90.501 33s-29.5 55.667 -29.5 101v606h80v-596zM381 402
c12 -12 18 -27.667 18 -47s-6 -35 -18 -47s-27.667 -18 -47 -18s-35 6 -47 18s-18 27.667 -18 47s6 35 18 47s27.667 18 47 18s35 -6 47 -18z" />
    <glyph glyph-name="Lslash" unicode="&#x141;" horiz-adv-x="628" 
d="M596 75v-75h-458v255l-105 -59v83l105 59v322h80v-278l177 99v-83l-177 -99v-224h378z" />
    <glyph glyph-name="lslash" unicode="&#x142;" horiz-adv-x="372" 
d="M305.5 70c10.333 2 22.5 5.66699 36.5 11l-13 -77c-22 -9.33301 -46.667 -14 -74 -14c-40.667 0 -70.834 11 -90.501 33s-29.5 55.667 -29.5 101v166l-96 -61v83l96 61v357h80v-306l120 76v-83l-120 -76v-207c0 -25.333 3.83301 -42.833 11.5 -52.5
s21.834 -14.5 42.501 -14.5c14 0 26.167 1 36.5 3z" />
    <glyph glyph-name="Nacute" unicode="&#x143;" horiz-adv-x="734" 
d="M480 891l-86 -148h-65l57 148h94zM626 0h-99l-276 442l-70 130h-1l4 -106v-466h-76v660h99l275 -440l71 -132h1l-4 106v466h76v-660z" />
    <glyph glyph-name="nacute" unicode="&#x144;" horiz-adv-x="619" 
d="M476 461c36.667 -32.667 54.998 -79.667 54.998 -141v-320h-80v292c0 52 -11.167 89.667 -33.5 113s-52.166 35 -89.499 35c-26.667 0 -51.667 -5.83301 -75 -17.5s-42.5 -30.667 -57.5 -57s-22.5 -59.5 -22.5 -99.5v-266h-80v500h70l5 -78
c16.667 30 39.667 52.167 69 66.5s62.333 21.5 99 21.5c56.667 0 103.334 -16.333 140.001 -49zM431.998 750l-98 -167h-65l76 167h87z" />
    <glyph glyph-name="uni0145" unicode="&#x145;" horiz-adv-x="734" 
d="M626 0h-99l-276 442l-70 130h-1l4 -106v-466h-76v660h99l275 -440l71 -132h1l-4 106v466h76v-660zM362 -237h-63l44 161h84z" />
    <glyph glyph-name="uni0146" unicode="&#x146;" horiz-adv-x="619" 
d="M476 461c36.667 -32.667 54.998 -79.667 54.998 -141v-320h-80v292c0 52 -11.167 89.667 -33.5 113s-52.166 35 -89.499 35c-26.667 0 -51.667 -5.83301 -75 -17.5s-42.5 -30.667 -57.5 -57s-22.5 -59.5 -22.5 -99.5v-266h-80v500h70l5 -78
c16.667 30 39.667 52.167 69 66.5s62.333 21.5 99 21.5c56.667 0 103.334 -16.333 140.001 -49zM306.998 -237h-63l44 161h84z" />
    <glyph glyph-name="Ncaron" unicode="&#x147;" horiz-adv-x="734" 
d="M416 738h-90l-114 167h73l86 -115l86 115h73zM626 0h-99l-276 442l-70 130h-1l4 -106v-466h-76v660h99l275 -440l71 -132h1l-4 106v466h76v-660z" />
    <glyph glyph-name="ncaron" unicode="&#x148;" horiz-adv-x="619" 
d="M476 461c36.667 -32.667 54.998 -79.667 54.998 -141v-320h-80v292c0 52 -11.167 89.667 -33.5 113s-52.166 35 -89.499 35c-26.667 0 -51.667 -5.83301 -75 -17.5s-42.5 -30.667 -57.5 -57s-22.5 -59.5 -22.5 -99.5v-266h-80v500h70l5 -78
c16.667 30 39.667 52.167 69 66.5s62.333 21.5 99 21.5c56.667 0 103.334 -16.333 140.001 -49zM363.998 583h-92l-112 167h73l85 -111l85 111h73z" />
    <glyph glyph-name="Omacron" unicode="&#x14c;" horiz-adv-x="748" 
d="M536 628.5c46 -27.667 81.5 -67 106.5 -118s37.5 -111.167 37.5 -180.5s-12.5 -129.5 -37.5 -180.5s-60.5 -90.333 -106.5 -118s-100 -41.5 -162 -41.5s-116 13.833 -162 41.5s-81.5 67 -106.5 118s-37.5 111.167 -37.5 180.5s12.5 129.5 37.5 180.5
s60.5 90.333 106.5 118s100 41.5 162 41.5s116 -13.833 162 -41.5zM211.5 524.5c-39.667 -47 -59.5 -111.833 -59.5 -194.5s19.833 -147.5 59.5 -194.5s93.834 -70.5 162.501 -70.5s122.834 23.5 162.501 70.5s59.5 111.833 59.5 194.5s-19.833 147.5 -59.5 194.5
s-93.834 70.5 -162.501 70.5s-122.834 -23.5 -162.501 -70.5zM548 756h-348v67h348v-67z" />
    <glyph glyph-name="omacron" unicode="&#x14d;" horiz-adv-x="608" 
d="M481.5 441c43 -46 64.5 -109.667 64.5 -191s-21.5 -145 -64.5 -191s-102.167 -69 -177.5 -69s-134.5 23 -177.5 69s-64.5 109.667 -64.5 191s21.5 145 64.5 191s102.167 69 177.5 69s134.5 -23 177.5 -69zM185 390c-28.667 -34 -43 -80.667 -43 -140s14.333 -106 43 -140
s68.334 -51 119.001 -51s90.334 17 119.001 51s43 80.667 43 140s-14.333 106 -43 140s-68.334 51 -119.001 51s-90.334 -17 -119.001 -51zM478 596h-348v67h348v-67z" />
    <glyph glyph-name="Ohungarumlaut" unicode="&#x150;" horiz-adv-x="748" 
d="M406 891l-86 -148h-65l57 148h94zM583 891l-86 -148h-65l57 148h94zM536 628.5c46 -27.667 81.5 -67 106.5 -118s37.5 -111.167 37.5 -180.5s-12.5 -129.5 -37.5 -180.5s-60.5 -90.333 -106.5 -118s-100 -41.5 -162 -41.5s-116 13.833 -162 41.5s-81.5 67 -106.5 118
s-37.5 111.167 -37.5 180.5s12.5 129.5 37.5 180.5s60.5 90.333 106.5 118s100 41.5 162 41.5s116 -13.833 162 -41.5zM211.5 524.5c-39.667 -47 -59.5 -111.833 -59.5 -194.5s19.833 -147.5 59.5 -194.5s93.834 -70.5 162.501 -70.5s122.834 23.5 162.501 70.5
s59.5 111.833 59.5 194.5s-19.833 147.5 -59.5 194.5s-93.834 70.5 -162.501 70.5s-122.834 -23.5 -162.501 -70.5z" />
    <glyph glyph-name="ohungarumlaut" unicode="&#x151;" horiz-adv-x="608" 
d="M481.5 441c43 -46 64.5 -109.667 64.5 -191s-21.5 -145 -64.5 -191s-102.167 -69 -177.5 -69s-134.5 23 -177.5 69s-64.5 109.667 -64.5 191s21.5 145 64.5 191s102.167 69 177.5 69s134.5 -23 177.5 -69zM185 390c-28.667 -34 -43 -80.667 -43 -140s14.333 -106 43 -140
s68.334 -51 119.001 -51s90.334 17 119.001 51s43 80.667 43 140s-14.333 106 -43 140s-68.334 51 -119.001 51s-90.334 -17 -119.001 -51zM228 583h-65l76 167h87zM404 583h-65l76 167h87z" />
    <glyph glyph-name="OE" unicode="&#x152;" horiz-adv-x="1080" 
d="M1028 75l0.00390625 -75h-442v99c-24.667 -35.333 -55.334 -62.333 -92.001 -81s-77.334 -28 -122.001 -28c-62 0 -115.833 13.833 -161.5 41.5s-80.834 67 -105.501 118s-37 111.167 -37 180.5s12.167 129.5 36.5 180.5s59.666 90.333 105.999 118
s101.5 41.5 165.5 41.5c44 0 84 -9.16699 120 -27.5s66 -44.833 90 -79.5v97h427v-75h-354v-213h269v-75h-269v-222h369zM485.504 97c31.667 21.333 56.334 51.8311 74.001 91.498s26.5 86.834 26.5 141.501s-8.83301 101.834 -26.5 141.501s-42.334 70.167 -74.001 91.5
s-68.167 32 -109.5 32c-71.333 0 -126.5 -23.333 -165.5 -70s-58.5 -111.667 -58.5 -195s19.5 -148.333 58.5 -195s94.167 -70 165.5 -70c41.333 0 77.833 10.667 109.5 32z" />
    <glyph glyph-name="oe" unicode="&#x153;" horiz-adv-x="989" 
d="M925 220l-376.996 0.000976562c4.66699 -50.667 21.5 -90 50.5 -118s66.5 -42 112.5 -42c36.667 0 67.167 6.33301 91.5 19s40.833 31 49.5 55l67 -35c-20 -35.333 -46.667 -62.333 -80 -81s-76 -28 -128 -28c-46.667 0 -87 9.83301 -121 29.5s-60.667 47.834 -80 84.501
c-18.667 -36.667 -45.334 -64.834 -80.001 -84.501s-75.667 -29.5 -123 -29.5c-76.667 0 -136.667 23 -180 69s-65 109.667 -65 191s21.667 145 65 191s103.333 69 180 69c47.333 0 88.166 -9.66699 122.499 -29s61.166 -47 80.499 -83c17.333 36 42.666 63.667 75.999 83
s73 29 119 29c46.667 0 87 -10.333 121 -31s59.667 -48.667 77 -84s26 -75 26 -119c0 -18.667 -1.33301 -37.334 -4 -56.001zM426.004 110.501c28.667 33.667 43 80.167 43 139.5s-14.333 105.833 -43 139.5s-68.334 50.5 -119.001 50.5s-90.334 -16.833 -119.001 -50.5
s-43 -80.167 -43 -139.5s14.333 -105.833 43 -139.5s68.334 -50.5 119.001 -50.5s90.334 16.833 119.001 50.5zM598.504 401.001c-27 -26 -43.501 -62.667 -49.501 -110h303c-5.33301 46.667 -20.666 83.167 -45.999 109.5s-59 39.5 -101 39.5c-44 0 -79.5 -13 -106.5 -39z
" />
    <glyph glyph-name="Racute" unicode="&#x154;" horiz-adv-x="665" 
d="M345 743h-65l57 148h94zM346 274h-158v-274h-80v660h250c67.333 0 121.333 -17.333 162 -52s61 -81.667 61 -141c0 -46.667 -13 -86 -39 -118s-61.667 -54 -107 -66l186 -283h-95zM188 349h169c93.333 0 140 39.333 140 118s-46.667 118 -140 118h-169v-236z" />
    <glyph glyph-name="racute" unicode="&#x155;" horiz-adv-x="408" 
d="M384 500l-16.001 -78c-16 8.66699 -37 13 -63 13c-21.333 0 -42.166 -6.16699 -62.499 -18.5s-37 -31 -50 -56s-19.5 -55.167 -19.5 -90.5v-270h-80v500h65l11 -82c28 61.333 81.333 92 160 92c24 0 42.333 -3.33301 55 -10zM333.999 750l-98 -167h-65l76 167h87z" />
    <glyph glyph-name="uni0156" unicode="&#x156;" horiz-adv-x="665" 
d="M346 274h-158v-274h-80v660h250c67.333 0 121.333 -17.333 162 -52s61 -81.667 61 -141c0 -46.667 -13 -86 -39 -118s-61.667 -54 -107 -66l186 -283h-95zM188 349h169c93.333 0 140 39.333 140 118s-46.667 118 -140 118h-169v-236zM330 -237h-63l44 161h84z" />
    <glyph glyph-name="uni0157" unicode="&#x157;" horiz-adv-x="408" 
d="M384 500l-16.001 -78c-16 8.66699 -37 13 -63 13c-21.333 0 -42.166 -6.16699 -62.499 -18.5s-37 -31 -50 -56s-19.5 -55.167 -19.5 -90.5v-270h-80v500h65l11 -82c28 61.333 81.333 92 160 92c24 0 42.333 -3.33301 55 -10zM118.999 -237h-63l44 161h84z" />
    <glyph glyph-name="Rcaron" unicode="&#x158;" horiz-adv-x="665" 
d="M277 738l-114 167h73l86 -115l86 115h73l-114 -167h-90zM346 274h-158v-274h-80v660h250c67.333 0 121.333 -17.333 162 -52s61 -81.667 61 -141c0 -46.667 -13 -86 -39 -118s-61.667 -54 -107 -66l186 -283h-95zM188 349h169c93.333 0 140 39.333 140 118
s-46.667 118 -140 118h-169v-236z" />
    <glyph glyph-name="rcaron" unicode="&#x159;" horiz-adv-x="408" 
d="M384 500l-16.001 -78c-16 8.66699 -37 13 -63 13c-21.333 0 -42.166 -6.16699 -62.499 -18.5s-37 -31 -50 -56s-19.5 -55.167 -19.5 -90.5v-270h-80v500h65l11 -82c28 61.333 81.333 92 160 92c24 0 42.333 -3.33301 55 -10zM265.999 583h-92l-112 167h73l85 -111l85 111
h73z" />
    <glyph glyph-name="Sacute" unicode="&#x15a;" horiz-adv-x="641" 
d="M435 891l-86 -148h-65l57 148h94zM575 530l-68.9961 -56c-20 44 -43.833 75.167 -71.5 93.5s-65.5 27.5 -113.5 27.5c-50.667 0 -90.5 -10.5 -119.5 -31.5s-43.5 -47.833 -43.5 -80.5c0 -21.333 5.66699 -39 17 -53s30.166 -26.167 56.499 -36.5
s62.833 -19.5 109.5 -27.5c87.333 -14.667 149.166 -36.667 185.499 -66s54.5 -70 54.5 -122c0 -37.333 -10.5 -70.166 -31.5 -98.499s-50.833 -50.333 -89.5 -66s-83.334 -23.5 -134.001 -23.5c-66.667 0 -123.5 13 -170.5 39s-82.833 60.667 -107.5 104l69 56
c18 -39.333 44.5 -69.833 79.5 -91.5s78.833 -32.5 131.5 -32.5c52 0 93.333 9.5 124 28.5s46 45.833 46 80.5c0 29.333 -13.333 52.666 -40 69.999s-74 32 -142 44c-88 15.333 -150.333 37.333 -187 66s-55 68.667 -55 120c0 35.333 10 68 30 98s48.667 53.833 86 71.5
s80.666 26.5 129.999 26.5c118 0 203 -46.667 255 -140z" />
    <glyph glyph-name="sacute" unicode="&#x15b;" horiz-adv-x="527" 
d="M133 18.5c-38.667 19 -66.9971 47.166 -84.9971 84.499l65 45c11.333 -29.333 31 -51.333 59 -66s61 -22 99 -22c39.333 0 69.333 7 90 21s31 31.667 31 53c0 19.333 -9.66699 34.833 -29 46.5s-53.333 21.834 -102 30.501c-48 8.66699 -86 19.167 -114 31.5
s-48.333 28 -61 47s-19 42.5 -19 70.5c0 27.333 8 52.333 24 75s39 40.834 69 54.501s64.667 20.5 104 20.5c53.333 0 96.166 -9.83301 128.499 -29.5s55.5 -49.834 69.5 -90.501l-68 -40c-10.667 32 -26.834 55 -48.501 69s-48.834 21 -81.501 21
s-60.334 -7.33301 -83.001 -22s-34 -31.667 -34 -51c0 -22 9.83301 -39 29.5 -51s54.834 -22.333 105.501 -31c69.333 -11.333 118.333 -28.333 147 -51s43 -54.667 43 -96c0 -28.667 -8.5 -54.167 -25.5 -76.5s-41.333 -39.833 -73 -52.5s-68.5 -19 -110.5 -19
c-48 0 -91.333 9.5 -130 28.5zM378.003 749.999l-98 -167h-65l76 167h87z" />
    <glyph glyph-name="uni015E" unicode="&#x15e;" horiz-adv-x="641" 
d="M528.5 56c-35 -32.667 -82.498 -53.3291 -142.498 -61.9961c18 -14 31.667 -29.833 41 -47.5s14 -35.834 14 -54.501c0 -29.333 -10.5 -54.5 -31.5 -75.5s-49.167 -31.5 -84.5 -31.5c-47.333 0 -84 11.667 -110 35l30 55c8.66699 -8.66699 19 -15.834 31 -21.501
s24.667 -8.5 38 -8.5c16 0 29.5 5.33301 40.5 16s16.5 24.667 16.5 42c0 18.667 -5.16699 34.5 -15.5 47.5s-29.5 26.5 -57.5 40.5c-59.333 4 -110.166 18.667 -152.499 44s-74.833 58 -97.5 98l69 56c18 -39.333 44.5 -69.833 79.5 -91.5s78.833 -32.5 131.5 -32.5
c52 0 93.333 9.5 124 28.5s46 45.833 46 80.5c0 29.333 -13.333 52.666 -40 69.999s-74 32 -142 44c-88 15.333 -150.333 37.333 -187 66s-55 68.667 -55 120c0 35.333 10 68 30 98s48.667 53.833 86 71.5s80.666 26.5 129.999 26.5c118 0 203 -46.667 255 -140l-69 -56
c-20 44 -43.833 75.167 -71.5 93.5s-65.5 27.5 -113.5 27.5c-50.667 0 -90.5 -10.5 -119.5 -31.5s-43.5 -47.833 -43.5 -80.5c0 -21.333 5.66699 -39 17 -53s30.166 -26.167 56.499 -36.5s62.833 -19.5 109.5 -27.5c87.333 -14.667 149.166 -36.667 185.499 -66
s54.5 -70 54.5 -122c0 -48.667 -17.5 -89.334 -52.5 -122.001z" />
    <glyph glyph-name="uni015F" unicode="&#x15f;" horiz-adv-x="527" 
d="M433 46c-26 -25.333 -61.665 -42.334 -106.998 -51.001c18.667 -13.333 32.834 -29.166 42.501 -47.499s14.5 -36.833 14.5 -55.5c0 -29.333 -10.5 -54.5 -31.5 -75.5s-49.167 -31.5 -84.5 -31.5c-47.333 0 -84 11.667 -110 35l30 55
c8.66699 -8.66699 19 -15.834 31 -21.501s24.667 -8.5 38 -8.5c16 0 29.5 5.33301 40.5 16s16.5 24.667 16.5 42c0 18.667 -5.16699 34.5 -15.5 47.5s-29.5 26.5 -57.5 40.5c-42.667 2.66699 -81.167 13.5 -115.5 32.5s-59.833 45.5 -76.5 79.5l65 45
c11.333 -29.333 31 -51.333 59 -66s61 -22 99 -22c39.333 0 69.333 7 90 21s31 31.667 31 53c0 19.333 -9.66699 34.833 -29 46.5s-53.333 21.834 -102 30.501c-48 8.66699 -86 19.167 -114 31.5s-48.333 28 -61 47s-19 42.5 -19 70.5c0 27.333 8 52.333 24 75
s39 40.834 69 54.501s64.667 20.5 104 20.5c53.333 0 96.166 -9.83301 128.499 -29.5s55.5 -49.834 69.5 -90.501l-68 -40c-10.667 32 -26.834 55 -48.501 69s-48.834 21 -81.501 21s-60.334 -7.33301 -83.001 -22s-34 -31.667 -34 -51c0 -22 9.83301 -39 29.5 -51
s54.834 -22.333 105.501 -31c69.333 -11.333 118.333 -28.333 147 -51s43 -54.667 43 -96c0 -36 -13 -66.667 -39 -92z" />
    <glyph glyph-name="Scaron" unicode="&#x160;" horiz-adv-x="641" 
d="M371 738h-90l-114 167h73l86 -115l86 115h73zM575 530l-68.9961 -56c-20 44 -43.833 75.167 -71.5 93.5s-65.5 27.5 -113.5 27.5c-50.667 0 -90.5 -10.5 -119.5 -31.5s-43.5 -47.833 -43.5 -80.5c0 -21.333 5.66699 -39 17 -53s30.166 -26.167 56.499 -36.5
s62.833 -19.5 109.5 -27.5c87.333 -14.667 149.166 -36.667 185.499 -66s54.5 -70 54.5 -122c0 -37.333 -10.5 -70.166 -31.5 -98.499s-50.833 -50.333 -89.5 -66s-83.334 -23.5 -134.001 -23.5c-66.667 0 -123.5 13 -170.5 39s-82.833 60.667 -107.5 104l69 56
c18 -39.333 44.5 -69.833 79.5 -91.5s78.833 -32.5 131.5 -32.5c52 0 93.333 9.5 124 28.5s46 45.833 46 80.5c0 29.333 -13.333 52.666 -40 69.999s-74 32 -142 44c-88 15.333 -150.333 37.333 -187 66s-55 68.667 -55 120c0 35.333 10 68 30 98s48.667 53.833 86 71.5
s80.666 26.5 129.999 26.5c118 0 203 -46.667 255 -140z" />
    <glyph glyph-name="scaron" unicode="&#x161;" horiz-adv-x="527" 
d="M133 18.5c-38.667 19 -66.9971 47.166 -84.9971 84.499l65 45c11.333 -29.333 31 -51.333 59 -66s61 -22 99 -22c39.333 0 69.333 7 90 21s31 31.667 31 53c0 19.333 -9.66699 34.833 -29 46.5s-53.333 21.834 -102 30.501c-48 8.66699 -86 19.167 -114 31.5
s-48.333 28 -61 47s-19 42.5 -19 70.5c0 27.333 8 52.333 24 75s39 40.834 69 54.501s64.667 20.5 104 20.5c53.333 0 96.166 -9.83301 128.499 -29.5s55.5 -49.834 69.5 -90.501l-68 -40c-10.667 32 -26.834 55 -48.501 69s-48.834 21 -81.501 21
s-60.334 -7.33301 -83.001 -22s-34 -31.667 -34 -51c0 -22 9.83301 -39 29.5 -51s54.834 -22.333 105.501 -31c69.333 -11.333 118.333 -28.333 147 -51s43 -54.667 43 -96c0 -28.667 -8.5 -54.167 -25.5 -76.5s-41.333 -39.833 -73 -52.5s-68.5 -19 -110.5 -19
c-48 0 -91.333 9.5 -130 28.5zM310.003 582.999h-92l-112 167h73l85 -111l85 111h73z" />
    <glyph glyph-name="uni0162" unicode="&#x162;" 
d="M342 585l0.000976562 -575.999c47.333 -32.667 71 -72 71 -118c0 -28.667 -10.833 -53.5 -32.5 -74.5s-49.834 -31.5 -84.501 -31.5c-47.333 0 -84 11.667 -110 35l30 55c8.66699 -8.66699 19 -15.834 31 -21.501s24.667 -8.5 38 -8.5c16 0 29.5 5.33301 40.5 16
s16.5 24.667 16.5 42c0 18 -5.66699 33.5 -17 46.5s-32.333 29.833 -63 50.5v585h-230v75h540v-75h-230z" />
    <glyph glyph-name="uni0163" unicode="&#x163;" horiz-adv-x="439" 
d="M352.5 -54c9 -18 13.5 -36.001 13.5 -54.001c0 -29.333 -10.5 -54.5 -31.5 -75.5s-49.167 -31.5 -84.5 -31.5c-47.333 0 -84 11.667 -110 35l30 55c8.66699 -8.66699 19 -15.834 31 -21.501s24.667 -8.5 38 -8.5c16 0 29.5 5.33301 40.5 16s16.5 24.667 16.5 42
c0 19.333 -5.66699 35.833 -17 49.5s-33 28.834 -65 45.501c-25.333 8.66699 -45.333 23.334 -60 44.001s-22.334 48 -23.001 82v307h-100v69h100v120l80 22v-142h185v-69h-185v-293c0 -24 6.83301 -42.167 20.5 -54.5s31.834 -18.5 54.501 -18.5c32 0 60.333 12.333 85 37
l28 -67c-24.667 -21.333 -53.667 -35 -87 -41c18 -14 31.5 -30 40.5 -48z" />
    <glyph glyph-name="Tcaron" unicode="&#x164;" 
d="M257 738l-114 167h73l86 -115l86 115h73l-114 -167h-90zM572 585h-230v-585h-80v585h-230v75h540v-75z" />
    <glyph glyph-name="tcaron" unicode="&#x165;" horiz-adv-x="419" 
d="M327 570h-55l20 197h76zM399 35c-33.333 -30 -76.332 -45 -128.999 -45c-40.667 0 -73.834 11 -99.501 33s-38.834 55.667 -39.501 101v307h-100v69h100v120l80 22v-142h185v-69h-185v-293c0 -24 6.83301 -42.167 20.5 -54.5s31.834 -18.5 54.501 -18.5
c32 0 60.333 12.333 85 37z" />
    <glyph glyph-name="Umacron" unicode="&#x16a;" horiz-adv-x="720" 
d="M619 246c0 -84.667 -22.167 -148.5 -66.5 -191.5s-108.5 -64.5 -192.5 -64.5s-148.167 21.667 -192.5 65s-66.5 107 -66.5 191v414h80v-394c0 -69.333 14.5 -120.166 43.5 -152.499s74.167 -48.5 135.5 -48.5s106.5 16.167 135.5 48.5s43.5 83.166 43.5 152.499v394h80
v-414zM534 756h-348v67h348v-67z" />
    <glyph glyph-name="umacron" unicode="&#x16b;" horiz-adv-x="619" 
d="M526 500v-500h-70l-5 76c-33.333 -57.333 -93 -86 -179 -86c-54 0 -98.167 15 -132.5 45s-51.5 76 -51.5 138v327h80v-306c0 -48.667 10 -83.167 30 -103.5s49.333 -30.5 88 -30.5c46 0 84.167 14 114.5 42s45.5 70 45.5 126v272h80zM482 596h-348v67h348v-67z" />
    <glyph glyph-name="Uring" unicode="&#x16e;" horiz-adv-x="720" 
d="M619 246c0 -84.667 -22.167 -148.5 -66.5 -191.5s-108.5 -64.5 -192.5 -64.5s-148.167 21.667 -192.5 65s-66.5 107 -66.5 191v414h80v-394c0 -69.333 14.5 -120.166 43.5 -152.499s74.167 -48.5 135.5 -48.5s106.5 16.167 135.5 48.5s43.5 83.166 43.5 152.499v394h80
v-414zM451.5 859.5c23 -21.667 34.5 -50.167 34.5 -85.5s-11.5 -64 -34.5 -86s-53.167 -33 -90.5 -33s-67.666 11 -90.999 33s-35 50.667 -35 86s11.667 63.833 35 85.5s53.666 32.5 90.999 32.5s67.5 -10.833 90.5 -32.5zM310 823.5c-13.333 -13 -20 -29.5 -20 -49.5
s6.66699 -36.5 20 -49.5s30.333 -19.5 51 -19.5s37.667 6.5 51 19.5s20 29.5 20 49.5s-6.66699 36.5 -20 49.5s-30.333 19.5 -51 19.5s-37.667 -6.5 -51 -19.5z" />
    <glyph glyph-name="uring" unicode="&#x16f;" horiz-adv-x="619" 
d="M526 500v-500h-70l-5 76c-33.333 -57.333 -93 -86 -179 -86c-54 0 -98.167 15 -132.5 45s-51.5 76 -51.5 138v327h80v-306c0 -48.667 10 -83.167 30 -103.5s49.333 -30.5 88 -30.5c46 0 84.167 14 114.5 42s45.5 70 45.5 126v272h80zM395.5 779.5
c23 -21.667 34.5 -50.167 34.5 -85.5s-11.5 -64 -34.5 -86s-53.167 -33 -90.5 -33s-67.666 11 -90.999 33s-35 50.667 -35 86s11.667 63.833 35 85.5s53.666 32.5 90.999 32.5s67.5 -10.833 90.5 -32.5zM254 743.5c-13.333 -13 -20 -29.5 -20 -49.5s6.66699 -36.5 20 -49.5
s30.333 -19.5 51 -19.5s37.667 6.5 51 19.5s20 29.5 20 49.5s-6.66699 36.5 -20 49.5s-30.333 19.5 -51 19.5s-37.667 -6.5 -51 -19.5z" />
    <glyph glyph-name="Uhungarumlaut" unicode="&#x170;" horiz-adv-x="720" 
d="M376 893l-86 -148h-65l57 148h94zM548 891l-86 -148h-65l57 148h94zM619 246c0 -84.667 -22.167 -148.5 -66.5 -191.5s-108.5 -64.5 -192.5 -64.5s-148.167 21.667 -192.5 65s-66.5 107 -66.5 191v414h80v-394c0 -69.333 14.5 -120.166 43.5 -152.499
s74.167 -48.5 135.5 -48.5s106.5 16.167 135.5 48.5s43.5 83.166 43.5 152.499v394h80v-414z" />
    <glyph glyph-name="uhungarumlaut" unicode="&#x171;" horiz-adv-x="619" 
d="M526 500v-500h-70l-5 76c-33.333 -57.333 -93 -86 -179 -86c-54 0 -98.167 15 -132.5 45s-51.5 76 -51.5 138v327h80v-306c0 -48.667 10 -83.167 30 -103.5s49.333 -30.5 88 -30.5c46 0 84.167 14 114.5 42s45.5 70 45.5 126v272h80zM232 583h-65l76 167h87zM408 583h-65
l76 167h87z" />
    <glyph glyph-name="Uogonek" unicode="&#x172;" horiz-adv-x="720" 
d="M619 660v-414.001c0 -68.667 -15 -123.834 -45 -165.501s-73.667 -69.167 -131 -82.5c-64.667 -33.333 -97 -67.666 -97 -102.999c0 -16 5.83301 -28.833 17.5 -38.5s27.167 -14.5 46.5 -14.5c24 0 42.333 4 55 12l16 -51c-9.33301 -6 -21.333 -10.5 -36 -13.5
s-29.667 -4.5 -45 -4.5c-36 0 -64.833 9.16699 -86.5 27.5s-32.5 42.166 -32.5 71.499c0 22.667 4.83301 42.334 14.5 59.001s24.167 32.334 43.5 47.001c-77.333 4 -136.333 27.5 -177 70.5s-61 104.833 -61 185.5v414h80v-394c0 -69.333 14.5 -120.166 43.5 -152.499
s74.167 -48.5 135.5 -48.5s106.5 16.167 135.5 48.5s43.5 83.166 43.5 152.499v394h80z" />
    <glyph glyph-name="uogonek" unicode="&#x173;" horiz-adv-x="619" 
d="M537 -195c-9.33301 -6 -21.499 -10.834 -36.499 -14.501s-29.833 -5.5 -44.5 -5.5c-34.667 0 -61 8.33301 -79 25s-27 39.334 -27 68.001s8.66699 53.167 26 73.5s45.333 39.833 84 58.5l-10 80c-20 -31.333 -45.833 -55.833 -77.5 -73.5s-65.167 -26.5 -100.5 -26.5
c-54 0 -98.167 15 -132.5 45s-51.5 76 -51.5 138v327h80v-306c0 -48.667 9.83301 -83.167 29.5 -103.5s47.5 -30.5 83.5 -30.5c28.667 0 55.667 7.16699 81 21.5s45.666 34.833 60.999 61.5s23 57.667 23 93v264h80v-500c-42 -22 -71.5 -41.167 -88.5 -57.5
s-25.5 -33.833 -25.5 -52.5c0 -32 18 -48 54 -48c22.667 0 41 4.33301 55 13z" />
    <glyph glyph-name="Ydieresis" unicode="&#x178;" horiz-adv-x="572" 
d="M326 258v-258h-80v258l-236 402h95l181 -320l181 320h95zM230.5 840.5c10.333 -10.333 15.5 -24.166 15.5 -41.499c0 -16.667 -5.16699 -30.334 -15.5 -41.001s-24.166 -16 -41.499 -16c-16.667 0 -30.334 5.33301 -41.001 16s-16 24.334 -16 41.001
c0 17.333 5.33301 31.166 16 41.499s24.334 15.5 41.001 15.5c17.333 0 31.166 -5.16699 41.499 -15.5zM424.5 840.5c10.333 -10.333 15.5 -24.166 15.5 -41.499c0 -16.667 -5.16699 -30.334 -15.5 -41.001s-24.166 -16 -41.499 -16c-16.667 0 -30.334 5.33301 -41.001 16
s-16 24.334 -16 41.001c0 17.333 5.33301 31.166 16 41.499s24.334 15.5 41.001 15.5c17.333 0 31.166 -5.16699 41.499 -15.5z" />
    <glyph glyph-name="Zacute" unicode="&#x179;" horiz-adv-x="630" 
d="M329 743h-65l57 148h94zM575 75v-75h-519v71l411 514h-401v75h496v-71l-411 -514h424z" />
    <glyph glyph-name="zacute" unicode="&#x17a;" horiz-adv-x="534" 
d="M57 61l262 307l63 65l-89 -2h-233v69h411v-61l-262 -307l-62 -65l97 2h235v-69h-422v61zM366 750l-98 -167h-65l76 167h87z" />
    <glyph glyph-name="Zdotaccent" unicode="&#x17b;" horiz-adv-x="630" 
d="M575 75v-75h-519v71l411 514h-401v75h496v-71l-411 -514h424zM349.5 859.5c11 -11 16.5 -25.5 16.5 -43.5s-5.5 -32.5 -16.5 -43.5s-25.5 -16.5 -43.5 -16.5s-32.5 5.5 -43.5 16.5s-16.5 25.5 -16.5 43.5s5.5 32.5 16.5 43.5s25.5 16.5 43.5 16.5s32.5 -5.5 43.5 -16.5z
" />
    <glyph glyph-name="zdotaccent" unicode="&#x17c;" horiz-adv-x="534" 
d="M57 61l262 307l63 65l-89 -2h-233v69h411v-61l-262 -307l-62 -65l97 2h235v-69h-422v61zM295.5 699.5c11 -11 16.5 -25.5 16.5 -43.5s-5.5 -32.5 -16.5 -43.5s-25.5 -16.5 -43.5 -16.5s-32.5 5.5 -43.5 16.5s-16.5 25.5 -16.5 43.5s5.5 32.5 16.5 43.5
s25.5 16.5 43.5 16.5s32.5 -5.5 43.5 -16.5z" />
    <glyph glyph-name="Zcaron" unicode="&#x17d;" horiz-adv-x="630" 
d="M261 738l-114 167h73l86 -115l86 115h73l-114 -167h-90zM575 75v-75h-519v71l411 514h-401v75h496v-71l-411 -514h424z" />
    <glyph glyph-name="zcaron" unicode="&#x17e;" horiz-adv-x="534" 
d="M57 61l262 307l63 65l-89 -2h-233v69h411v-61l-262 -307l-62 -65l97 2h235v-69h-422v61zM298 583h-92l-112 167h73l85 -111l85 111h73z" />
    <glyph glyph-name="longs" unicode="&#x17f;" horiz-adv-x="260" 
d="M89 584c0 100.667 45 151 135 151c37.333 0 63 -7.66699 77 -23l-16 -65c-12.667 10 -27.667 15 -45 15c-47.333 0 -71 -28.667 -71 -86v-576h-80v584z" />
    <glyph glyph-name="florin" unicode="&#x192;" horiz-adv-x="488" 
d="M340 641c-12.667 -14 -21.334 -35.667 -26.001 -65l-28 -176h148v-69h-159l-49 -308c-16 -100.667 -66 -151 -150 -151c-20 0 -36.333 1.66699 -49 5s-27 9.66602 -43 18.999l12 72c21.333 -15.333 45.666 -23 72.999 -23c21.333 0 38.333 7 51 21
s21.334 35.667 26.001 65l48 300h-140v69h151l29 184c16 100.667 66 151 150 151c20 0 36.333 -1.66699 49 -5s27 -9.66602 43 -18.999l-12 -72c-21.333 15.333 -45.666 23 -72.999 23c-21.333 0 -38.333 -7 -51 -21z" />
    <glyph glyph-name="uni0218" unicode="&#x218;" horiz-adv-x="641" 
d="M575 530l-68.9961 -56c-20 44 -43.833 75.167 -71.5 93.5s-65.5 27.5 -113.5 27.5c-50.667 0 -90.5 -10.5 -119.5 -31.5s-43.5 -47.833 -43.5 -80.5c0 -21.333 5.66699 -39 17 -53s30.166 -26.167 56.499 -36.5s62.833 -19.5 109.5 -27.5
c87.333 -14.667 149.166 -36.667 185.499 -66s54.5 -70 54.5 -122c0 -37.333 -10.5 -70.166 -31.5 -98.499s-50.833 -50.333 -89.5 -66s-83.334 -23.5 -134.001 -23.5c-66.667 0 -123.5 13 -170.5 39s-82.833 60.667 -107.5 104l69 56c18 -39.333 44.5 -69.833 79.5 -91.5
s78.833 -32.5 131.5 -32.5c52 0 93.333 9.5 124 28.5s46 45.833 46 80.5c0 29.333 -13.333 52.666 -40 69.999s-74 32 -142 44c-88 15.333 -150.333 37.333 -187 66s-55 68.667 -55 120c0 35.333 10 68 30 98s48.667 53.833 86 71.5s80.666 26.5 129.999 26.5
c118 0 203 -46.667 255 -140zM324.004 -237h-63l44 161h84z" />
    <glyph glyph-name="uni0219" unicode="&#x219;" horiz-adv-x="527" 
d="M133 18.5c-38.667 19 -66.9971 47.166 -84.9971 84.499l65 45c11.333 -29.333 31 -51.333 59 -66s61 -22 99 -22c39.333 0 69.333 7 90 21s31 31.667 31 53c0 19.333 -9.66699 34.833 -29 46.5s-53.333 21.834 -102 30.501c-48 8.66699 -86 19.167 -114 31.5
s-48.333 28 -61 47s-19 42.5 -19 70.5c0 27.333 8 52.333 24 75s39 40.834 69 54.501s64.667 20.5 104 20.5c53.333 0 96.166 -9.83301 128.499 -29.5s55.5 -49.834 69.5 -90.501l-68 -40c-10.667 32 -26.834 55 -48.501 69s-48.834 21 -81.501 21
s-60.334 -7.33301 -83.001 -22s-34 -31.667 -34 -51c0 -22 9.83301 -39 29.5 -51s54.834 -22.333 105.501 -31c69.333 -11.333 118.333 -28.333 147 -51s43 -54.667 43 -96c0 -28.667 -8.5 -54.167 -25.5 -76.5s-41.333 -39.833 -73 -52.5s-68.5 -19 -110.5 -19
c-48 0 -91.333 9.5 -130 28.5zM244.003 -237.001h-63l44 161h84z" />
    <glyph glyph-name="uni021A" unicode="&#x21a;" 
d="M572 585h-230v-585h-80v585h-230v75h540v-75zM283 -237h-63l44 161h84z" />
    <glyph glyph-name="uni021B" unicode="&#x21b;" horiz-adv-x="419" 
d="M399 35c-33.333 -30 -76.332 -45 -128.999 -45c-40.667 0 -73.834 11 -99.501 33s-38.834 55.667 -39.501 101v307h-100v69h100v120l80 22v-142h185v-69h-185v-293c0 -24 6.83301 -42.167 20.5 -54.5s31.834 -18.5 54.501 -18.5c32 0 60.333 12.333 85 37zM221.001 -237
h-63l44 161h84z" />
    <glyph glyph-name="circumflex" unicode="&#x2c6;" horiz-adv-x="500" 
d="M335 576l-85 111l-85 -111h-73l112 167h92l112 -167h-73z" />
    <glyph glyph-name="caron" unicode="&#x2c7;" horiz-adv-x="500" 
d="M296 583h-92l-112 167h73l85 -111l85 111h73z" />
    <glyph glyph-name="uni02C9" unicode="&#x2c9;" horiz-adv-x="500" 
d="M424 596h-348v67h348v-67z" />
    <glyph glyph-name="breve" unicode="&#x2d8;" horiz-adv-x="500" 
d="M357 618c-27.333 -27.333 -63 -41 -107 -41s-79.667 13.667 -107 41s-41 63 -41 107h66c0 -24 7.83301 -44.667 23.5 -62s35.167 -26 58.5 -26s42.833 8.66699 58.5 26s23.5 38 23.5 62h66c0 -44 -13.667 -79.667 -41 -107z" />
    <glyph glyph-name="dotaccent" unicode="&#x2d9;" horiz-adv-x="500" 
d="M293.5 699.5c11 -11 16.5 -25.5 16.5 -43.5s-5.5 -32.5 -16.5 -43.5s-25.5 -16.5 -43.5 -16.5s-32.5 5.5 -43.5 16.5s-16.5 25.5 -16.5 43.5s5.5 32.5 16.5 43.5s25.5 16.5 43.5 16.5s32.5 -5.5 43.5 -16.5z" />
    <glyph glyph-name="ring" unicode="&#x2da;" horiz-adv-x="500" 
d="M340.5 779.5c23 -21.667 34.5 -50.167 34.5 -85.5s-11.5 -64 -34.5 -86s-53.167 -33 -90.5 -33s-67.666 11 -90.999 33s-35 50.667 -35 86s11.667 63.833 35 85.5s53.666 32.5 90.999 32.5s67.5 -10.833 90.5 -32.5zM199 743.5c-13.333 -13 -20 -29.5 -20 -49.5
s6.66699 -36.5 20 -49.5s30.333 -19.5 51 -19.5s37.667 6.5 51 19.5s20 29.5 20 49.5s-6.66699 36.5 -20 49.5s-30.333 19.5 -51 19.5s-37.667 -6.5 -51 -19.5z" />
    <glyph glyph-name="ogonek" unicode="&#x2db;" horiz-adv-x="500" 
d="M207 -105c0 -16 5.83398 -28.832 17.501 -38.499s27.167 -14.5 46.5 -14.5c24 0 42.333 4 55 12l16 -51c-9.33301 -6 -21.333 -10.5 -36 -13.5s-29.667 -4.5 -45 -4.5c-36 0 -64.833 9.16699 -86.5 27.5s-32.5 42.166 -32.5 71.499c0 35.333 12.167 64.666 36.5 87.999
s63.166 46.333 116.499 69l46 -25c-89.333 -39.333 -134 -79.666 -134 -120.999z" />
    <glyph glyph-name="tilde" unicode="&#x2dc;" horiz-adv-x="500" 
d="M319 583c-19.333 0 -35.3291 3.49805 -47.9961 10.498s-26.334 17.167 -41.001 30.5c-10.667 9.33301 -19.334 16.166 -26.001 20.499s-14.334 6.5 -23.001 6.5c-14 0 -24.667 -5.66699 -32 -17s-13 -28.666 -17 -51.999h-63c3.33301 44.667 14.166 78.167 32.499 100.5
s45.166 33.5 80.499 33.5c18.667 0 34.5 -3.66699 47.5 -11s26.833 -17.666 41.5 -30.999c10 -8.66699 18.5 -15.167 25.5 -19.5s14.167 -6.5 21.5 -6.5c14 0 24.833 5.83301 32.5 17.5s13.5 28.834 17.5 51.501h63c-7.33301 -89.333 -44.666 -134 -111.999 -134z" />
    <glyph glyph-name="hungarumlaut" unicode="&#x2dd;" horiz-adv-x="500" 
d="M147 583h-65l76 167h87zM323 583h-65l76 167h87z" />
    <glyph glyph-name="uni0326" unicode="&#x326;" horiz-adv-x="0" 
d="M-262 -237h-63l44 161h84z" />
    <glyph glyph-name="pi" unicode="&#x3c0;" horiz-adv-x="736" 
d="M543 433v-297c0 -26 8.33301 -44 25 -54s44.667 -15 84 -15l-16 -67c-42.667 -0 -76.5 3.83301 -101.5 11.5s-43.167 20.5 -54.5 38.5s-17 43 -17 75v308h-216v-433h-80v433h-136v67h664v-67h-152z" />
    <glyph glyph-name="uni1E9E" unicode="&#x1e9e;" horiz-adv-x="691" 
d="M595.5 321c37 -32.667 55.5 -78 55.5 -136c0 -38 -8.83301 -71.333 -26.5 -100s-42 -50.834 -73 -66.501s-66.167 -23.5 -105.5 -23.5c-40 0 -75.333 6 -106 18s-52.334 27.333 -65.001 46l34 59c12.667 -15.333 30.667 -27.5 54 -36.5s48.333 -13.5 75 -13.5
c38.667 0 69.834 10.833 93.501 32.5s35.5 49.834 35.5 84.501c0 36 -13.333 64.5 -40 85.5s-63.667 31.5 -111 31.5h-77v68l174 215h-183c-25.333 0 -48.833 -6.16699 -70.5 -18.5s-39 -29.333 -52 -51s-19.5 -46.167 -19.5 -73.5v-442h-80v443
c0 42.667 9.66699 80.5 29 113.5s45.833 58.5 79.5 76.5s71.5 27 113.5 27h278v-76l-183 -214h23c61.333 0 110.5 -16.333 147.5 -49z" />
    <glyph glyph-name="endash" unicode="&#x2013;" horiz-adv-x="664" 
d="M582 224h-500v75h500v-75z" />
    <glyph glyph-name="emdash" unicode="&#x2014;" horiz-adv-x="1014" 
d="M932 224h-850v75h850v-75z" />
    <glyph glyph-name="quoteleft" unicode="&#x2018;" horiz-adv-x="255" 
d="M73 461c-13.333 18 -20.001 41.334 -20.001 70.001c0 35.333 9 68 27 98s45.333 53.667 82 71l42 -39c-26 -8.66699 -47.667 -22.334 -65 -41.001s-28.333 -39 -33 -61l4 -2c6 4.66699 15.333 7 28 7c14 0 26.667 -5.5 38 -16.5s17 -26.5 17 -46.5
c0 -18 -6.33301 -33.667 -19 -47s-28 -20 -46 -20c-23.333 0 -41.666 9 -54.999 27z" />
    <glyph glyph-name="quoteright" unicode="&#x2019;" horiz-adv-x="255" 
d="M186 673c13.333 -18 20.001 -41.334 20.001 -70.001c0 -35.333 -9 -68 -27 -98s-45.333 -53.667 -82 -71l-42 39c26 8.66699 47.667 22.334 65 41.001s28.333 39 33 61l-4 2c-6 -4.66699 -15.333 -7 -28 -7c-14 0 -26.667 5.5 -38 16.5s-17 26.5 -17 46.5
c0 18 6.33301 33.667 19 47s28 20 46 20c23.333 0 41.666 -9 54.999 -27z" />
    <glyph glyph-name="quotesinglbase" unicode="&#x201a;" horiz-adv-x="265" 
d="M186 93c13.333 -18 20.001 -41.334 20.001 -70.001c0 -35.333 -9 -68 -27 -98s-45.333 -53.667 -82 -71l-42 39c26 8.66699 47.667 22.334 65 41.001s28.333 39 33 61l-4 2c-6 -4.66699 -15.333 -7 -28 -7c-14 0 -26.667 5.5 -38 16.5s-17 26.5 -17 46.5
c0 18 6.33301 33.667 19 47s28 20 46 20c23.333 0 41.666 -9 54.999 -27z" />
    <glyph glyph-name="quotedblleft" unicode="&#x201c;" horiz-adv-x="443" 
d="M73 461c-13.333 18 -20.001 41.334 -20.001 70.001c0 35.333 9 68 27 98s45.333 53.667 82 71l42 -39c-26 -8.66699 -47.667 -22.334 -65 -41.001s-28.333 -39 -33 -61l4 -2c6 4.66699 15.333 7 28 7c14 0 26.667 -5.5 38 -16.5s17 -26.5 17 -46.5
c0 -18 -6.33301 -33.667 -19 -47s-28 -20 -46 -20c-23.333 0 -41.666 9 -54.999 27zM260.999 461.001c-13.333 18 -20.001 41.334 -20.001 70.001c0 35.333 9 68 27 98s45.333 53.667 82 71l42 -39c-26 -8.66699 -47.667 -22.334 -65 -41.001s-28.333 -39 -33 -61l4 -2
c6 4.66699 15.333 7 28 7c14 0 26.667 -5.5 38 -16.5s17 -26.5 17 -46.5c0 -18 -6.33301 -33.667 -19 -47s-28 -20 -46 -20c-23.333 0 -41.666 9 -54.999 27z" />
    <glyph glyph-name="quotedblright" unicode="&#x201d;" horiz-adv-x="443" 
d="M186 673c13.333 -18 20.001 -41.334 20.001 -70.001c0 -35.333 -9 -68 -27 -98s-45.333 -53.667 -82 -71l-42 39c26 8.66699 47.667 22.334 65 41.001s28.333 39 33 61l-4 2c-6 -4.66699 -15.333 -7 -28 -7c-14 0 -26.667 5.5 -38 16.5s-17 26.5 -17 46.5
c0 18 6.33301 33.667 19 47s28 20 46 20c23.333 0 41.666 -9 54.999 -27zM374.001 672.999c13.333 -18 20.001 -41.334 20.001 -70.001c0 -35.333 -9 -68 -27 -98s-45.333 -53.667 -82 -71l-42 39c26 8.66699 47.667 22.334 65 41.001s28.333 39 33 61l-4 2
c-6 -4.66699 -15.333 -7 -28 -7c-14 0 -26.667 5.5 -38 16.5s-17 26.5 -17 46.5c0 18 6.33301 33.667 19 47s28 20 46 20c23.333 0 41.666 -9 54.999 -27z" />
    <glyph glyph-name="quotedblbase" unicode="&#x201e;" horiz-adv-x="453" 
d="M186 93c13.333 -18 20.001 -41.334 20.001 -70.001c0 -35.333 -9 -68 -27 -98s-45.333 -53.667 -82 -71l-42 39c26 8.66699 47.667 22.334 65 41.001s28.333 39 33 61l-4 2c-6 -4.66699 -15.333 -7 -28 -7c-14 0 -26.667 5.5 -38 16.5s-17 26.5 -17 46.5
c0 18 6.33301 33.667 19 47s28 20 46 20c23.333 0 41.666 -9 54.999 -27zM374.001 92.999c13.333 -18 20.001 -41.334 20.001 -70.001c0 -35.333 -9 -68 -27 -98s-45.333 -53.667 -82 -71l-42 39c26 8.66699 47.667 22.334 65 41.001s28.333 39 33 61l-4 2
c-6 -4.66699 -15.333 -7 -28 -7c-14 0 -26.667 5.5 -38 16.5s-17 26.5 -17 46.5c0 18 6.33301 33.667 19 47s28 20 46 20c23.333 0 41.666 -9 54.999 -27z" />
    <glyph glyph-name="dagger" unicode="&#x2020;" horiz-adv-x="513" 
d="M474 381h-177v-481h-80v481h-178v69h178v210h80v-210h177v-69z" />
    <glyph glyph-name="daggerdbl" unicode="&#x2021;" horiz-adv-x="513" 
d="M297 381v-202h177v-69h-177v-210h-80v210h-178v69h178v202h-178v69h178v210h80v-210h177v-69h-177z" />
    <glyph glyph-name="bullet" unicode="&#x2022;" horiz-adv-x="430" 
d="M305 424c23.333 -22.667 35 -51.667 35 -87s-11.667 -64.333 -35 -87s-53.333 -34 -90 -34c-36 0 -65.833 11.5 -89.5 34.5s-35.5 51.833 -35.5 86.5s11.833 63.5 35.5 86.5s53.5 34.5 89.5 34.5c36.667 0 66.667 -11.333 90 -34z" />
    <glyph glyph-name="ellipsis" unicode="&#x2026;" horiz-adv-x="860" 
d="M767 102c12 -12 18 -27.667 18 -47s-6 -35 -18 -47s-27.667 -18 -47 -18s-35 6 -47 18s-18 27.667 -18 47s6 35 18 47s27.667 18 47 18s35 -6 47 -18zM477 102c12 -12 18 -27.667 18 -47s-6 -35 -18 -47s-27.667 -18 -47 -18s-35 6 -47 18s-18 27.667 -18 47s6 35 18 47
s27.667 18 47 18s35 -6 47 -18zM187 102c12 -12 18 -27.667 18 -47s-6 -35 -18 -47s-27.667 -18 -47 -18s-35 6 -47 18s-18 27.667 -18 47s6 35 18 47s27.667 18 47 18s35 -6 47 -18z" />
    <glyph glyph-name="perthousand" unicode="&#x2030;" horiz-adv-x="1244" 
d="M315 620.5c28.667 -33 43 -77.167 43 -132.5s-14.333 -99.5 -43 -132.5s-67.334 -49.5 -116.001 -49.5s-87.334 16.5 -116.001 49.5s-43 77.167 -43 132.5s14.333 99.5 43 132.5s67.334 49.5 116.001 49.5s87.334 -16.5 116.001 -49.5zM600 660h76l-420 -660h-76z
M134 576c-15.333 -20.667 -23 -50 -23 -88s7.66699 -67.333 23 -88s37 -31 65 -31s49.667 10.333 65 31s23 50 23 88s-7.66699 67.333 -23 88s-37 31 -65 31s-49.667 -10.333 -65 -31zM773 304.5c28.667 -33 43 -77.167 43 -132.5s-14.333 -99.5 -43 -132.5
s-67.334 -49.5 -116.001 -49.5s-87.334 16.5 -116.001 49.5s-43 77.167 -43 132.5s14.333 99.5 43 132.5s67.334 49.5 116.001 49.5s87.334 -16.5 116.001 -49.5zM1161 304.5c28.667 -33 43 -77.167 43 -132.5s-14.333 -99.5 -43 -132.5s-67.334 -49.5 -116.001 -49.5
s-87.334 16.5 -116.001 49.5s-43 77.167 -43 132.5s14.333 99.5 43 132.5s67.334 49.5 116.001 49.5s87.334 -16.5 116.001 -49.5zM592 260c-15.333 -20.667 -23 -50 -23 -88s7.66699 -67.333 23 -88s37 -31 65 -31s49.667 10.333 65 31s23 50 23 88s-7.66699 67.333 -23 88
s-37 31 -65 31s-49.667 -10.333 -65 -31zM980 260c-15.333 -20.667 -23 -50 -23 -88s7.66699 -67.333 23 -88s37 -31 65 -31s49.667 10.333 65 31s23 50 23 88s-7.66699 67.333 -23 88s-37 31 -65 31s-49.667 -10.333 -65 -31z" />
    <glyph glyph-name="guilsinglleft" unicode="&#x2039;" horiz-adv-x="316" 
d="M136 265l128 -196h-87l-126 196l126 196h87z" />
    <glyph glyph-name="guilsinglright" unicode="&#x203a;" horiz-adv-x="316" 
d="M139 461l126 -196l-126 -196h-87l128 196l-128 196h87z" />
    <glyph glyph-name="fraction" unicode="&#x2044;" horiz-adv-x="248" 
d="M323 660h79l-477 -660h-79z" />
    <glyph glyph-name="uni2070" unicode="&#x2070;" horiz-adv-x="396" 
d="M75.5 378.5c-27.667 34.333 -41.5 85.166 -41.5 152.499s13.833 118.166 41.5 152.499s68.5 51.5 122.5 51.5s94.833 -17.167 122.5 -51.5s41.5 -85.166 41.5 -152.499s-13.833 -118.166 -41.5 -152.499s-68.5 -51.5 -122.5 -51.5s-94.833 17.167 -122.5 51.5zM292 531
c0 98 -31.333 147 -94 147s-94 -49 -94 -147s31.333 -147 94 -147s94 49 94 147z" />
    <glyph glyph-name="uni2074" unicode="&#x2074;" horiz-adv-x="358" 
d="M338 432h-71v-99h-59v99h-199v37l182 261h76v-248h71v-50zM208 482v114c0 26 1 51.333 3 76h-3c-12 -22 -22.667 -40 -32 -54l-99 -136h131z" />
    <glyph glyph-name="uni2075" unicode="&#x2075;" horiz-adv-x="360" 
d="M295 553.5c24 -23.667 36.002 -53.501 36.002 -89.501c0 -43.333 -14 -76.833 -42 -100.5s-64.333 -35.5 -109 -35.5c-38 0 -69.667 6.66699 -95 20s-45 35 -59 65l63 36c10.667 -42 40.334 -63 89.001 -63c25.333 0 45.666 7.16699 60.999 21.5s23 32.833 23 55.5
c0 49.333 -27 74 -81 74c-40.667 0 -68.667 -13 -84 -39h-54l18 232h249v-58h-195l-8 -90c-0.666992 -9.33301 -2.33398 -18.666 -5.00098 -27.999h1c9.33301 11.333 21.166 20 35.499 26s34.833 9 61.5 9c39.333 0 71 -11.833 95 -35.5z" />
    <glyph glyph-name="uni2076" unicode="&#x2076;" horiz-adv-x="376" 
d="M76.5 379.5c-28.333 35 -42.502 85.5 -42.502 151.5c0 65.333 15.833 115.666 47.5 150.999s72.834 53 123.501 53c34 0 61.833 -6.66699 83.5 -20s38.167 -34 49.5 -62l-58 -30c-11.333 36.667 -36.666 55 -75.999 55c-33.333 0 -59 -13.667 -77 -41
s-27 -60.666 -27 -99.999v-13h1c13.333 20 28.333 34.333 45 43s37 13 61 13c42 0 75.5 -11.5 100.5 -34.5s37.5 -53.5 37.5 -91.5c0 -39.333 -13.333 -70.333 -40 -93s-62.667 -34 -108 -34c-52 0 -92.167 17.5 -120.5 52.5zM257.498 401.5
c14.333 12.333 21.5 29.833 21.5 52.5c0 21.333 -7.33301 38.5 -22 51.5s-34.334 19.5 -59.001 19.5c-23.333 0 -42.666 -7.16699 -57.999 -21.5s-23 -30.833 -23 -49.5c0 -21.333 7.33301 -38.5 22 -51.5s34.334 -19.5 59.001 -19.5c25.333 0 45.166 6.16699 59.499 18.5z
" />
    <glyph glyph-name="uni2077" unicode="&#x2077;" horiz-adv-x="312" 
d="M306 730v-57.999c-48 -50 -82.333 -101.833 -103 -155.5s-31 -114.834 -31 -183.501h-70c0 132 45.667 245 137 339h-236v58h303z" />
    <glyph glyph-name="uni2078" unicode="&#x2078;" horiz-adv-x="385" 
d="M296.5 705c25.667 -19.333 38.5 -45.333 38.5 -78c0 -21.333 -6 -39.666 -18 -54.999s-29.333 -26.666 -52 -33.999v-1c27.333 -7.33301 48.333 -19.333 63 -36s22 -37 22 -61c0 -34.667 -14.167 -62.167 -42.5 -82.5s-66.833 -30.5 -115.5 -30.5
c-48 0 -86.333 10.167 -115 30.5s-43 47.833 -43 82.5c0 24 7.5 44.333 22.5 61s35.833 28.667 62.5 36v1c-22 7.33301 -39.167 18.666 -51.5 33.999s-18.5 33.666 -18.5 54.999c0 32.667 12.833 58.667 38.5 78s60.5 29 104.5 29s78.833 -9.66699 104.5 -29zM138 665.5
c-13.333 -10.333 -20 -24.5 -20 -42.5s6.66699 -32.333 20 -43s31.333 -16 54 -16s40.667 5.33301 54 16s20 25 20 43s-6.66699 32.167 -20 42.5s-31.333 15.5 -54 15.5s-40.667 -5.16699 -54 -15.5zM255.5 398.5c15.667 11.667 23.499 27.167 23.499 46.5
c0 20 -7.83301 35.833 -23.5 47.5s-36.834 17.5 -63.501 17.5c-26 0 -47 -5.83301 -63 -17.5s-24 -27.5 -24 -47.5c0 -19.333 7.83301 -34.833 23.5 -46.5s36.834 -17.5 63.501 -17.5s47.834 5.83301 63.501 17.5z" />
    <glyph glyph-name="uni2079" unicode="&#x2079;" horiz-adv-x="381" 
d="M304 681.5c28.667 -35.667 42.9941 -86.167 42.9941 -151.5s-14.5 -115.5 -43.5 -150.5s-69.5 -52.5 -121.5 -52.5c-76 0 -125 28.667 -147 86l66 28c4.66699 -19.333 13.334 -33.833 26.001 -43.5s31.334 -14.5 56.001 -14.5c34 0 58.833 12.667 74.5 38
s23.5 56 23.5 92c0 9.33301 -0.333008 16 -1 20h-1c-5.33301 -13.333 -18.166 -25.5 -38.499 -36.5s-41.166 -16.5 -62.499 -16.5c-45.333 0 -80.666 11.167 -105.999 33.5s-38 52.833 -38 91.5c0 40 13.333 71.667 40 95s63.334 35 110.001 35
c51.333 0 91.333 -17.833 120 -53.5zM124.494 659c-14.333 -12.667 -21.499 -30.332 -21.499 -52.999c0 -22 7.16699 -39.333 21.5 -52s34.166 -19 59.499 -19c24 0 43.833 6.83301 59.5 20.5s23.5 30.5 23.5 50.5c0 21.333 -7.66699 38.666 -23 51.999s-35 20 -59 20
c-26 0 -46.167 -6.33301 -60.5 -19z" />
    <glyph glyph-name="uni207A" unicode="&#x207a;" horiz-adv-x="342" 
d="M315 505h-115v-120h-57v120h-116v49h116v120h57v-120h115v-49z" />
    <glyph glyph-name="uni207B" unicode="&#x207b;" horiz-adv-x="342" 
d="M27 554h288v-49h-288v49z" />
    <glyph glyph-name="uni207C" unicode="&#x207c;" horiz-adv-x="382" 
d="M53 619h276v-53h-276v53zM53 493h276v-53h-276v53z" />
    <glyph glyph-name="uni207D" unicode="&#x207d;" horiz-adv-x="226" 
d="M233 786c-36 -36 -61.667 -73.8311 -77 -113.498s-23 -86.834 -23 -141.501s7.66699 -101.834 23 -141.501s41 -77.5 77 -113.5l-40 -35c-41.333 36 -72.666 78.667 -93.999 128s-32 103.333 -32 162s10.667 112.667 32 162s52.666 92 93.999 128z" />
    <glyph glyph-name="uni207E" unicode="&#x207e;" horiz-adv-x="226" 
d="M127 693c21.333 -49.333 32 -103.335 32 -162.002s-10.667 -112.667 -32 -162s-52.666 -92 -93.999 -128l-40 35c36 36 61.667 73.833 77 113.5s23 86.834 23 141.501s-7.66699 101.834 -23 141.501s-41 77.5 -77 113.5l40 35c41.333 -36 72.666 -78.667 93.999 -128z
" />
    <glyph glyph-name="uni2080" unicode="&#x2080;" horiz-adv-x="396" 
d="M75.5 -143.5c-27.667 34.333 -41.5 85.166 -41.5 152.499s13.833 118.166 41.5 152.499s68.5 51.5 122.5 51.5s94.833 -17.167 122.5 -51.5s41.5 -85.166 41.5 -152.499s-13.833 -118.166 -41.5 -152.499s-68.5 -51.5 -122.5 -51.5s-94.833 17.167 -122.5 51.5zM292 9
c0 98 -31.333 147 -94 147s-94 -49 -94 -147s31.333 -147 94 -147s94 49 94 147z" />
    <glyph glyph-name="uni2081" unicode="&#x2081;" horiz-adv-x="242" 
d="M189 208v-397h-70v251c0 13.333 0.666992 37.333 2 72c-15.333 -14.667 -32.666 -27.167 -51.999 -37.5s-39 -17.166 -59 -20.499v60c19.333 4 41.166 13.167 65.499 27.5s41.5 29.166 51.5 44.499h62z" />
    <glyph glyph-name="uni2082" unicode="&#x2082;" horiz-adv-x="365" 
d="M39 -141c44 30.667 74.666 52.999 91.999 66.999c48 38 80.5 67.833 97.5 89.5s25.5 43.834 25.5 66.501c0 22 -6.66699 39.667 -20 53s-32.333 20 -57 20c-26 0 -46.5 -8.16699 -61.5 -24.5s-23.167 -39.166 -24.5 -68.499l-63 22c2.66699 40 17.667 71.5 45 94.5
s63 34.5 107 34.5c46.667 0 82.834 -12.333 108.501 -37s38.5 -54.667 38.5 -90c0 -29.333 -11.667 -58.833 -35 -88.5s-60 -61.834 -110 -96.501l-52 -35v-1c24 2 45.333 3 64 3h142v-57h-297v48z" />
    <glyph glyph-name="uni2083" unicode="&#x2083;" horiz-adv-x="362" 
d="M282.5 183.5c24.333 -19.667 36.502 -45.832 36.502 -78.499c0 -28 -8.33301 -50.333 -25 -67s-34.667 -25.667 -54 -27v-1c22.667 -0.666992 43 -9.16699 61 -25.5s27 -38.5 27 -66.5c0 -34 -14 -61.333 -42 -82s-64 -31 -108 -31c-82 0 -133.333 32 -154 96l67 30
c4 -23.333 13 -40.5 27 -51.5s33.667 -16.5 59 -16.5c23.333 0 42.166 5.83301 56.499 17.5s21.5 27.5 21.5 47.5c0 37.333 -26 56 -78 56h-24v50h21c23.333 0 41 5.16699 53 15.5s18 25.166 18 44.499c0 20 -5.83301 35.167 -17.5 45.5s-28.5 15.5 -50.5 15.5
c-20.667 0 -37.5 -5 -50.5 -15s-21.5 -25 -25.5 -45l-65 23c8 31.333 25 55 51 71s57.333 24 94 24c43.333 0 77.166 -9.83301 101.499 -29.5z" />
    <glyph glyph-name="uni2084" unicode="&#x2084;" horiz-adv-x="358" 
d="M338 -90h-71v-99h-59v99h-199v37l182 261h76v-248h71v-50zM208 -40v114c0 26 1 51.333 3 76h-3c-12 -22 -22.667 -40 -32 -54l-99 -136h131z" />
    <glyph glyph-name="uni2085" unicode="&#x2085;" horiz-adv-x="360" 
d="M295 31.5c24 -23.667 36.002 -53.501 36.002 -89.501c0 -43.333 -14 -76.833 -42 -100.5s-64.333 -35.5 -109 -35.5c-38 0 -69.667 6.66699 -95 20s-45 35 -59 65l63 36c10.667 -42 40.334 -63 89.001 -63c25.333 0 45.666 7.16699 60.999 21.5s23 32.833 23 55.5
c0 49.333 -27 74 -81 74c-40.667 0 -68.667 -13 -84 -39h-54l18 232h249v-58h-195l-8 -90c-0.666992 -9.33301 -2.33398 -18.666 -5.00098 -27.999h1c9.33301 11.333 21.166 20 35.499 26s34.833 9 61.5 9c39.333 0 71 -11.833 95 -35.5z" />
    <glyph glyph-name="uni2086" unicode="&#x2086;" horiz-adv-x="376" 
d="M76.5 -142.5c-28.333 35 -42.502 85.5 -42.502 151.5c0 65.333 15.833 115.666 47.5 150.999s72.834 53 123.501 53c34 0 61.833 -6.66699 83.5 -20s38.167 -34 49.5 -62l-58 -30c-11.333 36.667 -36.666 55 -75.999 55c-33.333 0 -59 -13.667 -77 -41
s-27 -60.666 -27 -99.999v-13h1c13.333 20 28.333 34.333 45 43s37 13 61 13c42 0 75.5 -11.5 100.5 -34.5s37.5 -53.5 37.5 -91.5c0 -39.333 -13.333 -70.333 -40 -93s-62.667 -34 -108 -34c-52 0 -92.167 17.5 -120.5 52.5zM257.498 -120.5
c14.333 12.333 21.5 29.833 21.5 52.5c0 21.333 -7.33301 38.5 -22 51.5s-34.334 19.5 -59.001 19.5c-23.333 0 -42.666 -7.16699 -57.999 -21.5s-23 -30.833 -23 -49.5c0 -21.333 7.33301 -38.5 22 -51.5s34.334 -19.5 59.001 -19.5c25.333 0 45.166 6.16699 59.499 18.5z
" />
    <glyph glyph-name="uni2087" unicode="&#x2087;" horiz-adv-x="312" 
d="M306 208v-57.999c-48 -50 -82.333 -101.833 -103 -155.5s-31 -114.834 -31 -183.501h-70c0 132 45.667 245 137 339h-236v58h303z" />
    <glyph glyph-name="uni2088" unicode="&#x2088;" horiz-adv-x="385" 
d="M296.5 183c25.667 -19.333 38.5 -45.333 38.5 -78c0 -21.333 -6 -39.666 -18 -54.999s-29.333 -26.666 -52 -33.999v-1c27.333 -7.33301 48.333 -19.333 63 -36s22 -37 22 -61c0 -34.667 -14.167 -62.167 -42.5 -82.5s-66.833 -30.5 -115.5 -30.5
c-48 0 -86.333 10.167 -115 30.5s-43 47.833 -43 82.5c0 24 7.5 44.333 22.5 61s35.833 28.667 62.5 36v1c-22 7.33301 -39.167 18.666 -51.5 33.999s-18.5 33.666 -18.5 54.999c0 32.667 12.833 58.667 38.5 78s60.5 29 104.5 29s78.833 -9.66699 104.5 -29zM138 143.5
c-13.333 -10.333 -20 -24.5 -20 -42.5s6.66699 -32.333 20 -43s31.333 -16 54 -16s40.667 5.33301 54 16s20 25 20 43s-6.66699 32.167 -20 42.5s-31.333 15.5 -54 15.5s-40.667 -5.16699 -54 -15.5zM255.5 -123.5c15.667 11.667 23.499 27.167 23.499 46.5
c0 20 -7.83301 35.833 -23.5 47.5s-36.834 17.5 -63.501 17.5c-26 0 -47 -5.83301 -63 -17.5s-24 -27.5 -24 -47.5c0 -19.333 7.83301 -34.833 23.5 -46.5s36.834 -17.5 63.501 -17.5s47.834 5.83301 63.501 17.5z" />
    <glyph glyph-name="uni2089" unicode="&#x2089;" horiz-adv-x="381" 
d="M304 159.5c28.667 -35.667 42.9941 -86.167 42.9941 -151.5s-14.5 -115.5 -43.5 -150.5s-69.5 -52.5 -121.5 -52.5c-76 0 -125 28.667 -147 86l66 28c4.66699 -19.333 13.334 -33.833 26.001 -43.5s31.334 -14.5 56.001 -14.5c34 0 58.833 12.667 74.5 38
s23.5 56 23.5 92c0 9.33301 -0.333008 16 -1 20h-1c-5.33301 -13.333 -18.166 -25.5 -38.499 -36.5s-41.166 -16.5 -62.499 -16.5c-45.333 0 -80.666 11.167 -105.999 33.5s-38 52.833 -38 91.5c0 40 13.333 71.667 40 95s63.334 35 110.001 35
c51.333 0 91.333 -17.833 120 -53.5zM124.494 137c-14.333 -12.667 -21.499 -30.332 -21.499 -52.999c0 -22 7.16699 -39.333 21.5 -52s34.166 -19 59.499 -19c24 0 43.833 6.83301 59.5 20.5s23.5 30.5 23.5 50.5c0 21.333 -7.66699 38.666 -23 51.999s-35 20 -59 20
c-26 0 -46.167 -6.33301 -60.5 -19z" />
    <glyph glyph-name="uni208A" unicode="&#x208a;" horiz-adv-x="342" 
d="M315 -17h-115v-120h-57v120h-116v49h116v120h57v-120h115v-49z" />
    <glyph glyph-name="uni208B" unicode="&#x208b;" horiz-adv-x="342" 
d="M27 32h288v-49h-288v49z" />
    <glyph glyph-name="uni208C" unicode="&#x208c;" horiz-adv-x="382" 
d="M53 97h276v-53h-276v53zM53 -29h276v-53h-276v53z" />
    <glyph glyph-name="uni208D" unicode="&#x208d;" horiz-adv-x="226" 
d="M233 264c-36 -36 -61.667 -73.8311 -77 -113.498s-23 -86.834 -23 -141.501s7.66699 -101.834 23 -141.501s41 -77.5 77 -113.5l-40 -35c-41.333 36 -72.666 78.667 -93.999 128s-32 103.333 -32 162s10.667 112.667 32 162s52.666 92 93.999 128z" />
    <glyph glyph-name="uni208E" unicode="&#x208e;" horiz-adv-x="226" 
d="M127 171c21.333 -49.333 32 -103.335 32 -162.002s-10.667 -112.667 -32 -162s-52.666 -92 -93.999 -128l-40 35c36 36 61.667 73.833 77 113.5s23 86.834 23 141.501s-7.66699 101.834 -23 141.501s-41 77.5 -77 113.5l40 35c41.333 -36 72.666 -78.667 93.999 -128z
" />
    <glyph glyph-name="Euro" unicode="&#x20ac;" horiz-adv-x="700" 
d="M660 169c-18 -55.333 -49.502 -99 -94.502 -131s-95.5 -48 -151.5 -48c-69.333 0 -126.666 19.667 -171.999 59s-76 94.333 -92 165h-88v65h78c-1.33301 21.333 -2 38.333 -2 51c0 16 0.333008 27.667 1 35h-77v65h85c14 76 44 135 90 177s104.333 63 175 63
c57.333 0 106.5 -13.333 147.5 -40s70.5 -64.667 88.5 -114l-72 -34c-11.333 37.333 -31 66.333 -59 87s-60.667 31 -98 31c-46.667 0 -86.667 -15 -120 -45s-56.666 -71.667 -69.999 -125h238l-20 -65h-228c-0.666992 -7.33301 -1 -19 -1 -35c0 -18 1 -35 3 -51h206
l-20 -65h-174c13.333 -48.667 35.833 -86.5 67.5 -113.5s69.834 -40.5 114.501 -40.5c38.667 0 74.167 12 106.5 36s54.166 57.333 65.499 100z" />
    <glyph glyph-name="uni20BA" unicode="&#x20ba;" horiz-adv-x="650" 
d="M602 268c-3.33301 -90.667 -26.168 -158 -68.501 -202s-104.166 -66 -185.499 -66h-156v262l-129 -37v58l129 37v92l-129 -37v58l129 37v190h75v-168l211 61v-58l-211 -61v-92l211 61v-58l-211 -61v-216h73c62.667 0 109.167 16.333 139.5 49s45.5 83 45.5 151h77z" />
    <glyph glyph-name="uni20BD" unicode="&#x20bd;" horiz-adv-x="645" 
d="M223 261v-70.001h178v-63h-178v-128h-75v128h-95v63h95v70h-95v70h95v329h233c66.667 0 120.334 -18.167 161.001 -54.5s61 -85.166 61 -146.499c0 -60 -20.333 -108 -61 -144s-94.334 -54 -161.001 -54h-158zM223 330.999h146c51.333 0 89.166 10.667 113.499 32
s36.5 53.333 36.5 96s-12.167 74.667 -36.5 96s-62.166 32 -113.499 32h-146v-256z" />
    <glyph glyph-name="uni2113" unicode="&#x2113;" horiz-adv-x="400" 
d="M305 60c12 2 28 5.66699 48 11l-7 -67c-24.667 -9.33301 -52.667 -14 -84 -14c-48 0 -83.333 10.667 -106 32s-34 55.333 -34 102v86c-22.667 -12.667 -47.667 -23.667 -75 -33v67c27.333 9.33301 52.333 21.333 75 36v255c0 90 36 135 108 135
c36.667 0 63.667 -10 81 -30s26 -53.333 26 -100c0 -48 -12.667 -97.5 -38 -148.5s-61 -95.833 -107 -134.5v-123c0 -21.333 6.66699 -39.5 20 -54.5s31.333 -22.5 54 -22.5c14 0 27 1 39 3zM201 591c-6 -10.667 -9 -27.668 -9 -51.001v-201
c26 29.333 45.667 61.833 59 97.5s20 71.834 20 108.501c0 23.333 -3 39.5 -9 48.5s-16 13.5 -30 13.5c-14.667 0 -25 -5.33301 -31 -16z" />
    <glyph glyph-name="trademark" unicode="&#x2122;" horiz-adv-x="838" 
d="M325 606h-100v-276h-70v276h-101v54h271v-54zM747 660v-330h-69v158l7 87h-1l-9 -27l-82 -218h-50l-83 218l-9 27h-1l7 -87v-158h-69v330h88l68 -180l23 -64h2l22 64l69 180h87z" />
    <glyph glyph-name="uni2126" unicode="&#x2126;" horiz-adv-x="774" 
d="M703 68v-68h-259v68c52.667 14 94 43.667 124 89s45 103 45 173c0 54.667 -9.33301 102 -28 142s-45 70.5 -79 91.5s-73.667 31.5 -119 31.5s-85 -10.5 -119 -31.5s-60.333 -51.5 -79 -91.5s-28 -87.333 -28 -142c0 -70 15 -127.667 45 -173s71.333 -75 124 -89v-68h-259
v68h146c-44 27.333 -77.667 63.333 -101 108s-35 96 -35 154c0 69.333 12.5 129.5 37.5 180.5s60.5 90.333 106.5 118s100 41.5 162 41.5s116 -13.833 162 -41.5s81.5 -67 106.5 -118s37.5 -111.167 37.5 -180.5c0 -58 -11.667 -109.333 -35 -154s-57 -80.667 -101 -108h146
z" />
    <glyph glyph-name="estimated" unicode="&#x212e;" horiz-adv-x="805" 
d="M658 575c59.333 -63.333 89.001 -154.668 89.001 -274.001h-546v-169c26.667 -28 59.167 -49.5 97.5 -64.5s81.5 -22.5 129.5 -22.5c60 0 113.833 13.167 161.5 39.5s89.5 67.5 125.5 123.5v-77c-29.333 -47.333 -68.5 -82.666 -117.5 -105.999s-105.5 -35 -169.5 -35
c-74.667 0 -139 14 -193 42s-95.333 67.5 -124 118.5s-43 110.833 -43 179.5c0 68 14 127.667 42 179s67.667 91 119 119s111 42 179 42c107.333 0 190.666 -31.667 249.999 -95zM292.001 592.998c-35.333 -14.667 -65.668 -35.667 -91.001 -63v-171h414v171
c-25.333 27.333 -55.666 48.333 -90.999 63s-74 22 -116 22s-80.667 -7.33301 -116 -22z" />
    <glyph glyph-name="arrowleft" unicode="&#x2190;" horiz-adv-x="750" 
d="M346 291c-55.333 0 -113 2.66699 -173 8c71.333 -51.333 144.666 -134 219.999 -248l-63 -52c-46.667 76.667 -92.834 140.167 -138.501 190.5s-97.834 96.5 -156.501 138.5v6c58.667 42 110.834 88.167 156.501 138.5s91.834 113.833 138.501 190.5l63 -52
c-75.333 -114 -148.666 -196.667 -219.999 -248c60 5.33301 117.667 8 173 8h355v-80h-355z" />
    <glyph glyph-name="arrowup" unicode="&#x2191;" horiz-adv-x="750" 
d="M515.5 509.5c50.333 -45.667 113.833 -91.834 190.5 -138.501l-52 -63c-114 75.333 -196.667 148.666 -248 219.999c5.33301 -60 8 -117.667 8 -173v-355h-80v355c0 55.333 2.66699 113 8 173c-51.333 -71.333 -134 -144.666 -248 -219.999l-52 63
c76.667 46.667 140.167 92.834 190.5 138.501s96.5 97.834 138.5 156.501h6c42 -58.667 88.167 -110.834 138.5 -156.501z" />
    <glyph glyph-name="arrowright" unicode="&#x2192;" horiz-adv-x="750" 
d="M558.5 472.5c45.667 -50.333 97.834 -96.5 156.501 -138.5v-6c-58.667 -42 -110.834 -88.167 -156.501 -138.5s-91.834 -113.833 -138.501 -190.5l-63 52c75.333 114 148.666 196.667 219.999 248c-60 -5.33301 -117.667 -8 -173 -8h-355v80h355
c55.333 0 113 -2.66699 173 -8c-71.333 51.333 -144.666 134 -219.999 248l63 52c46.667 -76.667 92.834 -140.167 138.501 -190.5z" />
    <glyph glyph-name="arrowdown" unicode="&#x2193;" horiz-adv-x="750" 
d="M708 289c-76.667 -46.667 -140.167 -92.834 -190.5 -138.501s-96.5 -97.834 -138.5 -156.501h-6c-42 58.667 -88.167 110.834 -138.5 156.501s-113.833 91.834 -190.5 138.501l52 63c114 -75.333 196.667 -148.666 248 -219.999c-5.33301 60 -8 117.667 -8 173v355h80
v-355c0 -55.333 -2.66699 -113 -8 -173c51.333 71.333 134 144.666 248 219.999z" />
    <glyph glyph-name="arrowboth" unicode="&#x2194;" horiz-adv-x="1062" 
d="M870.5 490.5c45.667 -50.333 97.834 -96.5 156.501 -138.5v-6c-58.667 -42 -110.834 -88.167 -156.501 -138.5s-91.834 -113.833 -138.501 -190.5l-70 42c79.333 120 155 205.667 227 257c-42 -4.66699 -86.333 -7 -133 -7h-450c-46.667 0 -91 2.33301 -133 7
c72 -51.333 147.667 -137 227 -257l-70 -42c-46.667 76.667 -92.834 140.167 -138.501 190.5s-97.834 96.5 -156.501 138.5v6c58.667 42 110.834 88.167 156.501 138.5s91.834 113.833 138.501 190.5l70 -42c-79.333 -120 -155 -205.667 -227 -257
c42 4.66699 86.333 7 133 7h450c46.667 0 91 -2.33301 133 -7c-72 51.333 -147.667 137 -227 257l70 42c46.667 -76.667 92.834 -140.167 138.501 -190.5z" />
    <glyph glyph-name="arrowupdn" unicode="&#x2195;" horiz-adv-x="750" 
d="M664 199l42 -70c-76.667 -46.667 -140.167 -92.834 -190.5 -138.501s-96.5 -97.834 -138.5 -156.501h-6c-42 58.667 -88.167 110.834 -138.5 156.501s-113.833 91.834 -190.5 138.501l42 70c120 -79.333 205.667 -155 257 -227c-4.66699 42 -7 86.333 -7 133v450
c0 46.667 2.33301 91 7 133c-51.333 -72 -137 -147.667 -257 -227l-42 70c76.667 46.667 140.167 92.834 190.5 138.501s96.5 97.834 138.5 156.501h6c42 -58.667 88.167 -110.834 138.5 -156.501s113.833 -91.834 190.5 -138.501l-42 -70
c-120 79.333 -205.667 155 -257 227c4.66699 -42 7 -86.333 7 -133v-450c0 -46.667 -2.33301 -91 -7 -133c51.333 72 137 147.667 257 227z" />
    <glyph glyph-name="uni2196" unicode="&#x2196;" horiz-adv-x="750" 
d="M626 145l-56 -56l-251 251c-33.333 32.667 -72 74.667 -116 126c12 -58.667 18 -124.667 18 -198c0 -57.333 -4 -111 -12 -161l-78 8c11.333 66 17 134.667 17 206c0 78.667 -7.66699 166.667 -23 264l5 5c97.333 -15.333 185.333 -23 264 -23
c71.333 0 140 5.66699 206 17l8 -78c-50 -8 -103.667 -12 -161 -12c-72.667 0 -138.667 6 -198 18c51.333 -44 93.333 -82.667 126 -116z" />
    <glyph glyph-name="uni2197" unicode="&#x2197;" horiz-adv-x="750" 
d="M602 321c0 -71.333 5.66699 -140 17 -206l-78 -8c-8 50 -12 103.667 -12 161c0 73.333 6 139.333 18 198c-44 -51.333 -82.667 -93.333 -116 -126l-251 -251l-56 56l251 251c32.667 33.333 74.667 72 126 116c-59.333 -12 -125.333 -18 -198 -18
c-57.333 0 -111 4 -161 12l8 78c66 -11.333 134.667 -17 206 -17c78.667 0 166.667 7.66699 264 23l5 -5c-15.333 -97.333 -23 -185.333 -23 -264z" />
    <glyph glyph-name="uni2198" unicode="&#x2198;" horiz-adv-x="750" 
d="M593 369c0 -78.667 7.66699 -166.667 23 -264l-5 -5c-97.333 15.333 -185.333 23 -264 23c-71.333 0 -140 -5.66699 -206 -17l-8 78c50 8 103.667 12 161 12c72.667 0 138.667 -6 198 -18c-51.333 44 -93.333 82.667 -126 116l-251 251l56 56l251 -251
c33.333 -32.667 72 -74.667 116 -126c-12 59.333 -18 125.333 -18 198c0 57.333 4 111 12 161l78 -8c-11.333 -66 -17 -134.667 -17 -206z" />
    <glyph glyph-name="uni2199" unicode="&#x2199;" horiz-adv-x="750" 
d="M456 196c57.333 0 111 -4 161 -12l-8 -78c-66 11.333 -134.667 17 -206 17c-78.667 0 -166.667 -7.66699 -264 -23l-5 5c15.333 97.333 23 185.333 23 264c0 71.333 -5.66699 140 -17 206l78 8c8 -50 12 -103.667 12 -161c0 -72.667 -6 -138.667 -18 -198
c44 51.333 82.667 93.333 116 126l251 251l56 -56l-251 -251c-32.667 -33.333 -74.667 -72 -126 -116c59.333 12 125.333 18 198 18z" />
    <glyph glyph-name="partialdiff" unicode="&#x2202;" horiz-adv-x="620" 
d="M548 330c0 -110.667 -21.835 -195.001 -65.502 -253.001s-107.167 -87 -190.5 -87c-45.333 0 -85.166 9.5 -119.499 28.5s-60.833 45.5 -79.5 79.5s-28 72.667 -28 116s9.66699 82 29 116s45.833 60.5 79.5 79.5s71.834 28.5 114.501 28.5
c38.667 0 74.167 -8.16699 106.5 -24.5s58.833 -39.166 79.5 -68.499c-2 90 -19 155.333 -51 196s-79.667 61 -143 61c-29.333 0 -54.166 -4.66699 -74.499 -14s-41.5 -25 -63.5 -47l-41 59c53.333 46.667 113.666 70 180.999 70c177.333 0 266 -113.333 266 -340z
M409.498 107.499c29.667 30.333 49.167 74.834 58.5 133.501c-13.333 39.333 -35 70.166 -65 92.499s-68.667 33.5 -116 33.5c-45.333 0 -80.333 -13.5 -105 -40.5s-37 -64.167 -37 -111.5c0 -48 12.667 -85.5 38 -112.5s61.666 -40.5 108.999 -40.5
c48.667 0 87.834 15.167 117.501 45.5z" />
    <glyph glyph-name="uni2206" unicode="&#x2206;" horiz-adv-x="699" 
d="M659 67v-67h-619v67l262 593h95zM113 67h473l-237 532z" />
    <glyph glyph-name="product" unicode="&#x220f;" horiz-adv-x="700" 
d="M609 -128h-80v713h-358v-713h-80v788h518v-788z" />
    <glyph glyph-name="summation" unicode="&#x2211;" horiz-adv-x="637" 
d="M574 585h-411l322 -310v-14l-323 -314h412v-75h-516v75l327 321l-327 317v75h516v-75z" />
    <glyph glyph-name="minus" unicode="&#x2212;" 
d="M545 279h-486v75h486v-75z" />
    <glyph glyph-name="uni2215" unicode="&#x2215;" horiz-adv-x="248" 
d="M323 660h79l-477 -660h-79z" />
    <glyph glyph-name="uni2219" unicode="&#x2219;" horiz-adv-x="226" 
d="M160 388c12 -12 18 -27.667 18 -47s-6 -35 -18 -47s-27.667 -18 -47 -18s-35 6 -47 18s-18 27.667 -18 47s6 35 18 47s27.667 18 47 18s35 -6 47 -18z" />
    <glyph glyph-name="radical" unicode="&#x221a;" horiz-adv-x="672" 
d="M672 818l-324 -818h-79l-145 354h-104v75h149l114 -273l27 -82l27 85l257 659h78z" />
    <glyph glyph-name="infinity" unicode="&#x221e;" horiz-adv-x="886" 
d="M733 476c25.333 -16 45.332 -39.168 59.999 -69.501s22 -65.833 22 -106.5s-7.33301 -76.167 -22 -106.5s-34.667 -53.5 -60 -69.5s-53 -24 -83 -24c-34.667 0 -67 10.833 -97 32.5s-68.333 58.834 -115 111.501c-36.667 -43.333 -65.5 -75 -86.5 -95
s-39.667 -33.167 -56 -39.5s-36.166 -9.5 -59.499 -9.5c-30 0 -57.667 8 -83 24s-45.333 39.167 -60 69.5s-22 65.833 -22 106.5s7.33301 76.167 22 106.5s34.667 53.5 60 69.5s53 24 83 24c36 0 69.333 -10.833 100 -32.5s67.667 -58.167 111 -109.5
c37.333 43.333 67.333 75 90 95s41.667 32.833 57 38.5s34 8.5 56 8.5c30 0 57.667 -8 83 -24zM712.499 215.499c16.333 23.667 24.502 55.168 24.502 94.501c0 40 -8.33301 71.667 -25 95s-36.667 35 -60 35c-16 0 -29.667 -3 -41 -9s-25.5 -17.667 -42.5 -35
s-43.167 -47.333 -78.5 -90c37.333 -44.667 68.666 -76.834 93.999 -96.501s48.333 -29.5 69 -29.5c23.333 0 43.166 11.833 59.499 35.5zM275.501 169.5c11.667 6.33301 25.167 17.834 40.5 34.501s41.333 46.667 78 90c-44 49.333 -76.333 82.666 -97 99.999
s-41.667 26 -63 26c-23.333 0 -43.333 -11.667 -60 -35s-25 -55 -25 -95s8.33301 -71.667 25 -95s36.667 -35 60 -35c16 0 29.833 3.16699 41.5 9.5z" />
    <glyph glyph-name="integral" unicode="&#x222b;" horiz-adv-x="459" 
d="M393 752.5c12 -3.66699 25 -9.83398 39 -18.501l-12 -72c-21.333 15.333 -45.666 23 -72.999 23c-22 0 -40.333 -7.16699 -55 -21.5s-22 -35.833 -22 -64.5v-576c0 -45.333 -13.5 -81.833 -40.5 -109.5s-63.5 -41.5 -109.5 -41.5c-23.333 0 -41 1.83301 -53 5.5
s-25 9.83398 -39 18.501l12 72c21.333 -15.333 45.666 -23 72.999 -23c22 0 40.333 7.16699 55 21.5s22 35.833 22 64.5v576c0 45.333 13.5 81.833 40.5 109.5s63.5 41.5 109.5 41.5c23.333 0 41 -1.83301 53 -5.5z" />
    <glyph glyph-name="approxequal" unicode="&#x2248;" 
d="M247 485.5c18 -6.33301 40 -15.499 66 -27.499c22.667 -10.667 41.834 -18.834 57.501 -24.501s31.167 -8.5 46.5 -8.5c24 0 45.833 4 65.5 12s40.5 22.333 62.5 43v-73c-20 -18.667 -40.333 -32.5 -61 -41.5s-43.334 -13.5 -68.001 -13.5c-18 0 -35.5 3 -52.5 9
s-37.833 15 -62.5 27c-26 12 -46.667 20.667 -62 26s-31.333 8 -48 8c-28.667 0 -52.667 -4.16699 -72 -12.5s-39.333 -22.5 -60 -42.5v73c22 20 42.5 34.167 61.5 42.5s42.5 12.5 70.5 12.5c19.333 0 38 -3.16699 56 -9.5zM247 285.501c18 -6.33301 40 -15.499 66 -27.499
c22.667 -10.667 41.834 -18.834 57.501 -24.501s31.167 -8.5 46.5 -8.5c24 0 45.833 4 65.5 12s40.5 22.333 62.5 43v-73c-20 -18.667 -40.333 -32.5 -61 -41.5s-43.334 -13.5 -68.001 -13.5c-18 0 -35.5 3 -52.5 9s-37.833 15 -62.5 27c-26 12 -46.667 20.667 -62 26
s-31.333 8 -48 8c-28.667 0 -52.667 -4.16699 -72 -12.5s-39.333 -22.5 -60 -42.5v73c22 20 42.5 34.167 61.5 42.5s42.5 12.5 70.5 12.5c19.333 0 38 -3.16699 56 -9.5z" />
    <glyph glyph-name="notequal" unicode="&#x2260;" 
d="M376 371l-68 -135h232v-70h-267l-51 -102h-79l51 102h-130v70h165l68 135h-233v70h268l51 102h79l-51 -102h129v-70h-164z" />
    <glyph glyph-name="lessequal" unicode="&#x2264;" 
d="M550 548l-418 -168l418 -169v-85l-481 204v99l481 204v-85zM69 75h481v-75h-481v75z" />
    <glyph glyph-name="greaterequal" unicode="&#x2265;" 
d="M535 429v-99l-481 -204v85l418 169l-418 168v85zM54 75h481v-75h-481v75z" />
    <glyph glyph-name="uni25AA" unicode="&#x25aa;" horiz-adv-x="600" 
d="M550 500v-500h-500v500h500z" />
    <glyph glyph-name="uni25AB" unicode="&#x25ab;" horiz-adv-x="600" 
d="M50 500h500v-500h-500v500zM470 69v362h-340v-362h340z" />
    <glyph glyph-name="uni25C6" unicode="&#x25c6;" horiz-adv-x="600" 
d="M35 259l265 265l265 -265l-265 -265z" />
    <glyph glyph-name="uni25C7" unicode="&#x25c7;" horiz-adv-x="600" 
d="M35 259l265 265l265 -265l-265 -265zM452 259l-152 152l-152 -152l152 -152z" />
    <glyph glyph-name="lozenge" unicode="&#x25ca;" horiz-adv-x="587" 
d="M540 330l-199 -330h-95l-198 330l198 330h95zM449 330l-155 272l-155 -272l155 -272z" />
    <glyph glyph-name="circle" unicode="&#x25cb;" horiz-adv-x="600" 
d="M167.5 24c-39.667 22.667 -70.834 53.834 -93.501 93.501s-34 83.834 -34 132.501s11.333 92.834 34 132.501s53.834 70.834 93.501 93.501s83.834 34 132.501 34s92.834 -11.333 132.501 -34s70.834 -53.834 93.501 -93.501s34 -83.834 34 -132.501
s-11.333 -92.834 -34 -132.501s-53.834 -70.834 -93.501 -93.501s-83.834 -34 -132.501 -34s-92.834 11.333 -132.501 34zM392 89.5c27.333 16.333 48.833 38.5 64.5 66.5s23.5 59.333 23.5 94s-7.83301 66 -23.5 94s-37.167 50.167 -64.5 66.5s-58 24.5 -92 24.5
s-64.667 -8.16699 -92 -24.5s-48.833 -38.5 -64.5 -66.5s-23.5 -59.333 -23.5 -94s7.83301 -66 23.5 -94s37.167 -50.167 64.5 -66.5s58 -24.5 92 -24.5s64.667 8.16699 92 24.5z" />
    <glyph glyph-name="uni25CF" unicode="&#x25cf;" horiz-adv-x="600" 
d="M167.5 24c-39.667 22.667 -70.834 53.834 -93.501 93.501s-34 83.834 -34 132.501s11.333 92.834 34 132.501s53.834 70.834 93.501 93.501s83.834 34 132.501 34s92.834 -11.333 132.501 -34s70.834 -53.834 93.501 -93.501s34 -83.834 34 -132.501
s-11.333 -92.834 -34 -132.501s-53.834 -70.834 -93.501 -93.501s-83.834 -34 -132.501 -34s-92.834 11.333 -132.501 34z" />
    <glyph glyph-name="uni275B" unicode="&#x275b;" horiz-adv-x="730" 
d="M630 600c-127.333 0 -226.001 -15.335 -296.001 -46.002s-124.333 -76.334 -163 -137.001l7 -5c27.333 20.667 55.5 35.5 84.5 44.5s67.167 13.5 114.5 13.5c88.667 0 157.834 -21.167 207.501 -63.5s74.5 -101.166 74.5 -176.499s-25 -134.166 -75 -176.499
s-119.333 -63.5 -208 -63.5c-108.667 0 -187.167 24.833 -235.5 74.5s-72.5 121.834 -72.5 216.501c0 120 41.667 214 125 282s213.333 102 390 102z" />
    <glyph glyph-name="uni275C" unicode="&#x275c;" horiz-adv-x="730" 
d="M100 -70c127.333 0 226.001 15.335 296.001 46.002s124.333 76.334 163 137.001l-7 5c-27.333 -20.667 -55.5 -35.5 -84.5 -44.5s-67.167 -13.5 -114.5 -13.5c-88.667 0 -157.834 21.167 -207.501 63.5s-74.5 101.166 -74.5 176.499s25 134.166 75 176.499
s119.333 63.5 208 63.5c108.667 0 187.167 -24.833 235.5 -74.5s72.5 -121.834 72.5 -216.501c0 -120 -41.667 -214 -125 -282s-213.333 -102 -390 -102z" />
    <glyph glyph-name="uni275D" unicode="&#x275d;" horiz-adv-x="1258" 
d="M1112.5 406.5c49.667 -42.333 74.499 -101.167 74.499 -176.5s-25 -134.166 -75 -176.499s-119.333 -63.5 -208 -63.5c-136 0 -226.667 41 -272 123c-21.333 -40 -53.833 -70.5 -97.5 -91.5s-96.5 -31.5 -158.5 -31.5c-108.667 0 -187.167 24.833 -235.5 74.5
s-72.5 121.834 -72.5 216.501c0 120 41.667 214 125 282s213.333 102 390 102l47 -65c-127.333 0 -226 -15.333 -296 -46s-124.333 -76.334 -163 -137.001l7 -5c27.333 20.667 55.5 35.5 84.5 44.5s67.167 13.5 114.5 13.5c51.333 0 96.5 -7.33301 135.5 -22
s70.5 -36 94.5 -64c21.333 89.333 73.333 158.5 156 207.5s198.667 73.5 348 73.5l47 -65c-127.333 0 -226 -15.333 -296 -46s-124.333 -76.334 -163 -137.001l7 -5c27.333 20.667 55.5 35.5 84.5 44.5s67.167 13.5 114.5 13.5c88.667 0 157.834 -21.167 207.501 -63.5z" />
    <glyph glyph-name="uni275E" unicode="&#x275e;" horiz-adv-x="1258" 
d="M1117.5 465.5c48.333 -49.667 72.501 -121.833 72.501 -216.5c0 -120 -41.667 -214 -125 -282s-213.333 -102 -390 -102l-47 65c127.333 0 226 15.333 296 46s124.333 76.334 163 137.001l-7 5c-27.333 -20.667 -55.5 -35.5 -84.5 -44.5s-67.167 -13.5 -114.5 -13.5
c-51.333 0 -96.5 7.33301 -135.5 22s-70.5 36 -94.5 64c-21.333 -89.333 -73.333 -158.5 -156 -207.5s-198.667 -73.5 -348 -73.5l-47 65c127.333 0 226 15.333 296 46s124.333 76.334 163 137.001l-7 5c-27.333 -20.667 -55.5 -35.5 -84.5 -44.5
s-67.167 -13.5 -114.5 -13.5c-88.667 0 -157.834 21.167 -207.501 63.5s-74.5 101.166 -74.5 176.499s25 134.166 75 176.499s119.333 63.5 208 63.5c136 0 226.667 -41 272 -123c21.333 40 53.833 70.5 97.5 91.5s96.5 31.5 158.5 31.5
c108.667 0 187.167 -24.833 235.5 -74.5z" />
    <glyph glyph-name="uni2761" unicode="&#x2761;" horiz-adv-x="637" 
d="M566 62c0 -80.667 -22.9971 -146.997 -68.9971 -198.997s-124.333 -78 -235 -78c-52 0 -96 13 -132 39s-54 61.333 -54 106c0 14 2.66699 30.667 8 50l56 12c-4 -16 -6 -30.333 -6 -43c0 -32.667 9.83301 -58.334 29.5 -77.001s44.167 -28 73.5 -28
c38.667 0 66.5 12 83.5 36s25.5 58.333 25.5 103v238h-50c-46.667 0 -87.834 9.16699 -123.501 27.5s-63.334 44 -83.001 77s-29.5 71.167 -29.5 114.5s10.667 81.666 32 114.999s51.166 59.166 89.499 77.499s82.833 27.5 133.5 27.5h251v-598zM409.003 593.003v-637
c0 -20 -4.5 -40.833 -13.5 -62.5s-20.167 -36.834 -33.5 -45.501l3 -4c43.333 16.667 76 43.334 98 80.001s33 78.667 33 126v543h-87z" />
    <glyph glyph-name="uni2780" unicode="&#x2780;" horiz-adv-x="910" 
d="M259 6.5c-56.667 31 -100.5 74.5 -131.5 130.5s-46.5 120.333 -46.5 193s15.5 137 46.5 193s74.833 99.5 131.5 130.5s122 46.5 196 46.5s139.333 -15.5 196 -46.5s100.5 -74.5 131.5 -130.5s46.5 -120.333 46.5 -193s-15.5 -137 -46.5 -193s-74.833 -99.5 -131.5 -130.5
s-122 -46.5 -196 -46.5s-139.333 15.5 -196 46.5zM615.5 59c46.333 26 82.5 62.5 108.5 109.5s39 100.833 39 161.5s-13 114.5 -39 161.5s-62.167 83.5 -108.5 109.5s-99.833 39 -160.5 39s-114.167 -13 -160.5 -39s-82.5 -62.5 -108.5 -109.5s-39 -100.833 -39 -161.5
s13 -114.5 39 -161.5s62.167 -83.5 108.5 -109.5s99.833 -39 160.5 -39s114.167 13 160.5 39zM511 533v-397h-70v251c0 13.333 0.666992 37.333 2 72c-15.333 -14.667 -32.666 -27.167 -51.999 -37.5s-39 -17.166 -59 -20.499v60c19.333 4 41.166 13.167 65.499 27.5
s41.5 29.166 51.5 44.499h62z" />
    <glyph glyph-name="uni2781" unicode="&#x2781;" horiz-adv-x="910" 
d="M259 6.5c-56.667 31 -100.5 74.5 -131.5 130.5s-46.5 120.333 -46.5 193s15.5 137 46.5 193s74.833 99.5 131.5 130.5s122 46.5 196 46.5s139.333 -15.5 196 -46.5s100.5 -74.5 131.5 -130.5s46.5 -120.333 46.5 -193s-15.5 -137 -46.5 -193s-74.833 -99.5 -131.5 -130.5
s-122 -46.5 -196 -46.5s-139.333 15.5 -196 46.5zM615.5 59c46.333 26 82.5 62.5 108.5 109.5s39 100.833 39 161.5s-13 114.5 -39 161.5s-62.167 83.5 -108.5 109.5s-99.833 39 -160.5 39s-114.167 -13 -160.5 -39s-82.5 -62.5 -108.5 -109.5s-39 -100.833 -39 -161.5
s13 -114.5 39 -161.5s62.167 -83.5 108.5 -109.5s99.833 -39 160.5 -39s114.167 13 160.5 39zM311 194c44 30.667 74.666 52.999 91.999 66.999c48 38 80.5 67.833 97.5 89.5s25.5 43.834 25.5 66.501c0 22 -6.66699 39.667 -20 53s-32.333 20 -57 20
c-26 0 -46.5 -8.16699 -61.5 -24.5s-23.167 -39.166 -24.5 -68.499l-63 22c2.66699 40 17.667 71.5 45 94.5s63 34.5 107 34.5c46.667 0 82.834 -12.333 108.501 -37s38.5 -54.667 38.5 -90c0 -29.333 -11.667 -58.833 -35 -88.5s-60 -61.834 -110 -96.501l-52 -35v-1
c24 2 45.333 3 64 3h142v-57h-297v48z" />
    <glyph glyph-name="uni2782" unicode="&#x2782;" horiz-adv-x="910" 
d="M259 6.5c-56.667 31 -100.5 74.5 -131.5 130.5s-46.5 120.333 -46.5 193s15.5 137 46.5 193s74.833 99.5 131.5 130.5s122 46.5 196 46.5s139.333 -15.5 196 -46.5s100.5 -74.5 131.5 -130.5s46.5 -120.333 46.5 -193s-15.5 -137 -46.5 -193s-74.833 -99.5 -131.5 -130.5
s-122 -46.5 -196 -46.5s-139.333 15.5 -196 46.5zM615.5 59c46.333 26 82.5 62.5 108.5 109.5s39 100.833 39 161.5s-13 114.5 -39 161.5s-62.167 83.5 -108.5 109.5s-99.833 39 -160.5 39s-114.167 -13 -160.5 -39s-82.5 -62.5 -108.5 -109.5s-39 -100.833 -39 -161.5
s13 -114.5 39 -161.5s62.167 -83.5 108.5 -109.5s99.833 -39 160.5 -39s114.167 13 160.5 39zM563.5 505.5c24.333 -19.667 36.502 -45.832 36.502 -78.499c0 -28 -8.33301 -50.333 -25 -67s-34.667 -25.667 -54 -27v-1c22.667 -0.666992 43 -9.16699 61 -25.5
s27 -38.5 27 -66.5c0 -34 -14 -61.333 -42 -82s-64 -31 -108 -31c-82 0 -133.333 32 -154 96l67 30c4 -23.333 13 -40.5 27 -51.5s33.667 -16.5 59 -16.5c23.333 0 42.166 5.83301 56.499 17.5s21.5 27.5 21.5 47.5c0 37.333 -26 56 -78 56h-24v50h21
c23.333 0 41 5.16699 53 15.5s18 25.166 18 44.499c0 20 -5.83301 35.167 -17.5 45.5s-28.5 15.5 -50.5 15.5c-20.667 0 -37.5 -5 -50.5 -15s-21.5 -25 -25.5 -45l-65 23c8 31.333 25 55 51 71s57.333 24 94 24c43.333 0 77.166 -9.83301 101.499 -29.5z" />
    <glyph glyph-name="uni2783" unicode="&#x2783;" horiz-adv-x="910" 
d="M259 6.5c-56.667 31 -100.5 74.5 -131.5 130.5s-46.5 120.333 -46.5 193s15.5 137 46.5 193s74.833 99.5 131.5 130.5s122 46.5 196 46.5s139.333 -15.5 196 -46.5s100.5 -74.5 131.5 -130.5s46.5 -120.333 46.5 -193s-15.5 -137 -46.5 -193s-74.833 -99.5 -131.5 -130.5
s-122 -46.5 -196 -46.5s-139.333 15.5 -196 46.5zM615.5 59c46.333 26 82.5 62.5 108.5 109.5s39 100.833 39 161.5s-13 114.5 -39 161.5s-62.167 83.5 -108.5 109.5s-99.833 39 -160.5 39s-114.167 -13 -160.5 -39s-82.5 -62.5 -108.5 -109.5s-39 -100.833 -39 -161.5
s13 -114.5 39 -161.5s62.167 -83.5 108.5 -109.5s99.833 -39 160.5 -39s114.167 13 160.5 39zM595 235h-71v-99h-59v99h-199v37l182 261h76v-248h71v-50zM465 285v114c0 26 1 51.333 3 76h-3c-12 -22 -22.667 -40 -32 -54l-99 -136h131z" />
    <glyph glyph-name="uni2784" unicode="&#x2784;" horiz-adv-x="910" 
d="M259 6.5c-56.667 31 -100.5 74.5 -131.5 130.5s-46.5 120.333 -46.5 193s15.5 137 46.5 193s74.833 99.5 131.5 130.5s122 46.5 196 46.5s139.333 -15.5 196 -46.5s100.5 -74.5 131.5 -130.5s46.5 -120.333 46.5 -193s-15.5 -137 -46.5 -193s-74.833 -99.5 -131.5 -130.5
s-122 -46.5 -196 -46.5s-139.333 15.5 -196 46.5zM615.5 59c46.333 26 82.5 62.5 108.5 109.5s39 100.833 39 161.5s-13 114.5 -39 161.5s-62.167 83.5 -108.5 109.5s-99.833 39 -160.5 39s-114.167 -13 -160.5 -39s-82.5 -62.5 -108.5 -109.5s-39 -100.833 -39 -161.5
s13 -114.5 39 -161.5s62.167 -83.5 108.5 -109.5s99.833 -39 160.5 -39s114.167 13 160.5 39zM570 347.5c24 -23.667 36.002 -53.501 36.002 -89.501c0 -43.333 -14 -76.833 -42 -100.5s-64.333 -35.5 -109 -35.5c-38 0 -69.667 6.66699 -95 20s-45 35 -59 65l63 36
c10.667 -42 40.334 -63 89.001 -63c25.333 0 45.666 7.16699 60.999 21.5s23 32.833 23 55.5c0 49.333 -27 74 -81 74c-40.667 0 -68.667 -13 -84 -39h-54l18 232h249v-58h-195l-8 -90c-0.666992 -9.33301 -2.33398 -18.666 -5.00098 -27.999h1
c9.33301 11.333 21.166 20 35.499 26s34.833 9 61.5 9c39.333 0 71 -11.833 95 -35.5z" />
    <glyph glyph-name="uni2785" unicode="&#x2785;" horiz-adv-x="910" 
d="M259 6.5c-56.667 31 -100.5 74.5 -131.5 130.5s-46.5 120.333 -46.5 193s15.5 137 46.5 193s74.833 99.5 131.5 130.5s122 46.5 196 46.5s139.333 -15.5 196 -46.5s100.5 -74.5 131.5 -130.5s46.5 -120.333 46.5 -193s-15.5 -137 -46.5 -193s-74.833 -99.5 -131.5 -130.5
s-122 -46.5 -196 -46.5s-139.333 15.5 -196 46.5zM615.5 59c46.333 26 82.5 62.5 108.5 109.5s39 100.833 39 161.5s-13 114.5 -39 161.5s-62.167 83.5 -108.5 109.5s-99.833 39 -160.5 39s-114.167 -13 -160.5 -39s-82.5 -62.5 -108.5 -109.5s-39 -100.833 -39 -161.5
s13 -114.5 39 -161.5s62.167 -83.5 108.5 -109.5s99.833 -39 160.5 -39s114.167 13 160.5 39zM331.5 179.5c-28.333 35 -42.502 85.5 -42.502 151.5c0 65.333 15.833 115.666 47.5 150.999s72.834 53 123.501 53c34 0 61.833 -6.66699 83.5 -20s38.167 -34 49.5 -62l-58 -30
c-11.333 36.667 -36.666 55 -75.999 55c-33.333 0 -59 -13.667 -77 -41s-27 -60.666 -27 -99.999v-13h1c13.333 20 28.333 34.333 45 43s37 13 61 13c42 0 75.5 -11.5 100.5 -34.5s37.5 -53.5 37.5 -91.5c0 -39.333 -13.333 -70.333 -40 -93s-62.667 -34 -108 -34
c-52 0 -92.167 17.5 -120.5 52.5zM512.498 201.5c14.333 12.333 21.5 29.833 21.5 52.5c0 21.333 -7.33301 38.5 -22 51.5s-34.334 19.5 -59.001 19.5c-23.333 0 -42.666 -7.16699 -57.999 -21.5s-23 -30.833 -23 -49.5c0 -21.333 7.33301 -38.5 22 -51.5
s34.334 -19.5 59.001 -19.5c25.333 0 45.166 6.16699 59.499 18.5z" />
    <glyph glyph-name="uni2786" unicode="&#x2786;" horiz-adv-x="910" 
d="M259 6.5c-56.667 31 -100.5 74.5 -131.5 130.5s-46.5 120.333 -46.5 193s15.5 137 46.5 193s74.833 99.5 131.5 130.5s122 46.5 196 46.5s139.333 -15.5 196 -46.5s100.5 -74.5 131.5 -130.5s46.5 -120.333 46.5 -193s-15.5 -137 -46.5 -193s-74.833 -99.5 -131.5 -130.5
s-122 -46.5 -196 -46.5s-139.333 15.5 -196 46.5zM615.5 59c46.333 26 82.5 62.5 108.5 109.5s39 100.833 39 161.5s-13 114.5 -39 161.5s-62.167 83.5 -108.5 109.5s-99.833 39 -160.5 39s-114.167 -13 -160.5 -39s-82.5 -62.5 -108.5 -109.5s-39 -100.833 -39 -161.5
s13 -114.5 39 -161.5s62.167 -83.5 108.5 -109.5s99.833 -39 160.5 -39s114.167 13 160.5 39zM615 517v-57.999c-48 -50 -82.333 -101.833 -103 -155.5s-31 -114.834 -31 -183.501h-70c0 132 45.667 245 137 339h-236v58h303z" />
    <glyph glyph-name="uni2787" unicode="&#x2787;" horiz-adv-x="910" 
d="M259 6.5c-56.667 31 -100.5 74.5 -131.5 130.5s-46.5 120.333 -46.5 193s15.5 137 46.5 193s74.833 99.5 131.5 130.5s122 46.5 196 46.5s139.333 -15.5 196 -46.5s100.5 -74.5 131.5 -130.5s46.5 -120.333 46.5 -193s-15.5 -137 -46.5 -193s-74.833 -99.5 -131.5 -130.5
s-122 -46.5 -196 -46.5s-139.333 15.5 -196 46.5zM615.5 59c46.333 26 82.5 62.5 108.5 109.5s39 100.833 39 161.5s-13 114.5 -39 161.5s-62.167 83.5 -108.5 109.5s-99.833 39 -160.5 39s-114.167 -13 -160.5 -39s-82.5 -62.5 -108.5 -109.5s-39 -100.833 -39 -161.5
s13 -114.5 39 -161.5s62.167 -83.5 108.5 -109.5s99.833 -39 160.5 -39s114.167 13 160.5 39zM559.5 505c25.667 -19.333 38.5 -45.333 38.5 -78c0 -21.333 -6 -39.666 -18 -54.999s-29.333 -26.666 -52 -33.999v-1c27.333 -7.33301 48.333 -19.333 63 -36s22 -37 22 -61
c0 -34.667 -14.167 -62.167 -42.5 -82.5s-66.833 -30.5 -115.5 -30.5c-48 0 -86.333 10.167 -115 30.5s-43 47.833 -43 82.5c0 24 7.5 44.333 22.5 61s35.833 28.667 62.5 36v1c-22 7.33301 -39.167 18.666 -51.5 33.999s-18.5 33.666 -18.5 54.999
c0 32.667 12.833 58.667 38.5 78s60.5 29 104.5 29s78.833 -9.66699 104.5 -29zM401 465.5c-13.333 -10.333 -20 -24.5 -20 -42.5s6.66699 -32.333 20 -43s31.333 -16 54 -16s40.667 5.33301 54 16s20 25 20 43s-6.66699 32.167 -20 42.5s-31.333 15.5 -54 15.5
s-40.667 -5.16699 -54 -15.5zM518.5 198.5c15.667 11.667 23.499 27.167 23.499 46.5c0 20 -7.83301 35.833 -23.5 47.5s-36.834 17.5 -63.501 17.5c-26 0 -47 -5.83301 -63 -17.5s-24 -27.5 -24 -47.5c0 -19.333 7.83301 -34.833 23.5 -46.5s36.834 -17.5 63.501 -17.5
s47.834 5.83301 63.501 17.5z" />
    <glyph glyph-name="uni2788" unicode="&#x2788;" horiz-adv-x="910" 
d="M259 6.5c-56.667 31 -100.5 74.5 -131.5 130.5s-46.5 120.333 -46.5 193s15.5 137 46.5 193s74.833 99.5 131.5 130.5s122 46.5 196 46.5s139.333 -15.5 196 -46.5s100.5 -74.5 131.5 -130.5s46.5 -120.333 46.5 -193s-15.5 -137 -46.5 -193s-74.833 -99.5 -131.5 -130.5
s-122 -46.5 -196 -46.5s-139.333 15.5 -196 46.5zM615.5 59c46.333 26 82.5 62.5 108.5 109.5s39 100.833 39 161.5s-13 114.5 -39 161.5s-62.167 83.5 -108.5 109.5s-99.833 39 -160.5 39s-114.167 -13 -160.5 -39s-82.5 -62.5 -108.5 -109.5s-39 -100.833 -39 -161.5
s13 -114.5 39 -161.5s62.167 -83.5 108.5 -109.5s99.833 -39 160.5 -39s114.167 13 160.5 39zM577 481.5c28.667 -35.667 42.9941 -86.167 42.9941 -151.5s-14.5 -115.5 -43.5 -150.5s-69.5 -52.5 -121.5 -52.5c-76 0 -125 28.667 -147 86l66 28
c4.66699 -19.333 13.334 -33.833 26.001 -43.5s31.334 -14.5 56.001 -14.5c34 0 58.833 12.667 74.5 38s23.5 56 23.5 92c0 9.33301 -0.333008 16 -1 20h-1c-5.33301 -13.333 -18.166 -25.5 -38.499 -36.5s-41.166 -16.5 -62.499 -16.5
c-45.333 0 -80.666 11.167 -105.999 33.5s-38 52.833 -38 91.5c0 40 13.333 71.667 40 95s63.334 35 110.001 35c51.333 0 91.333 -17.833 120 -53.5zM397.494 459c-14.333 -12.667 -21.499 -30.332 -21.499 -52.999c0 -22 7.16699 -39.333 21.5 -52s34.166 -19 59.499 -19
c24 0 43.833 6.83301 59.5 20.5s23.5 30.5 23.5 50.5c0 21.333 -7.66699 38.666 -23 51.999s-35 20 -59 20c-26 0 -46.167 -6.33301 -60.5 -19z" />
    <glyph glyph-name="uniF8FF" unicode="&#xf8ff;" horiz-adv-x="1130" 
d="M1081 283l-62.999 -30l41 -51l-69 -12l28 -61l-61 -4c-9.33301 -6 -18.666 -11 -27.999 -15v-81c0 -19.333 -9.66699 -29 -29 -29h-46c-19.333 0 -29 7.66699 -29 23c0 16.667 9.66699 25 29 25h11v39c-18.667 -4.66699 -40.667 -8 -66 -10v-48
c0 -19.333 -9.66699 -29 -29 -29h-46c-19.333 0 -29 7.66699 -29 23c0 16.667 9.66699 25 29 25h11v27h-226v-46c0 -19.333 -9.66699 -29 -29 -29h-46c-20 0 -30 7.66699 -30 23c0 8 2.66699 14.167 8 18.5s12.666 6.5 21.999 6.5h12v27h-88v-46c0 -19.333 -10 -29 -30 -29
h-44c-20.667 0 -31 7.66699 -31 23c0 16.667 10.333 25 31 25h10v37c-44.667 2 -87.834 10.333 -129.501 25s-75.5 33.334 -101.5 56.001h-5c-10.667 0 -20.167 4.16699 -28.5 12.5s-12.5 17.833 -12.5 28.5c0 11.333 4.16699 21 12.5 29s17.833 12 28.5 12
c3.33301 0 7 -0.666992 11 -2c25.333 19.333 47.5 45.666 66.5 78.999s28.5 64.333 28.5 93l4 83l56 -28v69l56 -30l-4 62l67 -26l5 66l65 -33l8 65l67 -36l17 65l57 -50l30 64l49 -50l49 54l37 -59l50 55l26 -64l63 44l7 -69l70 31l-11 -69l76 16l-21 -64l73 3l-40 -56
l66 -23l-54 -38l57 -39l-59 -35zM431.001 272.5c8.66699 11.667 12.998 25.834 12.998 42.501c0 23.333 -7.66699 42.166 -23 56.499s-34.333 21.5 -57 21.5c-7.33301 0 -14.666 -1.66699 -21.999 -5s-13.666 -7.33301 -18.999 -12l11 -19c8 7.33301 17 11.333 27 12
c17.333 0.666992 31 -4 41 -14s15 -24 15 -42c0 -24.667 -11.333 -39.667 -34 -45l12 -21c15.333 5.33301 27.333 13.833 36 25.5zM285.499 249c11.667 11.333 17.5 27 17.5 47h-24c0 -13.333 -3.33301 -22.833 -10 -28.5s-17 -8.5 -31 -8.5s-24.333 2.83301 -31 8.5
s-10 15.167 -10 28.5h-24c0 -20 5.83301 -35.667 17.5 -47s27.5 -17 47.5 -17s35.833 5.66699 47.5 17z" />
    <glyph glyph-name="E.swsh.001" horiz-adv-x="747" 
d="M675 316c18.667 -13.333 33.667 -32.168 45 -56.501s17 -52.5 17 -84.5c0 -56 -18.667 -99.167 -56 -129.5s-88.333 -45.5 -153 -45.5h-420v660h488v-75h-408v-222h218v-75h-218v-213h323c50 0 86.833 8 110.5 24s35.5 41.667 35.5 77c0 30.667 -6.83301 54.5 -20.5 71.5
s-31.5 25.833 -53.5 26.5l31 64c22 -1.33301 42.333 -8.66602 61 -21.999z" />
    <glyph glyph-name="Eacute.swsh.001" horiz-adv-x="747" 
d="M388 743h-65l57 148h94zM675 316c18.667 -13.333 33.667 -32.168 45 -56.501s17 -52.5 17 -84.5c0 -56 -18.667 -99.167 -56 -129.5s-88.333 -45.5 -153 -45.5h-420v660h488v-75h-408v-222h218v-75h-218v-213h323c50 0 86.833 8 110.5 24s35.5 41.667 35.5 77
c0 30.667 -6.83301 54.5 -20.5 71.5s-31.5 25.833 -53.5 26.5l31 64c22 -1.33301 42.333 -8.66602 61 -21.999z" />
    <glyph glyph-name="Ecaron.swsh.001" horiz-adv-x="747" 
d="M320 738l-114 167h73l86 -115l86 115h73l-114 -167h-90zM675 316c18.667 -13.333 33.667 -32.168 45 -56.501s17 -52.5 17 -84.5c0 -56 -18.667 -99.167 -56 -129.5s-88.333 -45.5 -153 -45.5h-420v660h488v-75h-408v-222h218v-75h-218v-213h323c50 0 86.833 8 110.5 24
s35.5 41.667 35.5 77c0 30.667 -6.83301 54.5 -20.5 71.5s-31.5 25.833 -53.5 26.5l31 64c22 -1.33301 42.333 -8.66602 61 -21.999z" />
    <glyph glyph-name="Ecircumflex.swsh.001" horiz-adv-x="747" 
d="M279 736h-73l114 167h90l114 -167h-73l-86 115zM675 316c18.667 -13.333 33.667 -32.168 45 -56.501s17 -52.5 17 -84.5c0 -56 -18.667 -99.167 -56 -129.5s-88.333 -45.5 -153 -45.5h-420v660h488v-75h-408v-222h218v-75h-218v-213h323c50 0 86.833 8 110.5 24
s35.5 41.667 35.5 77c0 30.667 -6.83301 54.5 -20.5 71.5s-31.5 25.833 -53.5 26.5l31 64c22 -1.33301 42.333 -8.66602 61 -21.999z" />
    <glyph glyph-name="Edieresis.swsh.001" horiz-adv-x="747" 
d="M675 316c18.667 -13.333 33.667 -32.168 45 -56.501s17 -52.5 17 -84.5c0 -56 -18.667 -99.167 -56 -129.5s-88.333 -45.5 -153 -45.5h-420v660h488v-75h-408v-222h218v-75h-218v-213h323c50 0 86.833 8 110.5 24s35.5 41.667 35.5 77c0 30.667 -6.83301 54.5 -20.5 71.5
s-31.5 25.833 -53.5 26.5l31 64c22 -1.33301 42.333 -8.66602 61 -21.999zM309.5 840.498c10.333 -10.333 15.5 -24.166 15.5 -41.499c0 -16.667 -5.16699 -30.334 -15.5 -41.001s-24.166 -16 -41.499 -16c-16.667 0 -30.334 5.33301 -41.001 16s-16 24.334 -16 41.001
c0 17.333 5.33301 31.166 16 41.499s24.334 15.5 41.001 15.5c17.333 0 31.166 -5.16699 41.499 -15.5zM503.5 840.498c10.333 -10.333 15.5 -24.166 15.5 -41.499c0 -16.667 -5.16699 -30.334 -15.5 -41.001s-24.166 -16 -41.499 -16c-16.667 0 -30.334 5.33301 -41.001 16
s-16 24.334 -16 41.001c0 17.333 5.33301 31.166 16 41.499s24.334 15.5 41.001 15.5c17.333 0 31.166 -5.16699 41.499 -15.5z" />
    <glyph glyph-name="Edotaccent.swsh.001" horiz-adv-x="747" 
d="M675 316c18.667 -13.333 33.667 -32.168 45 -56.501s17 -52.5 17 -84.5c0 -56 -18.667 -99.167 -56 -129.5s-88.333 -45.5 -153 -45.5h-420v660h488v-75h-408v-222h218v-75h-218v-213h323c50 0 86.833 8 110.5 24s35.5 41.667 35.5 77c0 30.667 -6.83301 54.5 -20.5 71.5
s-31.5 25.833 -53.5 26.5l31 64c22 -1.33301 42.333 -8.66602 61 -21.999zM408.5 859.498c11 -11 16.5 -25.5 16.5 -43.5s-5.5 -32.5 -16.5 -43.5s-25.5 -16.5 -43.5 -16.5s-32.5 5.5 -43.5 16.5s-16.5 25.5 -16.5 43.5s5.5 32.5 16.5 43.5s25.5 16.5 43.5 16.5
s32.5 -5.5 43.5 -16.5z" />
    <glyph glyph-name="Egrave.swsh.001" horiz-adv-x="747" 
d="M333 743l-86 148h94l57 -148h-65zM675 316c18.667 -13.333 33.667 -32.168 45 -56.501s17 -52.5 17 -84.5c0 -56 -18.667 -99.167 -56 -129.5s-88.333 -45.5 -153 -45.5h-420v660h488v-75h-408v-222h218v-75h-218v-213h323c50 0 86.833 8 110.5 24s35.5 41.667 35.5 77
c0 30.667 -6.83301 54.5 -20.5 71.5s-31.5 25.833 -53.5 26.5l31 64c22 -1.33301 42.333 -8.66602 61 -21.999z" />
    <glyph glyph-name="Emacron.swsh.001" horiz-adv-x="747" 
d="M675 316c18.667 -13.333 33.667 -32.168 45 -56.501s17 -52.5 17 -84.5c0 -56 -18.667 -99.167 -56 -129.5s-88.333 -45.5 -153 -45.5h-420v660h488v-75h-408v-222h218v-75h-218v-213h323c50 0 86.833 8 110.5 24s35.5 41.667 35.5 77c0 30.667 -6.83301 54.5 -20.5 71.5
s-31.5 25.833 -53.5 26.5l31 64c22 -1.33301 42.333 -8.66602 61 -21.999zM539 755.998h-348v67h348v-67z" />
    <glyph glyph-name="M.swsh.001" horiz-adv-x="1073" 
d="M965 660l0.000976562 -660.002h-76v415l9 174h-1l-217 -589h-68l-217 589h-1l9 -174v-415h-76v595h-91c-45.333 0 -81 -9.66699 -107 -29s-39 -48 -39 -86c0 -30 10.167 -55.167 30.5 -75.5s46.833 -33.166 79.5 -38.499l-31 -64
c-44.667 6.66699 -82.334 26.334 -113.001 59.001s-46 72.667 -46 120c0 55.333 18.833 99 56.5 131s88.5 48 152.5 48h231l145 -401l50 -165h2l51 164l144 402h123z" />
    <glyph glyph-name="R.swsh.001" horiz-adv-x="685" 
d="M604.5 19c30.333 -25.333 57.166 -42.001 80.499 -50.001l-43 -55c-36 18 -65 35 -87 51s-39.5 31.333 -52.5 46s-27.5 33.667 -43.5 57l-144 206h-127v-274h-80v660h250c67.333 0 121.333 -17.333 162 -52s61 -81.667 61 -141c0 -52.667 -16.167 -95.667 -48.5 -129
s-76.166 -53.666 -131.499 -60.999l134 -187c16 -22 39.167 -45.667 69.5 -71zM188 348.999h169c93.333 0 140 39.333 140 118s-46.667 118 -140 118h-169v-236z" />
    <glyph glyph-name="Racute.swsh.001" horiz-adv-x="685" 
d="M345 743h-65l57 148h94zM604.5 19c30.333 -25.333 57.166 -42.001 80.499 -50.001l-43 -55c-36 18 -65 35 -87 51s-39.5 31.333 -52.5 46s-27.5 33.667 -43.5 57l-144 206h-127v-274h-80v660h250c67.333 0 121.333 -17.333 162 -52s61 -81.667 61 -141
c0 -52.667 -16.167 -95.667 -48.5 -129s-76.166 -53.666 -131.499 -60.999l134 -187c16 -22 39.167 -45.667 69.5 -71zM188 348.999h169c93.333 0 140 39.333 140 118s-46.667 118 -140 118h-169v-236z" />
    <glyph glyph-name="Rcaron.swsh.001" horiz-adv-x="685" 
d="M277 738l-114 167h73l86 -115l86 115h73l-114 -167h-90zM604.5 19c30.333 -25.333 57.166 -42.001 80.499 -50.001l-43 -55c-36 18 -65 35 -87 51s-39.5 31.333 -52.5 46s-27.5 33.667 -43.5 57l-144 206h-127v-274h-80v660h250c67.333 0 121.333 -17.333 162 -52
s61 -81.667 61 -141c0 -52.667 -16.167 -95.667 -48.5 -129s-76.166 -53.666 -131.499 -60.999l134 -187c16 -22 39.167 -45.667 69.5 -71zM188 348.999h169c93.333 0 140 39.333 140 118s-46.667 118 -140 118h-169v-236z" />
    <glyph glyph-name="Rcommaaccent.swsh.001" horiz-adv-x="685" 
d="M604.5 19c30.333 -25.333 57.166 -42.001 80.499 -50.001l-43 -55c-36 18 -65 35 -87 51s-39.5 31.333 -52.5 46s-27.5 33.667 -43.5 57l-144 206h-127v-274h-80v660h250c67.333 0 121.333 -17.333 162 -52s61 -81.667 61 -141c0 -52.667 -16.167 -95.667 -48.5 -129
s-76.166 -53.666 -131.499 -60.999l134 -187c16 -22 39.167 -45.667 69.5 -71zM188 348.999h169c93.333 0 140 39.333 140 118s-46.667 118 -140 118h-169v-236zM330 -237.001h-63l44 161h84z" />
    <glyph glyph-name="Iacute_J.loclNLD" horiz-adv-x="862" 
d="M257 891l-86 -148h-65l57 148h94zM840 891l-86 -148h-65l57 148h94zM188 0h-80v660h80v-660zM761 226c0 -74 -19.834 -131.832 -59.501 -173.499s-94.5 -62.5 -164.5 -62.5c-63.333 0 -112.333 15.5 -147 46.5s-52 73.833 -52 128.5c0 19.333 1.66699 37 5 53l74 15
c-2.66699 -22.667 -4 -38.667 -4 -48c0 -40.667 9.66699 -70.834 29 -90.501s50 -29.5 92 -29.5c54.667 0 92.834 14.667 114.501 44s32.5 75 32.5 137v414h80v-434z" />
    <glyph glyph-name="R.ss03" horiz-adv-x="655" 
d="M108 660l250.003 -0.000976562c67.333 0 121.333 -17.333 162 -52s61 -81.667 61 -141c0 -43.333 -11.833 -79.333 -35.5 -108s-57.834 -48.334 -102.501 -59.001v-2c38 -6.66699 66.667 -21.5 86 -44.5s29.666 -52.833 30.999 -89.5
c3.33301 -53.333 7.33301 -90.166 12 -110.499s11 -37.166 19 -50.499v-3h-86c-12 27.333 -20 79.333 -24 156c-2 39.333 -15.333 68.833 -40 88.5s-62.334 29.5 -113.001 29.5h-140v-274h-80v660zM357.003 348.999c93.333 0 140 39.333 140 118s-46.667 118 -140 118h-169
v-236h169z" />
    <glyph glyph-name="Racute.ss03" horiz-adv-x="655" 
d="M431 891l-86 -148h-65l57 148h94zM108 660l250.003 -0.000976562c67.333 0 121.333 -17.333 162 -52s61 -81.667 61 -141c0 -43.333 -11.833 -79.333 -35.5 -108s-57.834 -48.334 -102.501 -59.001v-2c38 -6.66699 66.667 -21.5 86 -44.5s29.666 -52.833 30.999 -89.5
c3.33301 -53.333 7.33301 -90.166 12 -110.499s11 -37.166 19 -50.499v-3h-86c-12 27.333 -20 79.333 -24 156c-2 39.333 -15.333 68.833 -40 88.5s-62.334 29.5 -113.001 29.5h-140v-274h-80v660zM357.003 348.999c93.333 0 140 39.333 140 118s-46.667 118 -140 118h-169
v-236h169z" />
    <glyph glyph-name="Rcaron.ss03" horiz-adv-x="655" 
d="M367 738h-90l-114 167h73l86 -115l86 115h73zM108 660l250.003 -0.000976562c67.333 0 121.333 -17.333 162 -52s61 -81.667 61 -141c0 -43.333 -11.833 -79.333 -35.5 -108s-57.834 -48.334 -102.501 -59.001v-2c38 -6.66699 66.667 -21.5 86 -44.5
s29.666 -52.833 30.999 -89.5c3.33301 -53.333 7.33301 -90.166 12 -110.499s11 -37.166 19 -50.499v-3h-86c-12 27.333 -20 79.333 -24 156c-2 39.333 -15.333 68.833 -40 88.5s-62.334 29.5 -113.001 29.5h-140v-274h-80v660zM357.003 348.999
c93.333 0 140 39.333 140 118s-46.667 118 -140 118h-169v-236h169z" />
    <glyph glyph-name="Rcommaaccent.ss03" horiz-adv-x="655" 
d="M108 660l250.003 -0.000976562c67.333 0 121.333 -17.333 162 -52s61 -81.667 61 -141c0 -43.333 -11.833 -79.333 -35.5 -108s-57.834 -48.334 -102.501 -59.001v-2c38 -6.66699 66.667 -21.5 86 -44.5s29.666 -52.833 30.999 -89.5
c3.33301 -53.333 7.33301 -90.166 12 -110.499s11 -37.166 19 -50.499v-3h-86c-12 27.333 -20 79.333 -24 156c-2 39.333 -15.333 68.833 -40 88.5s-62.334 29.5 -113.001 29.5h-140v-274h-80v660zM357.003 348.999c93.333 0 140 39.333 140 118s-46.667 118 -140 118h-169
v-236h169zM330.003 -237.001h-63l44 161h84z" />
    <glyph glyph-name="G.ss04" horiz-adv-x="724" 
d="M658 333l0.00488281 -60.998c0 -86.667 -24.5 -155.334 -73.5 -206.001s-119.167 -76 -210.5 -76c-62 0 -116 13.833 -162 41.5s-81.5 67 -106.5 118s-37.5 111.167 -37.5 180.5c0 68.667 12.833 128.667 38.5 180s61.667 90.833 108 118.5s100.166 41.5 161.499 41.5
c65.333 0 119.166 -12.333 161.499 -37s76.5 -62.667 102.5 -114l-73 -40c-14.667 37.333 -38.5 66 -71.5 86s-72.833 30 -119.5 30c-44.667 0 -83.834 -10.667 -117.501 -32s-59.834 -51.833 -78.501 -91.5s-28 -86.834 -28 -141.501c0 -84 19.667 -149.167 59 -195.5
s95.666 -69.5 168.999 -69.5c46.667 0 85.167 9.33301 115.5 28s52.333 42.167 66 70.5s20.5 57.833 20.5 88.5v6h-220v75h296z" />
    </font>
</defs>
</svg>
